roboto-mono_thin-italic.sfdir
StartChar: exclam
Encoding: 33 33 1040
Width: 1202
Flags: W
LayerCount: 2
Back
Fore
SplineSet
568 401 m 1,0,-1
 513 401 l 1,1,-1
 694 1456 l 1,2,-1
 749 1456 l 1,3,-1
 568 401 l 1,0,-1
431 51 m 0,4,5
 432 61 432 61 438.5 70.5 c 128,-1,6
 445 80 445 80 453.5 87.5 c 128,-1,7
 462 95 462 95 472.5 100 c 128,-1,8
 483 105 483 105 493 105 c 0,9,10
 515 105 515 105 530.5 87 c 128,-1,11
 546 69 546 69 543 47 c 0,12,13
 541 37 541 37 535 27.5 c 128,-1,14
 529 18 529 18 520 10.5 c 128,-1,15
 511 3 511 3 500 -1.5 c 128,-1,16
 489 -6 489 -6 479 -6 c 0,17,18
 457 -5 457 -5 442 12 c 128,-1,19
 427 29 427 29 431 51 c 0,4,5
EndSplineSet
EndChar
StartChar: quotedbl
Encoding: 34 34 4
Width: 1202
Flags: W
LayerCount: 2
Back
Fore
SplineSet
623 1388 m 1,0,-1
 571 1122 l 1,1,-1
 518 1122 l 1,2,-1
 567 1395 l 1,3,-1
 587 1536 l 1,4,-1
 647 1536 l 1,5,-1
 623 1388 l 1,0,-1
864 1388 m 1,6,-1
 813 1122 l 1,7,-1
 760 1122 l 1,8,-1
 810 1395 l 1,9,-1
 830 1536 l 1,10,-1
 889 1536 l 1,11,-1
 864 1388 l 1,6,-1
EndSplineSet
EndChar
StartChar: numbersign
Encoding: 35 35 5
Width: 1202
Flags: W
LayerCount: 2
Back
Fore
SplineSet
695 410 m 1,0,-1
 346 410 l 1,1,-1
 203 0 l 1,2,-1
 146 0 l 1,3,-1
 288 410 l 1,4,-1
 27 410 l 1,5,-1
 34 462 l 1,6,-1
 306 462 l 1,7,-1
 489 986 l 1,8,-1
 200 986 l 1,9,-1
 208 1040 l 1,10,-1
 508 1040 l 1,11,-1
 653 1455 l 1,12,-1
 710 1455 l 1,13,-1
 565 1040 l 1,14,-1
 915 1040 l 1,15,-1
 1061 1455 l 1,16,-1
 1118 1455 l 1,17,-1
 974 1040 l 1,18,-1
 1218 1040 l 1,19,-1
 1211 986 l 1,20,-1
 955 986 l 1,21,-1
 771 462 l 1,22,-1
 1045 462 l 1,23,-1
 1038 410 l 1,24,-1
 753 410 l 1,25,-1
 609 0 l 1,26,-1
 553 0 l 1,27,-1
 695 410 l 1,0,-1
364 462 m 1,28,-1
 712 462 l 1,29,-1
 897 986 l 1,30,-1
 547 986 l 1,31,-1
 364 462 l 1,28,-1
EndSplineSet
EndChar
StartChar: dollar
Encoding: 36 36 6
Width: 1202
Flags: W
LayerCount: 2
Back
Fore
SplineSet
944 344 m 0,0,1
 958 420 958 420 936 476.5 c 128,-1,2
 914 533 914 533 870 575 c 128,-1,3
 826 617 826 617 767 647.5 c 128,-1,4
 708 678 708 678 648 702 c 0,5,6
 578 730 578 730 512 764.5 c 128,-1,7
 446 799 446 799 397.5 847 c 128,-1,8
 349 895 349 895 325 959 c 128,-1,9
 301 1023 301 1023 314 1110 c 0,10,11
 326 1191 326 1191 364.5 1256 c 128,-1,12
 403 1321 403 1321 460 1367.5 c 128,-1,13
 517 1414 517 1414 589 1442 c 128,-1,14
 661 1470 661 1470 739 1476 c 1,15,-1
 770 1663 l 1,16,-1
 826 1663 l 1,17,-1
 795 1476 l 1,18,19
 883 1468 883 1468 945 1430.5 c 128,-1,20
 1007 1393 1007 1393 1043.5 1335.5 c 128,-1,21
 1080 1278 1080 1278 1093.5 1203.5 c 128,-1,22
 1107 1129 1107 1129 1100 1047 c 1,23,-1
 1046 1047 l 1,24,25
 1054 1120 1054 1120 1041.5 1187.5 c 128,-1,26
 1029 1255 1029 1255 994.5 1307.5 c 128,-1,27
 960 1360 960 1360 902.5 1392 c 128,-1,28
 845 1424 845 1424 764 1424 c 0,29,30
 694 1424 694 1424 628.5 1401.5 c 128,-1,31
 563 1379 563 1379 509 1338 c 128,-1,32
 455 1297 455 1297 418 1239.5 c 128,-1,33
 381 1182 381 1182 368 1112 c 0,34,35
 358 1060 358 1060 365 1018 c 128,-1,36
 372 976 372 976 391.5 941.5 c 128,-1,37
 411 907 411 907 440.5 879.5 c 128,-1,38
 470 852 470 852 506 829.5 c 128,-1,39
 542 807 542 807 582.5 788.5 c 128,-1,40
 623 770 623 770 664 754 c 0,41,42
 734 727 734 727 799.5 692 c 128,-1,43
 865 657 865 657 913.5 608.5 c 128,-1,44
 962 560 962 560 986.5 495.5 c 128,-1,45
 1011 431 1011 431 999 346 c 0,46,47
 987 265 987 265 948.5 201 c 128,-1,48
 910 137 910 137 853.5 90.5 c 128,-1,49
 797 44 797 44 726 16.5 c 128,-1,50
 655 -11 655 -11 578 -19 c 1,51,-1
 547 -208 l 1,52,-1
 491 -208 l 1,53,-1
 522 -21 l 1,54,55
 428 -16 428 -16 356.5 17 c 128,-1,56
 285 50 285 50 237.5 106.5 c 128,-1,57
 190 163 190 163 169 239.5 c 128,-1,58
 148 316 148 316 156 409 c 1,59,-1
 211 409 l 1,60,61
 202 326 202 326 221 256.5 c 128,-1,62
 240 187 240 187 283.5 137 c 128,-1,63
 327 87 327 87 393 59 c 128,-1,64
 459 31 459 31 544 32 c 0,65,66
 613 33 613 33 679 55.5 c 128,-1,67
 745 78 745 78 800 119 c 128,-1,68
 855 160 855 160 893 217 c 128,-1,69
 931 274 931 274 944 344 c 0,0,1
EndSplineSet
EndChar
StartChar: percent
Encoding: 37 37 7
Width: 1202
Flags: W
LayerCount: 2
Back
Fore
SplineSet
141 1176 m 2,0,1
 151 1228 151 1228 174 1281 c 128,-1,2
 197 1334 197 1334 232.5 1377.5 c 128,-1,3
 268 1421 268 1421 316 1449 c 128,-1,4
 364 1477 364 1477 423 1477 c 0,5,6
 483 1477 483 1477 521.5 1448 c 128,-1,7
 560 1419 560 1419 581.5 1375 c 128,-1,8
 603 1331 603 1331 609 1277.5 c 128,-1,9
 615 1224 615 1224 608 1176 c 2,10,-1
 595 1099 l 2,11,12
 586 1048 586 1048 563 995 c 128,-1,13
 540 942 540 942 505 898.5 c 128,-1,14
 470 855 470 855 422.5 827.5 c 128,-1,15
 375 800 375 800 317 800 c 0,16,17
 257 800 257 800 217.5 828.5 c 128,-1,18
 178 857 178 857 156 900.5 c 128,-1,19
 134 944 134 944 128 997 c 128,-1,20
 122 1050 122 1050 129 1099 c 2,21,-1
 141 1176 l 2,0,1
183 1099 m 2,22,23
 177 1061 177 1061 179 1018.5 c 128,-1,24
 181 976 181 976 195.5 939.5 c 128,-1,25
 210 903 210 903 239.5 879 c 128,-1,26
 269 855 269 855 317 855 c 256,27,28
 365 855 365 855 402.5 878 c 128,-1,29
 440 901 440 901 468 936.5 c 128,-1,30
 496 972 496 972 514 1015 c 128,-1,31
 532 1058 532 1058 540 1099 c 2,32,-1
 555 1176 l 2,33,34
 561 1213 561 1213 559 1256 c 128,-1,35
 557 1299 557 1299 543 1335.5 c 128,-1,36
 529 1372 529 1372 500 1397 c 128,-1,37
 471 1422 471 1422 423 1422 c 256,38,39
 375 1422 375 1422 337 1399 c 128,-1,40
 299 1376 299 1376 270.5 1340 c 128,-1,41
 242 1304 242 1304 224 1260.5 c 128,-1,42
 206 1217 206 1217 197 1176 c 2,43,-1
 183 1099 l 2,22,23
638 357 m 2,44,45
 648 408 648 408 671 461.5 c 128,-1,46
 694 515 694 515 729 558 c 128,-1,47
 764 601 764 601 811.5 629 c 128,-1,48
 859 657 859 657 918 657 c 0,49,50
 978 657 978 657 1017 628.5 c 128,-1,51
 1056 600 1056 600 1078 556 c 128,-1,52
 1100 512 1100 512 1106 459 c 128,-1,53
 1112 406 1112 406 1105 357 c 2,54,-1
 1093 279 l 2,55,56
 1083 228 1083 228 1060 174.5 c 128,-1,57
 1037 121 1037 121 1001.5 78 c 128,-1,58
 966 35 966 35 918.5 7 c 128,-1,59
 871 -21 871 -21 812 -21 c 256,60,61
 753 -21 753 -21 713.5 7.5 c 128,-1,62
 674 36 674 36 652.5 80 c 128,-1,63
 631 124 631 124 624.5 177 c 128,-1,64
 618 230 618 230 625 279 c 2,65,-1
 638 357 l 2,44,45
679 279 m 2,66,67
 673 241 673 241 675 198.5 c 128,-1,68
 677 156 677 156 691.5 119.5 c 128,-1,69
 706 83 706 83 735 58.5 c 128,-1,70
 764 34 764 34 812 34 c 256,71,72
 860 34 860 34 898 57 c 128,-1,73
 936 80 936 80 964 115.5 c 128,-1,74
 992 151 992 151 1010 194.5 c 128,-1,75
 1028 238 1028 238 1037 279 c 2,76,-1
 1051 357 l 2,77,78
 1057 395 1057 395 1055.5 438 c 128,-1,79
 1054 481 1054 481 1039.5 517 c 128,-1,80
 1025 553 1025 553 996 577.5 c 128,-1,81
 967 602 967 602 918 602 c 0,82,83
 870 602 870 602 832 579.5 c 128,-1,84
 794 557 794 557 766 521.5 c 128,-1,85
 738 486 738 486 720.5 442.5 c 128,-1,86
 703 399 703 399 694 357 c 2,87,-1
 679 279 l 2,66,67
228 132 m 1,88,-1
 188 164 l 1,89,-1
 987 1299 l 1,90,-1
 1027 1267 l 1,91,-1
 228 132 l 1,88,-1
EndSplineSet
EndChar
StartChar: ampersand
Encoding: 38 38 8
Width: 1202
Flags: W
LayerCount: 2
Back
Fore
SplineSet
469 803 m 1,0,1
 446 845 446 845 425.5 888.5 c 128,-1,2
 405 932 405 932 391.5 977.5 c 128,-1,3
 378 1023 378 1023 373 1070.5 c 128,-1,4
 368 1118 368 1118 376 1167 c 0,5,6
 385 1228 385 1228 412 1284 c 128,-1,7
 439 1340 439 1340 481 1383 c 128,-1,8
 523 1426 523 1426 578 1451.5 c 128,-1,9
 633 1477 633 1477 698 1477 c 0,10,11
 753 1477 753 1477 796.5 1455.5 c 128,-1,12
 840 1434 840 1434 868.5 1397.5 c 128,-1,13
 897 1361 897 1361 909.5 1313 c 128,-1,14
 922 1265 922 1265 914 1213 c 0,15,16
 907 1166 907 1166 885 1124.5 c 128,-1,17
 863 1083 863 1083 833 1046.5 c 128,-1,18
 803 1010 803 1010 767 978 c 128,-1,19
 731 946 731 946 696 918 c 2,20,-1
 536 794 l 1,21,-1
 874 263 l 1,22,23
 937 346 937 346 977.5 438.5 c 128,-1,24
 1018 531 1018 531 1040 632 c 1,25,-1
 1094 632 l 1,26,27
 1075 515 1075 515 1029 410.5 c 128,-1,28
 983 306 983 306 908 215 c 1,29,-1
 1048 0 l 1,30,-1
 986 0 l 1,31,-1
 874 174 l 1,32,33
 831 136 831 136 783.5 101 c 128,-1,34
 736 66 736 66 684.5 39 c 128,-1,35
 633 12 633 12 577.5 -4 c 128,-1,36
 522 -20 522 -20 462 -20 c 0,37,38
 382 -20 382 -20 314 7 c 128,-1,39
 246 34 246 34 198.5 83.5 c 128,-1,40
 151 133 151 133 129.5 201 c 128,-1,41
 108 269 108 269 120 352 c 0,42,43
 129 416 129 416 158 474 c 128,-1,44
 187 532 187 532 227.5 583 c 128,-1,45
 268 634 268 634 316.5 679 c 128,-1,46
 365 724 365 724 414 762 c 2,47,-1
 469 803 l 1,0,1
461 34 m 0,48,49
 518 34 518 34 570 48 c 128,-1,50
 622 62 622 62 669.5 87 c 128,-1,51
 717 112 717 112 760 146 c 128,-1,52
 803 180 803 180 842 220 c 1,53,-1
 519 725 l 1,54,-1
 496 762 l 1,55,-1
 445 723 l 2,56,57
 401 688 401 688 356.5 647.5 c 128,-1,58
 312 607 312 607 274.5 560.5 c 128,-1,59
 237 514 237 514 210 462 c 128,-1,60
 183 410 183 410 174 352 c 0,61,62
 162 282 162 282 180 223.5 c 128,-1,63
 198 165 198 165 238 123 c 128,-1,64
 278 81 278 81 335.5 57.5 c 128,-1,65
 393 34 393 34 461 34 c 0,48,49
431 1169 m 0,66,67
 423 1125 423 1125 426 1081.5 c 128,-1,68
 429 1038 429 1038 440.5 996 c 128,-1,69
 452 954 452 954 469.5 914 c 128,-1,70
 487 874 487 874 508 836 c 1,71,-1
 670 960 l 2,72,73
 701 984 701 984 731.5 1011.5 c 128,-1,74
 762 1039 762 1039 787.5 1070.5 c 128,-1,75
 813 1102 813 1102 831.5 1137.5 c 128,-1,76
 850 1173 850 1173 858 1213 c 0,77,78
 865 1253 865 1253 857 1291 c 128,-1,79
 849 1329 849 1329 828 1358 c 128,-1,80
 807 1387 807 1387 774.5 1404.5 c 128,-1,81
 742 1422 742 1422 699 1423 c 0,82,83
 646 1423 646 1423 600.5 1402 c 128,-1,84
 555 1381 555 1381 520.5 1345.5 c 128,-1,85
 486 1310 486 1310 463 1264 c 128,-1,86
 440 1218 440 1218 431 1169 c 0,66,67
EndSplineSet
EndChar
StartChar: quotesingle
Encoding: 39 39 9
Width: 1202
Flags: W
LayerCount: 2
Back
Fore
SplineSet
705 1362 m 1,0,-1
 653 1122 l 1,1,-1
 603 1122 l 1,2,-1
 651 1370 l 1,3,-1
 676 1536 l 1,4,-1
 731 1536 l 1,5,-1
 705 1362 l 1,0,-1
EndSplineSet
EndChar
StartChar: parenleft
Encoding: 40 40 10
Width: 1202
Flags: W
LayerCount: 2
Back
Fore
SplineSet
391 586 m 2,0,1
 406 681 406 681 430 780 c 128,-1,2
 454 879 454 879 488 976.5 c 128,-1,3
 522 1074 522 1074 567 1167.5 c 128,-1,4
 612 1261 612 1261 669.5 1344.5 c 128,-1,5
 727 1428 727 1428 797.5 1499 c 128,-1,6
 868 1570 868 1570 954 1623 c 1,7,-1
 968 1578 l 1,8,9
 849 1498 849 1498 761 1384.5 c 128,-1,10
 673 1271 673 1271 610.5 1139.5 c 128,-1,11
 548 1008 548 1008 508 866.5 c 128,-1,12
 468 725 468 725 446 590 c 2,13,-1
 442 564 l 2,14,15
 430 485 430 485 422 396 c 128,-1,16
 414 307 414 307 415 215.5 c 128,-1,17
 416 124 416 124 428 33 c 128,-1,18
 440 -58 440 -58 467.5 -142 c 128,-1,19
 495 -226 495 -226 541 -299 c 128,-1,20
 587 -372 587 -372 655 -428 c 1,21,-1
 631 -469 l 1,22,23
 557 -411 557 -411 506.5 -335 c 128,-1,24
 456 -259 456 -259 425 -172.5 c 128,-1,25
 394 -86 394 -86 379.5 8.5 c 128,-1,26
 365 103 365 103 362.5 198.5 c 128,-1,27
 360 294 360 294 367.5 387.5 c 128,-1,28
 375 481 375 481 388 566 c 2,29,-1
 391 586 l 2,0,1
EndSplineSet
EndChar
StartChar: parenright
Encoding: 41 41 11
Width: 1202
Flags: W
LayerCount: 2
Back
Fore
SplineSet
770 566 m 2,0,1
 747 423 747 423 705 273 c 128,-1,2
 663 123 663 123 595.5 -15.5 c 128,-1,3
 528 -154 528 -154 432.5 -272 c 128,-1,4
 337 -390 337 -390 207 -470 c 1,5,-1
 193 -425 l 1,6,7
 311 -345 311 -345 399.5 -231.5 c 128,-1,8
 488 -118 488 -118 550.5 14 c 128,-1,9
 613 146 613 146 653 287.5 c 128,-1,10
 693 429 693 429 715 564 c 2,11,-1
 719 590 l 2,12,13
 731 669 731 669 739 757.5 c 128,-1,14
 747 846 747 846 746 937.5 c 128,-1,15
 745 1029 745 1029 733 1120 c 128,-1,16
 721 1211 721 1211 693.5 1295 c 128,-1,17
 666 1379 666 1379 620 1452 c 128,-1,18
 574 1525 574 1525 506 1581 c 1,19,-1
 530 1622 l 1,20,21
 603 1564 603 1564 653 1488 c 128,-1,22
 703 1412 703 1412 734 1325 c 128,-1,23
 765 1238 765 1238 780 1143 c 128,-1,24
 795 1048 795 1048 797.5 952.5 c 128,-1,25
 800 857 800 857 792.5 763.5 c 128,-1,26
 785 670 785 670 773 586 c 2,27,-1
 770 566 l 2,0,1
EndSplineSet
EndChar
StartChar: asterisk
Encoding: 42 42 12
Width: 1202
Flags: W
LayerCount: 2
Back
Fore
SplineSet
650 1019 m 1,0,-1
 286 1142 l 1,1,-1
 311 1194 l 1,2,-1
 674 1061 l 1,3,-1
 738 1456 l 1,4,-1
 797 1456 l 1,5,-1
 728 1063 l 1,6,-1
 1119 1204 l 1,7,-1
 1135 1150 l 1,8,-1
 731 1012 l 1,9,-1
 956 695 l 1,10,-1
 905 664 l 1,11,-1
 689 985 l 1,12,-1
 388 662 l 1,13,-1
 343 695 l 1,14,-1
 650 1019 l 1,0,-1
EndSplineSet
EndChar
StartChar: plus
Encoding: 43 43 13
Width: 1202
Flags: W
LayerCount: 2
Back
Fore
SplineSet
636 702 m 1,0,-1
 1101 702 l 1,1,-1
 1094 649 l 1,2,-1
 627 649 l 1,3,-1
 540 146 l 1,4,-1
 485 146 l 1,5,-1
 572 649 l 1,6,-1
 124 649 l 1,7,-1
 132 702 l 1,8,-1
 580 702 l 1,9,-1
 667 1206 l 1,10,-1
 722 1206 l 1,11,-1
 636 702 l 1,0,-1
EndSplineSet
EndChar
StartChar: comma
Encoding: 44 44 14
Width: 1202
Flags: W
LayerCount: 2
Back
Fore
SplineSet
444 27 m 2,0,1
 414 -136 414 -136 294 -255 c 1,2,-1
 260 -221 l 1,3,4
 308 -166 308 -166 341.5 -106.5 c 128,-1,5
 375 -47 375 -47 389 25 c 2,6,-1
 412 159 l 1,7,-1
 466 159 l 1,8,-1
 444 27 l 2,0,1
EndSplineSet
EndChar
StartChar: hyphen
Encoding: 45 45 15
Width: 1203
Flags: W
LayerCount: 2
Back
Fore
SplineSet
938 639 m 1,0,-1
 240 639 l 1,1,-1
 247 693 l 1,2,-1
 945 693 l 1,3,-1
 938 639 l 1,0,-1
EndSplineSet
EndChar
StartChar: period
Encoding: 46 46 16
Width: 1202
Flags: W
LayerCount: 2
Back
Fore
SplineSet
476 54 m 0,0,1
 477 64 477 64 483.5 74.5 c 128,-1,2
 490 85 490 85 499 93.5 c 128,-1,3
 508 102 508 102 519 107 c 128,-1,4
 530 112 530 112 541 112 c 0,5,6
 553 112 553 112 563 106.5 c 128,-1,7
 573 101 573 101 580 92 c 128,-1,8
 587 83 587 83 590.5 72 c 128,-1,9
 594 61 594 61 592 50 c 0,10,11
 588 29 588 29 567.5 11.5 c 128,-1,12
 547 -6 547 -6 525 -6 c 0,13,14
 502 -5 502 -5 487 13.5 c 128,-1,15
 472 32 472 32 476 54 c 0,0,1
EndSplineSet
EndChar
StartChar: zero
Encoding: 48 48 18
Width: 1202
Flags: W
LayerCount: 2
Back
Fore
SplineSet
1031 594 m 2,0,1
 1019 525 1019 525 997.5 452.5 c 128,-1,2
 976 380 976 380 943.5 311.5 c 128,-1,3
 911 243 911 243 868 183 c 128,-1,4
 825 123 825 123 770 77.5 c 128,-1,5
 715 32 715 32 647 6 c 128,-1,6
 579 -20 579 -20 498 -20 c 0,7,8
 416 -20 416 -20 356.5 8 c 128,-1,9
 297 36 297 36 256.5 82.5 c 128,-1,10
 216 129 216 129 193 191 c 128,-1,11
 170 253 170 253 160 321.5 c 128,-1,12
 150 390 150 390 152.5 460 c 128,-1,13
 155 530 155 530 165 594 c 2,14,-1
 211 862 l 2,15,16
 223 931 223 931 245 1003.5 c 128,-1,17
 267 1076 267 1076 299.5 1144 c 128,-1,18
 332 1212 332 1212 375 1273 c 128,-1,19
 418 1334 418 1334 473.5 1379 c 128,-1,20
 529 1424 529 1424 596.5 1450.5 c 128,-1,21
 664 1477 664 1477 746 1477 c 256,22,23
 828 1477 828 1477 888 1449 c 128,-1,24
 948 1421 948 1421 988 1374 c 128,-1,25
 1028 1327 1028 1327 1051 1265 c 128,-1,26
 1074 1203 1074 1203 1083.5 1134.5 c 128,-1,27
 1093 1066 1093 1066 1090.5 996 c 128,-1,28
 1088 926 1088 926 1078 862 c 2,29,-1
 1031 594 l 2,0,1
220 596 m 2,30,31
 210 543 210 543 206 490.5 c 128,-1,32
 202 438 202 438 202 384 c 1,33,-1
 1034 1115 l 1,34,35
 1028 1178 1028 1178 1008 1234 c 128,-1,36
 988 1290 988 1290 952.5 1332 c 128,-1,37
 917 1374 917 1374 866 1398.5 c 128,-1,38
 815 1423 815 1423 746 1423 c 0,39,40
 673 1423 673 1423 612 1398.5 c 128,-1,41
 551 1374 551 1374 501.5 1332.5 c 128,-1,42
 452 1291 452 1291 413 1235.5 c 128,-1,43
 374 1180 374 1180 345.5 1117.5 c 128,-1,44
 317 1055 317 1055 297 989.5 c 128,-1,45
 277 924 277 924 266 862 c 2,46,-1
 220 596 l 2,30,31
1024 862 m 2,47,48
 1032 911 1032 911 1036 959.5 c 128,-1,49
 1040 1008 1040 1008 1042 1058 c 1,50,-1
 211 328 l 1,51,52
 219 267 219 267 240 213.5 c 128,-1,53
 261 160 261 160 296 120 c 128,-1,54
 331 80 331 80 381.5 57 c 128,-1,55
 432 34 432 34 498 34 c 0,56,57
 571 34 571 34 632 58.5 c 128,-1,58
 693 83 693 83 742.5 125 c 128,-1,59
 792 167 792 167 830.5 223 c 128,-1,60
 869 279 869 279 898 341 c 128,-1,61
 927 403 927 403 946.5 468.5 c 128,-1,62
 966 534 966 534 977 596 c 2,63,-1
 1024 862 l 2,47,48
EndSplineSet
EndChar
StartChar: one
Encoding: 49 49 19
Width: 1202
Flags: W
LayerCount: 2
Back
Fore
SplineSet
587 0 m 1,0,-1
 533 0 l 1,1,-1
 772 1383 l 1,2,-1
 326 1188 l 1,3,-1
 334 1247 l 1,4,-1
 816 1455 l 1,5,-1
 837 1456 l 1,6,-1
 587 0 l 1,0,-1
EndSplineSet
EndChar
StartChar: two
Encoding: 50 50 20
Width: 1202
Flags: W
LayerCount: 2
Back
Fore
SplineSet
897 0 m 1,0,-1
 51 0 l 1,1,-1
 57 54 l 1,2,-1
 603 604 l 2,3,4
 653 654 653 654 706.5 708 c 128,-1,5
 760 762 760 762 806.5 821.5 c 128,-1,6
 853 881 853 881 888 946.5 c 128,-1,7
 923 1012 923 1012 935 1085 c 256,8,9
 947 1158 947 1158 931.5 1220 c 128,-1,10
 916 1282 916 1282 877.5 1327 c 128,-1,11
 839 1372 839 1372 780.5 1397 c 128,-1,12
 722 1422 722 1422 648 1422 c 0,13,14
 567 1421 567 1421 498.5 1390 c 128,-1,15
 430 1359 430 1359 376.5 1307.5 c 128,-1,16
 323 1256 323 1256 286 1188 c 128,-1,17
 249 1120 249 1120 232 1045 c 1,18,-1
 178 1046 l 1,19,20
 195 1131 195 1131 236.5 1208.5 c 128,-1,21
 278 1286 278 1286 338.5 1345.5 c 128,-1,22
 399 1405 399 1405 477.5 1440 c 128,-1,23
 556 1475 556 1475 648 1476 c 0,24,25
 733 1476 733 1476 802 1447 c 128,-1,26
 871 1418 871 1418 917 1365.5 c 128,-1,27
 963 1313 963 1313 983 1241.5 c 128,-1,28
 1003 1170 1003 1170 990 1085 c 0,29,30
 977 1002 977 1002 938 928.5 c 128,-1,31
 899 855 899 855 846.5 789 c 128,-1,32
 794 723 794 723 733.5 662.5 c 128,-1,33
 673 602 673 602 617 546 c 2,34,-1
 131 54 l 1,35,-1
 903 54 l 1,36,-1
 897 0 l 1,0,-1
EndSplineSet
EndChar
StartChar: three
Encoding: 51 51 21
Width: 1202
Flags: W
LayerCount: 2
Back
Fore
SplineSet
430 770 m 1,0,-1
 535 770 l 2,1,2
 607 772 607 772 679 793 c 128,-1,3
 751 814 751 814 811.5 853.5 c 128,-1,4
 872 893 872 893 915.5 951 c 128,-1,5
 959 1009 959 1009 974 1085 c 0,6,7
 988 1157 988 1157 973 1219 c 128,-1,8
 958 1281 958 1281 920 1326 c 128,-1,9
 882 1371 882 1371 823.5 1396.5 c 128,-1,10
 765 1422 765 1422 692 1422 c 0,11,12
 613 1422 613 1422 543.5 1395.5 c 128,-1,13
 474 1369 474 1369 418 1322.5 c 128,-1,14
 362 1276 362 1276 322 1212.5 c 128,-1,15
 282 1149 282 1149 263 1075 c 1,16,-1
 209 1075 l 1,17,18
 228 1160 228 1160 272 1233.5 c 128,-1,19
 316 1307 316 1307 379.5 1361 c 128,-1,20
 443 1415 443 1415 522 1445.5 c 128,-1,21
 601 1476 601 1476 691 1476 c 0,22,23
 775 1476 775 1476 843.5 1445.5 c 128,-1,24
 912 1415 912 1415 958 1362 c 128,-1,25
 1004 1309 1004 1309 1023 1237 c 128,-1,26
 1042 1165 1042 1165 1028 1081 c 0,27,28
 1017 1015 1017 1015 986 961 c 128,-1,29
 955 907 955 907 910 865 c 128,-1,30
 865 823 865 823 809.5 792.5 c 128,-1,31
 754 762 754 762 693 743 c 1,32,33
 757 725 757 725 807 692 c 128,-1,34
 857 659 857 659 890 614 c 128,-1,35
 923 569 923 569 936 511.5 c 128,-1,36
 949 454 949 454 938 386 c 0,37,38
 924 297 924 297 879.5 222.5 c 128,-1,39
 835 148 835 148 769.5 94 c 128,-1,40
 704 40 704 40 622 10 c 128,-1,41
 540 -20 540 -20 451 -20 c 0,42,43
 358 -20 358 -20 282.5 12 c 128,-1,44
 207 44 207 44 155 100.5 c 128,-1,45
 103 157 103 157 78 235 c 128,-1,46
 53 313 53 313 62 405 c 1,47,-1
 116 405 l 1,48,49
 107 325 107 325 127.5 257 c 128,-1,50
 148 189 148 189 193 139.5 c 128,-1,51
 238 90 238 90 303.5 62 c 128,-1,52
 369 34 369 34 450 34 c 0,53,54
 529 34 529 34 601 59 c 128,-1,55
 673 84 673 84 730.5 129.5 c 128,-1,56
 788 175 788 175 828 239 c 128,-1,57
 868 303 868 303 883 382 c 0,58,59
 899 469 899 469 875 531 c 128,-1,60
 851 593 851 593 800.5 633 c 128,-1,61
 750 673 750 673 680 692.5 c 128,-1,62
 610 712 610 712 534 714 c 2,63,-1
 422 714 l 1,64,-1
 430 770 l 1,0,-1
EndSplineSet
EndChar
StartChar: four
Encoding: 52 52 22
Width: 1202
Flags: W
LayerCount: 2
Back
Fore
SplineSet
803 451 m 1,0,-1
 1046 451 l 1,1,-1
 1039 397 l 1,2,-1
 794 397 l 1,3,-1
 725 0 l 1,4,-1
 671 0 l 1,5,-1
 739 397 l 1,6,-1
 56 398 l 1,7,-1
 60 427 l 1,8,-1
 910 1455 l 1,9,-1
 975 1456 l 1,10,-1
 803 451 l 1,0,-1
149 451 m 1,11,-1
 748 451 l 1,12,-1
 911 1383 l 1,13,-1
 808 1250 l 1,14,-1
 149 451 l 1,11,-1
EndSplineSet
EndChar
StartChar: five
Encoding: 53 53 23
Width: 1202
Flags: W
LayerCount: 2
Back
Fore
SplineSet
301 763 m 1,0,-1
 486 1456 l 1,1,-1
 1176 1456 l 1,2,-1
 1168 1403 l 1,3,-1
 527 1403 l 1,4,-1
 364 819 l 1,5,6
 433 866 433 866 512 891 c 128,-1,7
 591 916 591 916 675 916 c 0,8,9
 770 916 770 916 841 878 c 128,-1,10
 912 840 912 840 956 777.5 c 128,-1,11
 1000 715 1000 715 1016.5 633.5 c 128,-1,12
 1033 552 1033 552 1019 464 c 0,13,14
 1004 371 1004 371 966 284 c 128,-1,15
 928 197 928 197 868 129.5 c 128,-1,16
 808 62 808 62 726 21 c 128,-1,17
 644 -20 644 -20 542 -20 c 0,18,19
 453 -20 453 -20 385.5 11.5 c 128,-1,20
 318 43 318 43 273 97.5 c 128,-1,21
 228 152 228 152 206 225.5 c 128,-1,22
 184 299 184 299 187 383 c 1,23,-1
 241 383 l 1,24,25
 238 309 238 309 255 245.5 c 128,-1,26
 272 182 272 182 309.5 135 c 128,-1,27
 347 88 347 88 405 61 c 128,-1,28
 463 34 463 34 541 34 c 0,29,30
 632 34 632 34 704 70.5 c 128,-1,31
 776 107 776 107 829 166.5 c 128,-1,32
 882 226 882 226 916 303 c 128,-1,33
 950 380 950 380 964 462 c 0,34,35
 977 538 977 538 965.5 610 c 128,-1,36
 954 682 954 682 918 737.5 c 128,-1,37
 882 793 882 793 821 827 c 128,-1,38
 760 861 760 861 676 862 c 0,39,40
 582 863 582 863 499 832 c 128,-1,41
 416 801 416 801 341 747 c 1,42,-1
 301 763 l 1,0,-1
EndSplineSet
EndChar
StartChar: six
Encoding: 54 54 24
Width: 1202
Flags: W
LayerCount: 2
Back
Fore
SplineSet
981 1476 m 1,0,-1
 974 1422 l 1,1,-1
 957 1422 l 2,2,3
 856 1420 856 1420 769 1393 c 128,-1,4
 682 1366 682 1366 608.5 1319 c 128,-1,5
 535 1272 535 1272 475 1208 c 128,-1,6
 415 1144 415 1144 367 1068 c 128,-1,7
 319 992 319 992 283.5 906 c 128,-1,8
 248 820 248 820 224 731 c 1,9,10
 262 782 262 782 310 823.5 c 128,-1,11
 358 865 358 865 413.5 894.5 c 128,-1,12
 469 924 469 924 530 940.5 c 128,-1,13
 591 957 591 957 655 957 c 0,14,15
 753 957 753 957 823.5 915 c 128,-1,16
 894 873 894 873 936 805.5 c 128,-1,17
 978 738 978 738 992.5 652.5 c 128,-1,18
 1007 567 1007 567 994 480 c 0,19,20
 985 421 985 421 965 361 c 128,-1,21
 945 301 945 301 914.5 245.5 c 128,-1,22
 884 190 884 190 843 142 c 128,-1,23
 802 94 802 94 752.5 58 c 128,-1,24
 703 22 703 22 645 1 c 128,-1,25
 587 -20 587 -20 521 -20 c 0,26,27
 415 -21 415 -21 336.5 23 c 128,-1,28
 258 67 258 67 209 139.5 c 128,-1,29
 160 212 160 212 141.5 304 c 128,-1,30
 123 396 123 396 136 492 c 2,31,-1
 162 660 l 2,32,33
 179 764 179 764 213 864.5 c 128,-1,34
 247 965 247 965 297.5 1055.5 c 128,-1,35
 348 1146 348 1146 415 1222.5 c 128,-1,36
 482 1299 482 1299 565 1354.5 c 128,-1,37
 648 1410 648 1410 747 1442 c 128,-1,38
 846 1474 846 1474 960 1476 c 2,39,-1
 981 1476 l 1,0,-1
649 903 m 0,40,41
 585 903 585 903 515.5 882 c 128,-1,42
 446 861 446 861 384.5 823 c 128,-1,43
 323 785 323 785 276 731.5 c 128,-1,44
 229 678 229 678 210 614 c 1,45,-1
 190 493 l 2,46,47
 178 409 178 409 192 326 c 128,-1,48
 206 243 206 243 247 177.5 c 128,-1,49
 288 112 288 112 356 72 c 128,-1,50
 424 32 424 32 520 33 c 0,51,52
 607 34 607 34 678.5 75 c 128,-1,53
 750 116 750 116 804 180 c 128,-1,54
 858 244 858 244 892.5 323 c 128,-1,55
 927 402 927 402 940 480 c 0,56,57
 953 557 953 557 942 632.5 c 128,-1,58
 931 708 931 708 895 768 c 128,-1,59
 859 828 859 828 798 865.5 c 128,-1,60
 737 903 737 903 649 903 c 0,40,41
EndSplineSet
EndChar
StartChar: eight
Encoding: 56 56 26
Width: 1202
Flags: W
LayerCount: 2
Back
Fore
SplineSet
1116 1086 m 0,0,1
 1105 1021 1105 1021 1074.5 966.5 c 128,-1,2
 1044 912 1044 912 1000.5 869.5 c 128,-1,3
 957 827 957 827 902.5 795.5 c 128,-1,4
 848 764 848 764 788 744 c 1,5,6
 849 724 849 724 898.5 689 c 128,-1,7
 948 654 948 654 981.5 607.5 c 128,-1,8
 1015 561 1015 561 1029.5 503 c 128,-1,9
 1044 445 1044 445 1034 379 c 0,10,11
 1019 286 1019 286 970.5 212 c 128,-1,12
 922 138 922 138 852 86.5 c 128,-1,13
 782 35 782 35 696 7.5 c 128,-1,14
 610 -20 610 -20 520 -20 c 0,15,16
 433 -20 433 -20 356 7.5 c 128,-1,17
 279 35 279 35 224 87 c 128,-1,18
 169 139 169 139 143.5 212.5 c 128,-1,19
 118 286 118 286 133 379 c 0,20,21
 145 451 145 451 178.5 510 c 128,-1,22
 212 569 212 569 261.5 615 c 128,-1,23
 311 661 311 661 372.5 693.5 c 128,-1,24
 434 726 434 726 501 746 c 1,25,26
 447 767 447 767 404.5 800.5 c 128,-1,27
 362 834 362 834 334.5 878 c 128,-1,28
 307 922 307 922 296.5 974.5 c 128,-1,29
 286 1027 286 1027 295 1086 c 0,30,31
 308 1172 308 1172 351 1243.5 c 128,-1,32
 394 1315 394 1315 457.5 1367 c 128,-1,33
 521 1419 521 1419 600 1447.5 c 128,-1,34
 679 1476 679 1476 765 1476 c 0,35,36
 848 1476 848 1476 918.5 1447 c 128,-1,37
 989 1418 989 1418 1037.5 1366 c 128,-1,38
 1086 1314 1086 1314 1108 1242.5 c 128,-1,39
 1130 1171 1130 1171 1116 1086 c 0,0,1
978 374 m 0,40,41
 993 453 993 453 970 516.5 c 128,-1,42
 947 580 947 580 899.5 625 c 128,-1,43
 852 670 852 670 785.5 694 c 128,-1,44
 719 718 719 718 646 718 c 0,45,46
 569 718 569 718 493 694 c 128,-1,47
 417 670 417 670 354 625 c 128,-1,48
 291 580 291 580 246 516.5 c 128,-1,49
 201 453 201 453 186 374 c 0,50,51
 171 294 171 294 193 230.5 c 128,-1,52
 215 167 215 167 263 123.5 c 128,-1,53
 311 80 311 80 378 57 c 128,-1,54
 445 34 445 34 519 34 c 0,55,56
 597 34 597 34 672.5 57 c 128,-1,57
 748 80 748 80 811 123.5 c 128,-1,58
 874 167 874 167 918.5 230.5 c 128,-1,59
 963 294 963 294 978 374 c 0,40,41
1062 1091 m 0,60,61
 1075 1162 1075 1162 1056.5 1222.5 c 128,-1,62
 1038 1283 1038 1283 996 1327.5 c 128,-1,63
 954 1372 954 1372 894.5 1397 c 128,-1,64
 835 1422 835 1422 766 1422 c 0,65,66
 693 1422 693 1422 624 1397.5 c 128,-1,67
 555 1373 555 1373 498.5 1329.5 c 128,-1,68
 442 1286 442 1286 402.5 1225 c 128,-1,69
 363 1164 363 1164 350 1091 c 0,70,71
 336 1019 336 1019 355 960.5 c 128,-1,72
 374 902 374 902 415.5 860 c 128,-1,73
 457 818 457 818 517 795 c 128,-1,74
 577 772 577 772 645 772 c 0,75,76
 716 772 716 772 785 794.5 c 128,-1,77
 854 817 854 817 911 859 c 128,-1,78
 968 901 968 901 1008 960 c 128,-1,79
 1048 1019 1048 1019 1062 1091 c 0,60,61
EndSplineSet
EndChar
StartChar: nine
Encoding: 57 57 27
Width: 1202
Flags: W
LayerCount: 2
Back
Fore
SplineSet
288 34 m 2,0,1
 388 36 388 36 473.5 62 c 128,-1,2
 559 88 559 88 630.5 133.5 c 128,-1,3
 702 179 702 179 759.5 242 c 128,-1,4
 817 305 817 305 861.5 380 c 128,-1,5
 906 455 906 455 937.5 540.5 c 128,-1,6
 969 626 969 626 988 717 c 2,7,-1
 992 735 l 1,8,9
 956 677 956 677 908.5 628 c 128,-1,10
 861 579 861 579 804.5 543 c 128,-1,11
 748 507 748 507 683.5 487.5 c 128,-1,12
 619 468 619 468 549 468 c 0,13,14
 452 469 452 469 382.5 513.5 c 128,-1,15
 313 558 313 558 271 628.5 c 128,-1,16
 229 699 229 699 214.5 786 c 128,-1,17
 200 873 200 873 212 958 c 0,18,19
 221 1019 221 1019 242.5 1081.5 c 128,-1,20
 264 1144 264 1144 296 1201 c 128,-1,21
 328 1258 328 1258 370.5 1308 c 128,-1,22
 413 1358 413 1358 465 1395 c 128,-1,23
 517 1432 517 1432 577 1453.5 c 128,-1,24
 637 1475 637 1475 705 1476 c 0,25,26
 785 1477 785 1477 846 1453.5 c 128,-1,27
 907 1430 907 1430 951 1388.5 c 128,-1,28
 995 1347 995 1347 1022 1291 c 128,-1,29
 1049 1235 1049 1235 1063 1171 c 128,-1,30
 1077 1107 1077 1107 1077.5 1038 c 128,-1,31
 1078 969 1078 969 1069 903 c 2,32,-1
 1044 740 l 2,33,34
 1019 588 1019 588 959 451.5 c 128,-1,35
 899 315 899 315 804 211 c 128,-1,36
 709 107 709 107 579.5 44.5 c 128,-1,37
 450 -18 450 -18 285 -20 c 2,38,-1
 250 -20 l 1,39,-1
 258 34 l 1,40,-1
 288 34 l 2,0,1
548 522 m 0,41,42
 617 522 617 522 689 546.5 c 128,-1,43
 761 571 761 571 824.5 614.5 c 128,-1,44
 888 658 888 658 936 716.5 c 128,-1,45
 984 775 984 775 1005 843 c 1,46,-1
 1014 902 l 2,47,48
 1023 959 1023 959 1024 1020 c 128,-1,49
 1025 1081 1025 1081 1015 1139 c 128,-1,50
 1005 1197 1005 1197 983 1249 c 128,-1,51
 961 1301 961 1301 924 1339.5 c 128,-1,52
 887 1378 887 1378 834 1400.5 c 128,-1,53
 781 1423 781 1423 709 1422 c 0,54,55
 619 1421 619 1421 543.5 1378.5 c 128,-1,56
 468 1336 468 1336 411 1269.5 c 128,-1,57
 354 1203 354 1203 316.5 1121 c 128,-1,58
 279 1039 279 1039 266 958 c 0,59,60
 254 885 254 885 264.5 808 c 128,-1,61
 275 731 275 731 309.5 667.5 c 128,-1,62
 344 604 344 604 403 563.5 c 128,-1,63
 462 523 462 523 548 522 c 0,41,42
EndSplineSet
EndChar
StartChar: less
Encoding: 60 60 30
Width: 1202
Flags: W
LayerCount: 2
Back
Fore
SplineSet
241 664 m 1,0,-1
 950 321 l 1,1,-1
 941 262 l 1,2,-1
 165 641 l 1,3,-1
 172 691 l 1,4,-1
 1078 1068 l 1,5,-1
 1070 1011 l 1,6,-1
 241 664 l 1,0,-1
EndSplineSet
EndChar
StartChar: equal
Encoding: 61 61 31
Width: 1202
Flags: W
LayerCount: 2
Back
Fore
SplineSet
1078 843 m 1,0,-1
 212 843 l 1,1,-1
 220 897 l 1,2,-1
 1085 897 l 1,3,-1
 1078 843 l 1,0,-1
1008 436 m 1,4,-1
 142 436 l 1,5,-1
 149 490 l 1,6,-1
 1015 490 l 1,7,-1
 1008 436 l 1,4,-1
EndSplineSet
EndChar
StartChar: greater
Encoding: 62 62 32
Width: 1202
Flags: W
LayerCount: 2
Back
Fore
SplineSet
956 670 m 1,0,-1
 255 1013 l 1,1,-1
 262 1072 l 1,2,-1
 1038 694 l 1,3,-1
 1031 644 l 1,4,-1
 125 266 l 1,5,-1
 135 324 l 1,6,-1
 956 670 l 1,0,-1
EndSplineSet
EndChar
StartChar: question
Encoding: 63 63 33
Width: 1202
Flags: W
LayerCount: 2
Back
Fore
SplineSet
517 401 m 1,0,1
 542 508 542 508 596 589.5 c 128,-1,2
 650 671 650 671 735 740 c 0,3,4
 781 777 781 777 824.5 817.5 c 128,-1,5
 868 858 868 858 904 903 c 128,-1,6
 940 948 940 948 966 999.5 c 128,-1,7
 992 1051 992 1051 1003 1112 c 0,8,9
 1014 1175 1014 1175 1003 1231.5 c 128,-1,10
 992 1288 992 1288 961.5 1330.5 c 128,-1,11
 931 1373 931 1373 881 1398 c 128,-1,12
 831 1423 831 1423 764 1423 c 0,13,14
 693 1423 693 1423 632 1400 c 128,-1,15
 571 1377 571 1377 522.5 1336 c 128,-1,16
 474 1295 474 1295 439 1239 c 128,-1,17
 404 1183 404 1183 386 1117 c 1,18,-1
 331 1117 l 1,19,20
 350 1193 350 1193 389.5 1258.5 c 128,-1,21
 429 1324 429 1324 485 1372.5 c 128,-1,22
 541 1421 541 1421 611.5 1448.5 c 128,-1,23
 682 1476 682 1476 763 1476 c 0,24,25
 841 1476 841 1476 901 1446.5 c 128,-1,26
 961 1417 961 1417 999.5 1367 c 128,-1,27
 1038 1317 1038 1317 1053.5 1250.5 c 128,-1,28
 1069 1184 1069 1184 1057 1110 c 0,29,30
 1046 1043 1046 1043 1018.5 985 c 128,-1,31
 991 927 991 927 951 876.5 c 128,-1,32
 911 826 911 826 862.5 782 c 128,-1,33
 814 738 814 738 763 698 c 0,34,35
 687 640 687 640 639.5 567 c 128,-1,36
 592 494 592 494 572 400 c 1,37,-1
 517 401 l 1,0,1
432 51 m 0,38,39
 433 61 433 61 439.5 71 c 128,-1,40
 446 81 446 81 455 88.5 c 128,-1,41
 464 96 464 96 474.5 100.5 c 128,-1,42
 485 105 485 105 495 105 c 0,43,44
 517 104 517 104 532.5 86.5 c 128,-1,45
 548 69 548 69 545 47 c 0,46,47
 543 37 543 37 537 27.5 c 128,-1,48
 531 18 531 18 522 10.5 c 128,-1,49
 513 3 513 3 502 -1.5 c 128,-1,50
 491 -6 491 -6 481 -6 c 0,51,52
 459 -5 459 -5 443.5 12 c 128,-1,53
 428 29 428 29 432 51 c 0,38,39
EndSplineSet
EndChar
StartChar: at
Encoding: 64 64 34
Width: 1202
Flags: W
LayerCount: 2
Back
Fore
SplineSet
1166 762 m 0,0,1
 1158 722 1158 722 1145.5 670.5 c 128,-1,2
 1133 619 1133 619 1114.5 565 c 128,-1,3
 1096 511 1096 511 1071 459.5 c 128,-1,4
 1046 408 1046 408 1012.5 367.5 c 128,-1,5
 979 327 979 327 936.5 302.5 c 128,-1,6
 894 278 894 278 841 279 c 0,7,8
 797 279 797 279 771 299 c 128,-1,9
 745 319 745 319 731.5 349.5 c 128,-1,10
 718 380 718 380 715.5 416.5 c 128,-1,11
 713 453 713 453 716 488 c 1,12,13
 695 455 695 455 669 418.5 c 128,-1,14
 643 382 643 382 611.5 351 c 128,-1,15
 580 320 580 320 542.5 299.5 c 128,-1,16
 505 279 505 279 462 279 c 0,17,18
 414 279 414 279 384.5 301.5 c 128,-1,19
 355 324 355 324 339.5 360.5 c 128,-1,20
 324 397 324 397 320.5 443 c 128,-1,21
 317 489 317 489 320 535 c 128,-1,22
 323 581 323 581 331 623.5 c 128,-1,23
 339 666 339 666 346 695 c 0,24,25
 358 743 358 743 376.5 797 c 128,-1,26
 395 851 395 851 420.5 904 c 128,-1,27
 446 957 446 957 479.5 1005.5 c 128,-1,28
 513 1054 513 1054 554.5 1090 c 128,-1,29
 596 1126 596 1126 646 1147 c 128,-1,30
 696 1168 696 1168 756 1167 c 0,31,32
 782 1166 782 1166 804 1158.5 c 128,-1,33
 826 1151 826 1151 845 1139 c 128,-1,34
 864 1127 864 1127 881 1111 c 128,-1,35
 898 1095 898 1095 916 1077 c 1,36,-1
 914 1075 l 1,37,-1
 778 572 l 2,38,39
 774 554 774 554 769 530 c 128,-1,40
 764 506 764 506 762 479.5 c 128,-1,41
 760 453 760 453 761.5 427.5 c 128,-1,42
 763 402 763 402 771.5 381.5 c 128,-1,43
 780 361 780 361 797 348 c 128,-1,44
 814 335 814 335 843 335 c 0,45,46
 887 334 887 334 922 356.5 c 128,-1,47
 957 379 957 379 984.5 416 c 128,-1,48
 1012 453 1012 453 1032.5 499.5 c 128,-1,49
 1053 546 1053 546 1068.5 594 c 128,-1,50
 1084 642 1084 642 1094 686 c 128,-1,51
 1104 730 1104 730 1111 762 c 0,52,53
 1124 827 1124 827 1132.5 900.5 c 128,-1,54
 1141 974 1141 974 1138.5 1046.5 c 128,-1,55
 1136 1119 1136 1119 1119 1185 c 128,-1,56
 1102 1251 1102 1251 1064.5 1302 c 128,-1,57
 1027 1353 1027 1353 966.5 1383 c 128,-1,58
 906 1413 906 1413 816 1413 c 0,59,60
 719 1413 719 1413 635 1381.5 c 128,-1,61
 551 1350 551 1350 479.5 1296 c 128,-1,62
 408 1242 408 1242 350 1170 c 128,-1,63
 292 1098 292 1098 246.5 1016 c 128,-1,64
 201 934 201 934 169.5 847 c 128,-1,65
 138 760 138 760 120 677 c 0,66,67
 103 598 103 598 99 520 c 128,-1,68
 95 442 95 442 106 371.5 c 128,-1,69
 117 301 117 301 145.5 240 c 128,-1,70
 174 179 174 179 222.5 134.5 c 128,-1,71
 271 90 271 90 341.5 65 c 128,-1,72
 412 40 412 40 508 41 c 0,73,74
 582 42 582 42 653.5 65 c 128,-1,75
 725 88 725 88 790 121 c 1,76,-1
 806 73 l 1,77,78
 740 33 740 33 661.5 10 c 128,-1,79
 583 -13 583 -13 505 -14 c 0,80,81
 400 -15 400 -15 321.5 11.5 c 128,-1,82
 243 38 243 38 188.5 85.5 c 128,-1,83
 134 133 134 133 101.5 198.5 c 128,-1,84
 69 264 69 264 55 340.5 c 128,-1,85
 41 417 41 417 44.5 503 c 128,-1,86
 48 589 48 589 66 677 c 0,87,88
 84 771 84 771 117.5 866 c 128,-1,89
 151 961 151 961 198.5 1049.5 c 128,-1,90
 246 1138 246 1138 309 1214.5 c 128,-1,91
 372 1291 372 1291 449.5 1348 c 128,-1,92
 527 1405 527 1405 619 1437.5 c 128,-1,93
 711 1470 711 1470 819 1470 c 0,94,95
 920 1470 920 1470 989 1438.5 c 128,-1,96
 1058 1407 1058 1407 1101.5 1353.5 c 128,-1,97
 1145 1300 1145 1300 1166.5 1229 c 128,-1,98
 1188 1158 1188 1158 1192.5 1079.5 c 128,-1,99
 1197 1001 1197 1001 1189 919 c 128,-1,100
 1181 837 1181 837 1166 762 c 0,0,1
400 695 m 0,101,102
 395 674 395 674 387 639.5 c 128,-1,103
 379 605 379 605 373.5 565.5 c 128,-1,104
 368 526 368 526 367 485 c 128,-1,105
 366 444 366 444 374 410.5 c 128,-1,106
 382 377 382 377 402.5 355.5 c 128,-1,107
 423 334 423 334 460 333 c 0,108,109
 492 332 492 332 522.5 347 c 128,-1,110
 553 362 553 362 581 387 c 128,-1,111
 609 412 609 412 633 444 c 128,-1,112
 657 476 657 476 677.5 509.5 c 128,-1,113
 698 543 698 543 713.5 575 c 128,-1,114
 729 607 729 607 740 633 c 2,115,-1
 861 1053 l 1,116,117
 838 1079 838 1079 813.5 1094.5 c 128,-1,118
 789 1110 789 1110 753 1112 c 0,119,120
 701 1113 701 1113 658 1094.5 c 128,-1,121
 615 1076 615 1076 579.5 1043 c 128,-1,122
 544 1010 544 1010 515.5 967 c 128,-1,123
 487 924 487 924 465 877 c 128,-1,124
 443 830 443 830 427 783 c 128,-1,125
 411 736 411 736 400 695 c 0,101,102
EndSplineSet
EndChar
StartChar: A
Encoding: 65 65 35
Width: 1202
Flags: W
LayerCount: 2
Back
Fore
SplineSet
883 435 m 1,0,-1
 285 435 l 1,1,-1
 71 0 l 1,2,-1
 14 0 l 1,3,-1
 727 1456 l 1,4,-1
 788 1456 l 1,5,-1
 1001 0 l 1,6,-1
 947 0 l 1,7,-1
 883 435 l 1,0,-1
310 489 m 1,8,-1
 876 489 l 1,9,-1
 749 1379 l 1,10,-1
 310 489 l 1,8,-1
EndSplineSet
Substitution2: "'smcp' Lowercase to Small Capitals lookup 0 subtable" A.smcp
EndChar
StartChar: B
Encoding: 66 66 36
Width: 1202
Flags: W
LayerCount: 2
Back
Fore
SplineSet
106 0 m 1,0,-1
 358 1456 l 1,1,-1
 705 1456 l 2,2,3
 787 1454 787 1454 862.5 1430 c 128,-1,4
 938 1406 938 1406 992 1359 c 128,-1,5
 1046 1312 1046 1312 1073 1243 c 128,-1,6
 1100 1174 1100 1174 1085 1083 c 0,7,8
 1075 1020 1075 1020 1049.5 969.5 c 128,-1,9
 1024 919 1024 919 985 879 c 128,-1,10
 946 839 946 839 896.5 810 c 128,-1,11
 847 781 847 781 789 761 c 1,12,-1
 789 753 l 1,13,14
 850 737 850 737 898 704 c 128,-1,15
 946 671 946 671 978 624.5 c 128,-1,16
 1010 578 1010 578 1023 521 c 128,-1,17
 1036 464 1036 464 1027 401 c 0,18,19
 1014 313 1014 313 970 240.5 c 128,-1,20
 926 168 926 168 861 115 c 128,-1,21
 796 62 796 62 715.5 32 c 128,-1,22
 635 2 635 2 548 0 c 2,23,-1
 106 0 l 1,0,-1
284 719 m 1,24,-1
 168 54 l 1,25,-1
 548 54 l 2,26,27
 623 56 623 56 694 82 c 128,-1,28
 765 108 765 108 822 153 c 128,-1,29
 879 198 879 198 919 260.5 c 128,-1,30
 959 323 959 323 973 399 c 0,31,32
 986 470 986 470 967 528 c 128,-1,33
 948 586 948 586 907 628 c 128,-1,34
 866 670 866 670 807.5 693.5 c 128,-1,35
 749 717 749 717 682 719 c 2,36,-1
 284 719 l 1,24,-1
293 773 m 1,37,-1
 606 773 l 2,38,39
 679 774 679 774 749.5 794.5 c 128,-1,40
 820 815 820 815 877.5 854.5 c 128,-1,41
 935 894 935 894 975.5 952 c 128,-1,42
 1016 1010 1016 1010 1031 1087 c 0,43,44
 1046 1166 1046 1166 1023.5 1225 c 128,-1,45
 1001 1284 1001 1284 953.5 1322.5 c 128,-1,46
 906 1361 906 1361 841 1380.5 c 128,-1,47
 776 1400 776 1400 706 1402 c 2,48,-1
 402 1402 l 1,49,-1
 293 773 l 1,37,-1
EndSplineSet
Substitution2: "'smcp' Lowercase to Small Capitals lookup 0 subtable" B.smcp
EndChar
StartChar: C
Encoding: 67 67 37
Width: 1202
Flags: W
LayerCount: 2
Back
Fore
SplineSet
1024 445 m 1,0,1
 998 354 998 354 950 270 c 128,-1,2
 902 186 902 186 835 121 c 128,-1,3
 768 56 768 56 682.5 17.5 c 128,-1,4
 597 -21 597 -21 495 -20 c 0,5,6
 412 -19 412 -19 350.5 10.5 c 128,-1,7
 289 40 289 40 246.5 89 c 128,-1,8
 204 138 204 138 178.5 202.5 c 128,-1,9
 153 267 153 267 141.5 338 c 128,-1,10
 130 409 130 409 131 481.5 c 128,-1,11
 132 554 132 554 142 619 c 2,12,-1
 179 837 l 2,13,14
 192 908 192 908 216 982.5 c 128,-1,15
 240 1057 240 1057 275.5 1128 c 128,-1,16
 311 1199 311 1199 358 1261.5 c 128,-1,17
 405 1324 405 1324 463.5 1371.5 c 128,-1,18
 522 1419 522 1419 592.5 1447 c 128,-1,19
 663 1475 663 1475 745 1476 c 0,20,21
 844 1477 844 1477 917 1438 c 128,-1,22
 990 1399 990 1399 1036.5 1334.5 c 128,-1,23
 1083 1270 1083 1270 1104 1186 c 128,-1,24
 1125 1102 1125 1102 1122 1012 c 1,25,-1
 1070 1012 l 1,26,27
 1070 1090 1070 1090 1052.5 1164 c 128,-1,28
 1035 1238 1035 1238 996.5 1295.5 c 128,-1,29
 958 1353 958 1353 896 1388 c 128,-1,30
 834 1423 834 1423 745 1422 c 0,31,32
 671 1421 671 1421 607.5 1395.5 c 128,-1,33
 544 1370 544 1370 491 1326 c 128,-1,34
 438 1282 438 1282 396 1224.5 c 128,-1,35
 354 1167 354 1167 322 1102.5 c 128,-1,36
 290 1038 290 1038 268 970 c 128,-1,37
 246 902 246 902 234 839 c 2,38,-1
 195 619 l 2,39,40
 186 562 186 562 183.5 497 c 128,-1,41
 181 432 181 432 189.5 367 c 128,-1,42
 198 302 198 302 218.5 242.5 c 128,-1,43
 239 183 239 183 275.5 137 c 128,-1,44
 312 91 312 91 366 63 c 128,-1,45
 420 35 420 35 495 34 c 0,46,47
 587 33 587 33 662 67.5 c 128,-1,48
 737 102 737 102 796 159.5 c 128,-1,49
 855 217 855 217 898 291.5 c 128,-1,50
 941 366 941 366 970 445 c 1,51,-1
 1024 445 l 1,0,1
EndSplineSet
Substitution2: "'smcp' Lowercase to Small Capitals lookup 0 subtable" C.smcp
EndChar
StartChar: D
Encoding: 68 68 38
Width: 1202
Flags: W
LayerCount: 2
Back
Fore
SplineSet
89 0 m 1,0,-1
 342 1456 l 1,1,-1
 693 1456 l 2,2,3
 777 1454 777 1454 844 1426 c 128,-1,4
 911 1398 911 1398 962 1351.5 c 128,-1,5
 1013 1305 1013 1305 1047.5 1243 c 128,-1,6
 1082 1181 1082 1181 1101 1111 c 128,-1,7
 1120 1041 1120 1041 1123 965.5 c 128,-1,8
 1126 890 1126 890 1115 817 c 2,9,-1
 1085 639 l 2,10,11
 1071 562 1071 562 1042 485 c 128,-1,12
 1013 408 1013 408 970.5 337.5 c 128,-1,13
 928 267 928 267 873.5 206.5 c 128,-1,14
 819 146 819 146 753 101 c 128,-1,15
 687 56 687 56 611 29 c 128,-1,16
 535 2 535 2 450 0 c 2,17,-1
 89 0 l 1,0,-1
385 1402 m 1,18,-1
 151 54 l 1,19,-1
 450 54 l 2,20,21
 527 56 527 56 596 81 c 128,-1,22
 665 106 665 106 725 147.5 c 128,-1,23
 785 189 785 189 835 244.5 c 128,-1,24
 885 300 885 300 924 364.5 c 128,-1,25
 963 429 963 429 989.5 499 c 128,-1,26
 1016 569 1016 569 1030 639 c 2,27,-1
 1062 820 l 2,28,29
 1072 885 1072 885 1070 953 c 128,-1,30
 1068 1021 1068 1021 1052.5 1085 c 128,-1,31
 1037 1149 1037 1149 1007.5 1205.5 c 128,-1,32
 978 1262 978 1262 933.5 1305 c 128,-1,33
 889 1348 889 1348 829 1374 c 128,-1,34
 769 1400 769 1400 693 1402 c 2,35,-1
 385 1402 l 1,18,-1
EndSplineSet
Substitution2: "'smcp' Lowercase to Small Capitals lookup 0 subtable" D.smcp
EndChar
StartChar: E
Encoding: 69 69 39
Width: 1202
Flags: W
LayerCount: 2
Back
Fore
SplineSet
945 722 m 1,0,-1
 287 722 l 1,1,-1
 171 54 l 1,2,-1
 919 54 l 1,3,-1
 912 0 l 1,4,-1
 109 0 l 1,5,-1
 361 1456 l 1,6,-1
 1162 1456 l 1,7,-1
 1155 1402 l 1,8,-1
 405 1402 l 1,9,-1
 296 776 l 1,10,-1
 952 776 l 1,11,-1
 945 722 l 1,0,-1
EndSplineSet
Substitution2: "'smcp' Lowercase to Small Capitals lookup 0 subtable" E.smcp
EndChar
StartChar: F
Encoding: 70 70 40
Width: 1202
Flags: W
LayerCount: 2
Back
Fore
SplineSet
957 716 m 1,0,-1
 295 716 l 1,1,-1
 171 0 l 1,2,-1
 119 0 l 1,3,-1
 371 1456 l 1,4,-1
 1174 1456 l 1,5,-1
 1166 1402 l 1,6,-1
 414 1402 l 1,7,-1
 304 772 l 1,8,-1
 965 772 l 1,9,-1
 957 716 l 1,0,-1
EndSplineSet
Substitution2: "'smcp' Lowercase to Small Capitals lookup 0 subtable" F.smcp
EndChar
StartChar: G
Encoding: 71 71 41
Width: 1202
Flags: W
LayerCount: 2
Back
Fore
SplineSet
972 156 m 1,0,1
 881 65 881 65 761.5 21.5 c 128,-1,2
 642 -22 642 -22 514 -20 c 0,3,4
 430 -19 430 -19 366.5 10 c 128,-1,5
 303 39 303 39 257 87.5 c 128,-1,6
 211 136 211 136 182 199.5 c 128,-1,7
 153 263 153 263 139 333.5 c 128,-1,8
 125 404 125 404 124 477.5 c 128,-1,9
 123 551 123 551 134 620 c 2,10,-1
 175 858 l 2,11,12
 188 928 188 928 213 1001.5 c 128,-1,13
 238 1075 238 1075 275 1143.5 c 128,-1,14
 312 1212 312 1212 360.5 1272.5 c 128,-1,15
 409 1333 409 1333 468 1378 c 128,-1,16
 527 1423 527 1423 597 1449.5 c 128,-1,17
 667 1476 667 1476 748 1476 c 0,18,19
 838 1476 838 1476 908.5 1443.5 c 128,-1,20
 979 1411 979 1411 1027.5 1354.5 c 128,-1,21
 1076 1298 1076 1298 1101.5 1222.5 c 128,-1,22
 1127 1147 1127 1147 1126 1062 c 1,23,-1
 1074 1062 l 1,24,25
 1070 1135 1070 1135 1048.5 1200.5 c 128,-1,26
 1027 1266 1027 1266 987 1315.5 c 128,-1,27
 947 1365 947 1365 888 1393.5 c 128,-1,28
 829 1422 829 1422 749 1422 c 0,29,30
 676 1421 676 1421 612.5 1397 c 128,-1,31
 549 1373 549 1373 495.5 1332 c 128,-1,32
 442 1291 442 1291 398.5 1235.5 c 128,-1,33
 355 1180 355 1180 321.5 1118 c 128,-1,34
 288 1056 288 1056 265 989.5 c 128,-1,35
 242 923 242 923 230 860 c 2,36,-1
 188 620 l 2,37,38
 178 559 178 559 177 492.5 c 128,-1,39
 176 426 176 426 187 361.5 c 128,-1,40
 198 297 198 297 221.5 238.5 c 128,-1,41
 245 180 245 180 284.5 135 c 128,-1,42
 324 90 324 90 380.5 63 c 128,-1,43
 437 36 437 36 513 34 c 0,44,45
 627 32 627 32 732.5 67 c 128,-1,46
 838 102 838 102 921 181 c 1,47,-1
 996 605 l 1,48,-1
 614 605 l 1,49,-1
 622 660 l 1,50,-1
 1058 660 l 1,51,-1
 972 156 l 1,0,1
EndSplineSet
Substitution2: "'smcp' Lowercase to Small Capitals lookup 0 subtable" G.smcp
EndChar
StartChar: H
Encoding: 72 72 42
Width: 1202
Flags: W
LayerCount: 2
Back
Fore
SplineSet
918 0 m 1,0,-1
 867 0 l 1,1,-1
 992 722 l 1,2,-1
 245 722 l 1,3,-1
 120 0 l 1,4,-1
 69 0 l 1,5,-1
 320 1456 l 1,6,-1
 371 1456 l 1,7,-1
 254 776 l 1,8,-1
 1001 776 l 1,9,-1
 1118 1456 l 1,10,-1
 1169 1456 l 1,11,-1
 918 0 l 1,0,-1
EndSplineSet
Substitution2: "'smcp' Lowercase to Small Capitals lookup 0 subtable" H.smcp
EndChar
StartChar: J
Encoding: 74 74 44
Width: 1202
Flags: W
LayerCount: 2
Back
Fore
SplineSet
1066 1456 m 1,0,-1
 1120 1456 l 1,1,-1
 946 442 l 2,2,3
 929 351 929 351 884.5 267.5 c 128,-1,4
 840 184 840 184 775 120.5 c 128,-1,5
 710 57 710 57 626 19 c 128,-1,6
 542 -19 542 -19 445 -20 c 0,7,8
 351 -21 351 -21 280.5 11.5 c 128,-1,9
 210 44 210 44 164.5 101 c 128,-1,10
 119 158 119 158 99 235 c 128,-1,11
 79 312 79 312 86 401 c 1,12,-1
 140 401 l 1,13,14
 132 324 132 324 147.5 256.5 c 128,-1,15
 163 189 163 189 201.5 139.5 c 128,-1,16
 240 90 240 90 301 61.5 c 128,-1,17
 362 33 362 33 444 34 c 0,18,19
 529 35 529 35 603.5 69 c 128,-1,20
 678 103 678 103 736.5 159 c 128,-1,21
 795 215 795 215 835 288.5 c 128,-1,22
 875 362 875 362 891 442 c 2,23,-1
 1066 1456 l 1,0,-1
EndSplineSet
Substitution2: "'smcp' Lowercase to Small Capitals lookup 0 subtable" J.smcp
EndChar
StartChar: K
Encoding: 75 75 45
Width: 1202
Flags: W
LayerCount: 2
Back
Fore
SplineSet
511 763 m 1,0,-1
 265 550 l 1,1,-1
 170 0 l 1,2,-1
 119 0 l 1,3,-1
 369 1456 l 1,4,-1
 421 1456 l 1,5,-1
 277 623 l 1,6,-1
 524 849 l 1,7,-1
 1168 1455 l 1,8,-1
 1244 1454 l 1,9,-1
 551 798 l 1,10,-1
 1038 0 l 1,11,-1
 974 0 l 1,12,-1
 511 763 l 1,0,-1
EndSplineSet
Substitution2: "'smcp' Lowercase to Small Capitals lookup 0 subtable" K.smcp
EndChar
StartChar: M
Encoding: 77 77 47
Width: 1202
Flags: W
LayerCount: 2
Back
Fore
SplineSet
405 1456 m 1,0,-1
 584 544 l 1,1,-1
 1100 1456 l 1,2,-1
 1185 1456 l 1,3,-1
 933 0 l 1,4,-1
 879 0 l 1,5,-1
 1002 713 l 1,6,-1
 1119 1373 l 1,7,-1
 600 470 l 1,8,-1
 550 470 l 1,9,-1
 368 1373 l 1,10,-1
 252 703 l 1,11,-1
 131 0 l 1,12,-1
 77 0 l 1,13,-1
 328 1456 l 1,14,-1
 405 1456 l 1,0,-1
EndSplineSet
Substitution2: "'smcp' Lowercase to Small Capitals lookup 0 subtable" M.smcp
EndChar
StartChar: N
Encoding: 78 78 48
Width: 1202
Flags: W
LayerCount: 2
Back
Fore
SplineSet
918 0 m 1,0,-1
 869 0 l 1,1,-1
 356 1365 l 1,2,-1
 122 0 l 1,3,-1
 71 0 l 1,4,-1
 321 1456 l 1,5,-1
 370 1456 l 1,6,-1
 882 94 l 1,7,-1
 1116 1456 l 1,8,-1
 1168 1456 l 1,9,-1
 918 0 l 1,0,-1
EndSplineSet
Substitution2: "'smcp' Lowercase to Small Capitals lookup 0 subtable" N.smcp
EndChar
StartChar: O
Encoding: 79 79 49
Width: 1202
Flags: W
LayerCount: 2
Back
Fore
SplineSet
1058 619 m 2,0,1
 1045 549 1045 549 1021.5 474 c 128,-1,2
 998 399 998 399 962.5 328 c 128,-1,3
 927 257 927 257 880.5 194 c 128,-1,4
 834 131 834 131 776 83.5 c 128,-1,5
 718 36 718 36 647.5 8 c 128,-1,6
 577 -20 577 -20 495 -20 c 0,7,8
 412 -20 412 -20 351 9.5 c 128,-1,9
 290 39 290 39 247 88.5 c 128,-1,10
 204 138 204 138 178.5 202.5 c 128,-1,11
 153 267 153 267 141 338 c 128,-1,12
 129 409 129 409 130 481.5 c 128,-1,13
 131 554 131 554 141 619 c 2,14,-1
 178 837 l 2,15,16
 191 907 191 907 215 982 c 128,-1,17
 239 1057 239 1057 274 1128 c 128,-1,18
 309 1199 309 1199 356 1262 c 128,-1,19
 403 1325 403 1325 461.5 1373 c 128,-1,20
 520 1421 520 1421 590 1448.5 c 128,-1,21
 660 1476 660 1476 743 1476 c 256,22,23
 826 1476 826 1476 887.5 1446.5 c 128,-1,24
 949 1417 949 1417 991.5 1367.5 c 128,-1,25
 1034 1318 1034 1318 1059.5 1253.5 c 128,-1,26
 1085 1189 1085 1189 1096.5 1118 c 128,-1,27
 1108 1047 1108 1047 1106.5 974.5 c 128,-1,28
 1105 902 1105 902 1095 837 c 2,29,-1
 1058 619 l 2,0,1
1043 839 m 2,30,31
 1052 896 1052 896 1054.5 961.5 c 128,-1,32
 1057 1027 1057 1027 1049 1091.5 c 128,-1,33
 1041 1156 1041 1156 1020.5 1216 c 128,-1,34
 1000 1276 1000 1276 963.5 1321.5 c 128,-1,35
 927 1367 927 1367 872.5 1394.5 c 128,-1,36
 818 1422 818 1422 743 1422 c 0,37,38
 669 1422 669 1422 605.5 1396.5 c 128,-1,39
 542 1371 542 1371 489.5 1327 c 128,-1,40
 437 1283 437 1283 395 1225 c 128,-1,41
 353 1167 353 1167 321 1102.5 c 128,-1,42
 289 1038 289 1038 267.5 970 c 128,-1,43
 246 902 246 902 234 839 c 2,44,-1
 195 619 l 2,45,46
 186 562 186 562 183.5 496.5 c 128,-1,47
 181 431 181 431 189 366 c 128,-1,48
 197 301 197 301 217.5 241 c 128,-1,49
 238 181 238 181 274.5 135 c 128,-1,50
 311 89 311 89 365 61.5 c 128,-1,51
 419 34 419 34 495 34 c 0,52,53
 570 34 570 34 633.5 59.5 c 128,-1,54
 697 85 697 85 749.5 129 c 128,-1,55
 802 173 802 173 844 231 c 128,-1,56
 886 289 886 289 917.5 354 c 128,-1,57
 949 419 949 419 970.5 487 c 128,-1,58
 992 555 992 555 1004 619 c 2,59,-1
 1043 839 l 2,30,31
EndSplineSet
Substitution2: "'smcp' Lowercase to Small Capitals lookup 0 subtable" O.smcp
EndChar
StartChar: P
Encoding: 80 80 50
Width: 1202
Flags: W
LayerCount: 2
Back
Fore
SplineSet
291 615 m 1,0,-1
 185 0 l 1,1,-1
 131 0 l 1,2,-1
 383 1456 l 1,3,-1
 809 1456 l 2,4,5
 899 1454 899 1454 971.5 1420.5 c 128,-1,6
 1044 1387 1044 1387 1092 1330.5 c 128,-1,7
 1140 1274 1140 1274 1160.5 1197 c 128,-1,8
 1181 1120 1181 1120 1166 1031 c 0,9,10
 1151 940 1151 940 1106.5 864.5 c 128,-1,11
 1062 789 1062 789 996 734 c 128,-1,12
 930 679 930 679 847 648 c 128,-1,13
 764 617 764 617 673 615 c 2,14,-1
 291 615 l 1,0,-1
300 669 m 1,15,-1
 673 669 l 2,16,17
 752 671 752 671 824.5 698 c 128,-1,18
 897 725 897 725 956 772 c 128,-1,19
 1015 819 1015 819 1056 884.5 c 128,-1,20
 1097 950 1097 950 1112 1029 c 0,21,22
 1127 1107 1127 1107 1110.5 1174 c 128,-1,23
 1094 1241 1094 1241 1053.5 1291 c 128,-1,24
 1013 1341 1013 1341 950.5 1370.5 c 128,-1,25
 888 1400 888 1400 810 1402 c 2,26,-1
 428 1402 l 1,27,-1
 300 669 l 1,15,-1
EndSplineSet
Substitution2: "'smcp' Lowercase to Small Capitals lookup 0 subtable" P.smcp
EndChar
StartChar: Q
Encoding: 81 81 51
Width: 1202
Flags: W
LayerCount: 2
Back
Fore
SplineSet
1092 619 m 2,0,1
 1076 532 1076 532 1045 446 c 128,-1,2
 1014 360 1014 360 967 283.5 c 128,-1,3
 920 207 920 207 857 142.5 c 128,-1,4
 794 78 794 78 715 34 c 1,5,-1
 909 -230 l 1,6,-1
 869 -263 l 1,7,-1
 664 9 l 1,8,9
 624 -4 624 -4 583 -12 c 128,-1,10
 542 -20 542 -20 500 -20 c 0,11,12
 416 -20 416 -20 352 8.5 c 128,-1,13
 288 37 288 37 242 85.5 c 128,-1,14
 196 134 196 134 166.5 197.5 c 128,-1,15
 137 261 137 261 123 332 c 128,-1,16
 109 403 109 403 108 477 c 128,-1,17
 107 551 107 551 118 619 c 2,18,-1
 156 837 l 2,19,20
 169 910 169 910 195 986 c 128,-1,21
 221 1062 221 1062 258.5 1133 c 128,-1,22
 296 1204 296 1204 345.5 1266.5 c 128,-1,23
 395 1329 395 1329 456.5 1375.5 c 128,-1,24
 518 1422 518 1422 590.5 1449 c 128,-1,25
 663 1476 663 1476 747 1476 c 256,26,27
 831 1476 831 1476 895 1447.5 c 128,-1,28
 959 1419 959 1419 1005 1371 c 128,-1,29
 1051 1323 1051 1323 1080.5 1259 c 128,-1,30
 1110 1195 1110 1195 1124 1124 c 128,-1,31
 1138 1053 1138 1053 1139 979 c 128,-1,32
 1140 905 1140 905 1129 837 c 2,33,-1
 1092 619 l 2,0,1
1076 839 m 2,34,35
 1086 900 1086 900 1087 966.5 c 128,-1,36
 1088 1033 1088 1033 1077 1097.5 c 128,-1,37
 1066 1162 1066 1162 1042 1221 c 128,-1,38
 1018 1280 1018 1280 978.5 1324.5 c 128,-1,39
 939 1369 939 1369 882 1395.5 c 128,-1,40
 825 1422 825 1422 748 1422 c 0,41,42
 672 1422 672 1422 606 1397 c 128,-1,43
 540 1372 540 1372 484.5 1329.5 c 128,-1,44
 429 1287 429 1287 384 1229.5 c 128,-1,45
 339 1172 339 1172 305 1107.5 c 128,-1,46
 271 1043 271 1043 247 974 c 128,-1,47
 223 905 223 905 211 839 c 2,48,-1
 172 619 l 2,49,50
 162 558 162 558 161 491.5 c 128,-1,51
 160 425 160 425 171 360 c 128,-1,52
 182 295 182 295 206 236 c 128,-1,53
 230 177 230 177 269.5 132 c 128,-1,54
 309 87 309 87 366 60.5 c 128,-1,55
 423 34 423 34 500 34 c 0,56,57
 576 34 576 34 642.5 59 c 128,-1,58
 709 84 709 84 764.5 127 c 128,-1,59
 820 170 820 170 864.5 227.5 c 128,-1,60
 909 285 909 285 943.5 350 c 128,-1,61
 978 415 978 415 1001 484 c 128,-1,62
 1024 553 1024 553 1037 619 c 2,63,-1
 1076 839 l 2,34,35
EndSplineSet
Substitution2: "'smcp' Lowercase to Small Capitals lookup 0 subtable" Q.smcp
EndChar
StartChar: R
Encoding: 82 82 52
Width: 1202
Flags: W
LayerCount: 2
Back
Fore
SplineSet
692 623 m 1,0,-1
 276 623 l 1,1,-1
 168 0 l 1,2,-1
 117 0 l 1,3,-1
 368 1456 l 1,4,-1
 747 1456 l 2,5,6
 834 1454 834 1454 906.5 1421 c 128,-1,7
 979 1388 979 1388 1028 1331.5 c 128,-1,8
 1077 1275 1077 1275 1098.5 1199.5 c 128,-1,9
 1120 1124 1120 1124 1105 1036 c 0,10,11
 1093 961 1093 961 1060 900 c 128,-1,12
 1027 839 1027 839 979 789.5 c 128,-1,13
 931 740 931 740 870.5 702.5 c 128,-1,14
 810 665 810 665 743 638 c 1,15,-1
 981 14 l 1,16,-1
 980 0 l 1,17,-1
 926 0 l 1,18,-1
 692 623 l 1,0,-1
285 677 m 1,19,-1
 655 677 l 2,20,21
 728 680 728 680 794 710 c 128,-1,22
 860 740 860 740 912.5 788.5 c 128,-1,23
 965 837 965 837 1001 901 c 128,-1,24
 1037 965 1037 965 1051 1036 c 0,25,26
 1065 1113 1065 1113 1048 1179 c 128,-1,27
 1031 1245 1031 1245 989.5 1293.5 c 128,-1,28
 948 1342 948 1342 885.5 1371 c 128,-1,29
 823 1400 823 1400 747 1402 c 2,30,-1
 411 1402 l 1,31,-1
 285 677 l 1,19,-1
EndSplineSet
Substitution2: "'smcp' Lowercase to Small Capitals lookup 0 subtable" R.smcp
EndChar
StartChar: U
Encoding: 85 85 55
Width: 1202
Flags: W
LayerCount: 2
Back
Fore
SplineSet
1171 1456 m 1,0,-1
 1002 469 l 2,1,2
 985 376 985 376 941.5 287.5 c 128,-1,3
 898 199 898 199 833 131 c 128,-1,4
 768 63 768 63 682.5 21.5 c 128,-1,5
 597 -20 597 -20 495 -20 c 0,6,7
 394 -20 394 -20 322.5 23 c 128,-1,8
 251 66 251 66 207.5 135.5 c 128,-1,9
 164 205 164 205 149 292.5 c 128,-1,10
 134 380 134 380 148 469 c 2,11,-1
 319 1456 l 1,12,-1
 370 1456 l 1,13,-1
 200 469 l 2,14,15
 188 392 188 392 199 314 c 128,-1,16
 210 236 210 236 246 174 c 128,-1,17
 282 112 282 112 344 73 c 128,-1,18
 406 34 406 34 495 34 c 256,19,20
 584 34 584 34 660 71.5 c 128,-1,21
 736 109 736 109 794.5 170 c 128,-1,22
 853 231 853 231 892 309.5 c 128,-1,23
 931 388 931 388 947 469 c 2,24,-1
 1119 1456 l 1,25,-1
 1171 1456 l 1,0,-1
EndSplineSet
Substitution2: "'smcp' Lowercase to Small Capitals lookup 0 subtable" U.smcp
EndChar
StartChar: V
Encoding: 86 86 56
Width: 1202
Flags: W
LayerCount: 2
Back
Fore
SplineSet
499 142 m 1,0,-1
 507 67 l 1,1,-1
 541 146 l 1,2,-1
 1158 1455 l 1,3,-1
 1216 1455 l 1,4,-1
 531 0 l 1,5,-1
 470 0 l 1,6,-1
 235 1457 l 1,7,-1
 290 1456 l 1,8,-1
 499 142 l 1,0,-1
EndSplineSet
Substitution2: "'smcp' Lowercase to Small Capitals lookup 0 subtable" V.smcp
EndChar
StartChar: W
Encoding: 87 87 57
Width: 1202
Flags: W
LayerCount: 2
Back
Fore
SplineSet
278 325 m 1,0,-1
 275 152 l 1,1,-1
 333 334 l 1,2,-1
 725 1453 l 1,3,-1
 725 1456 l 1,4,-1
 776 1456 l 1,5,-1
 774 1453 l 1,6,-1
 817 325 l 1,7,-1
 815 150 l 1,8,-1
 872 330 l 1,9,-1
 1224 1455 l 1,10,-1
 1273 1455 l 1,11,-1
 821 0 l 1,12,-1
 772 0 l 1,13,-1
 772 3 l 1,14,-1
 732 1219 l 1,15,-1
 730 1315 l 1,16,-1
 695 1210 l 1,17,-1
 276 3 l 1,18,-1
 277 0 l 1,19,-1
 227 0 l 1,20,-1
 227 1456 l 1,21,-1
 276 1456 l 1,22,-1
 278 325 l 1,0,-1
EndSplineSet
Substitution2: "'smcp' Lowercase to Small Capitals lookup 0 subtable" W.smcp
EndChar
StartChar: X
Encoding: 88 88 58
Width: 1202
Flags: W
LayerCount: 2
Back
Fore
SplineSet
641 786 m 1,0,-1
 1156 1455 l 1,1,-1
 1223 1455 l 1,2,-1
 669 739 l 1,3,-1
 1013 0 l 1,4,-1
 952 0 l 1,5,-1
 632 700 l 1,6,-1
 94 0 l 1,7,-1
 30 0 l 1,8,-1
 605 747 l 1,9,-1
 273 1457 l 1,10,-1
 335 1457 l 1,11,-1
 641 786 l 1,0,-1
EndSplineSet
Substitution2: "'smcp' Lowercase to Small Capitals lookup 0 subtable" X.smcp
EndChar
StartChar: Y
Encoding: 89 89 59
Width: 1202
Flags: W
LayerCount: 2
Back
Fore
SplineSet
577 604 m 1,0,-1
 1158 1455 l 1,1,-1
 1222 1455 l 1,2,-1
 597 549 l 1,3,-1
 503 0 l 1,4,-1
 451 0 l 1,5,-1
 546 558 l 1,6,-1
 235 1457 l 1,7,-1
 299 1457 l 1,8,-1
 577 604 l 1,0,-1
EndSplineSet
Substitution2: "'smcp' Lowercase to Small Capitals lookup 0 subtable" Y.smcp
EndChar
StartChar: Z
Encoding: 90 90 60
Width: 1202
Flags: W
LayerCount: 2
Back
Fore
SplineSet
123 54 m 1,0,-1
 925 54 l 1,1,-1
 918 0 l 1,2,-1
 47 0 l 1,3,-1
 52 44 l 1,4,-1
 1038 1403 l 1,5,-1
 298 1403 l 1,6,-1
 305 1456 l 1,7,-1
 1117 1456 l 1,8,-1
 1113 1418 l 1,9,-1
 123 54 l 1,0,-1
EndSplineSet
Substitution2: "'smcp' Lowercase to Small Capitals lookup 0 subtable" Z.smcp
EndChar
StartChar: bracketleft
Encoding: 91 91 61
Width: 1202
Flags: W
LayerCount: 2
Back
Fore
SplineSet
910 1610 m 1,0,-1
 676 1610 l 1,1,-1
 384 -258 l 1,2,-1
 617 -258 l 1,3,-1
 610 -312 l 1,4,-1
 320 -312 l 1,5,-1
 629 1664 l 1,6,-1
 917 1664 l 1,7,-1
 910 1610 l 1,0,-1
EndSplineSet
EndChar
StartChar: backslash
Encoding: 92 92 62
Width: 1202
Flags: W
LayerCount: 2
Back
Fore
SplineSet
421 1457 m 1,0,-1
 477 1457 l 1,1,-1
 795 -126 l 1,2,-1
 739 -126 l 1,3,-1
 421 1457 l 1,0,-1
EndSplineSet
EndChar
StartChar: bracketright
Encoding: 93 93 63
Width: 1202
Flags: W
LayerCount: 2
Back
Fore
SplineSet
606 1664 m 1,0,-1
 895 1664 l 1,1,-1
 586 -312 l 1,2,-1
 299 -312 l 1,3,-1
 306 -258 l 1,4,-1
 539 -258 l 1,5,-1
 830 1610 l 1,6,-1
 599 1610 l 1,7,-1
 606 1664 l 1,0,-1
EndSplineSet
EndChar
StartChar: asciicircum
Encoding: 94 94 64
Width: 1202
Flags: W
LayerCount: 2
Back
Fore
SplineSet
734 1380 m 1,0,-1
 322 660 l 1,1,-1
 262 660 l 1,2,-1
 717 1456 l 1,3,-1
 768 1456 l 1,4,-1
 953 658 l 1,5,-1
 894 658 l 1,6,-1
 734 1380 l 1,0,-1
EndSplineSet
EndChar
StartChar: underscore
Encoding: 95 95 65
Width: 1202
Flags: W
LayerCount: 2
Back
Fore
SplineSet
895 -54 m 1,0,-1
 73 -54 l 1,1,-1
 80 0 l 1,2,-1
 902 0 l 1,3,-1
 895 -54 l 1,0,-1
EndSplineSet
EndChar
StartChar: grave
Encoding: 96 96 66
Width: 1202
Flags: W
LayerCount: 2
Back
Fore
SplineSet
818 1249 m 1,0,-1
 763 1249 l 1,1,-1
 619 1517 l 1,2,-1
 681 1517 l 1,3,-1
 818 1249 l 1,0,-1
EndSplineSet
EndChar
StartChar: a
Encoding: 97 97 67
Width: 1202
Flags: W
LayerCount: 2
Back
Fore
SplineSet
856 0 m 1,0,1
 854 52 854 52 859 101.5 c 128,-1,2
 864 151 864 151 874 202 c 1,3,4
 831 150 831 150 778.5 108.5 c 128,-1,5
 726 67 726 67 666.5 38.5 c 128,-1,6
 607 10 607 10 542 -5.5 c 128,-1,7
 477 -21 477 -21 409 -20 c 0,8,9
 346 -19 346 -19 289 1.5 c 128,-1,10
 232 22 232 22 191.5 60 c 128,-1,11
 151 98 151 98 130.5 152 c 128,-1,12
 110 206 110 206 121 274 c 0,13,14
 131 339 131 339 160.5 388.5 c 128,-1,15
 190 438 190 438 233.5 474.5 c 128,-1,16
 277 511 277 511 330.5 535.5 c 128,-1,17
 384 560 384 560 442 575 c 128,-1,18
 500 590 500 590 560 596.5 c 128,-1,19
 620 603 620 603 676 604 c 2,20,-1
 939 604 l 1,21,-1
 967 762 l 2,22,23
 977 831 977 831 959.5 884 c 128,-1,24
 942 937 942 937 904 973.5 c 128,-1,25
 866 1010 866 1010 810.5 1029 c 128,-1,26
 755 1048 755 1048 690 1048 c 256,27,28
 625 1048 625 1048 562.5 1031 c 128,-1,29
 500 1014 500 1014 446.5 980.5 c 128,-1,30
 393 947 393 947 353 898 c 128,-1,31
 313 849 313 849 294 785 c 1,32,-1
 240 787 l 1,33,34
 259 862 259 862 303.5 920.5 c 128,-1,35
 348 979 348 979 409 1019 c 128,-1,36
 470 1059 470 1059 542 1080.5 c 128,-1,37
 614 1102 614 1102 689 1102 c 0,38,39
 765 1102 765 1102 830.5 1079 c 128,-1,40
 896 1056 896 1056 942 1011.5 c 128,-1,41
 988 967 988 967 1009.5 903.5 c 128,-1,42
 1031 840 1031 840 1020 760 c 2,43,-1
 926 218 l 2,44,45
 918 165 918 165 918.5 113.5 c 128,-1,46
 919 62 919 62 919 9 c 1,47,-1
 918 0 l 1,48,-1
 856 0 l 1,0,1
408 33 m 0,49,50
 481 31 481 31 549.5 49.5 c 128,-1,51
 618 68 618 68 678.5 102.5 c 128,-1,52
 739 137 739 137 791 185.5 c 128,-1,53
 843 234 843 234 884 293 c 1,54,-1
 930 549 l 1,55,-1
 679 549 l 2,56,57
 631 549 631 549 578 543.5 c 128,-1,58
 525 538 525 538 472 526 c 128,-1,59
 419 514 419 514 370 494 c 128,-1,60
 321 474 321 474 280.5 443 c 128,-1,61
 240 412 240 412 212 369.5 c 128,-1,62
 184 327 184 327 174 270 c 0,63,64
 164 215 164 215 181 171.5 c 128,-1,65
 198 128 198 128 231.5 97.5 c 128,-1,66
 265 67 265 67 311.5 50.5 c 128,-1,67
 358 34 358 34 408 33 c 0,49,50
EndSplineSet
Substitution2: "'smcp' Lowercase to Small Capitals lookup 0 subtable" A.smcp
EndChar
StartChar: b
Encoding: 98 98 68
Width: 1202
Flags: W
LayerCount: 2
Back
Fore
SplineSet
1011 531 m 2,0,1
 999 467 999 467 978 401 c 128,-1,2
 957 335 957 335 925.5 274 c 128,-1,3
 894 213 894 213 852.5 159.5 c 128,-1,4
 811 106 811 106 758.5 66 c 128,-1,5
 706 26 706 26 643 3 c 128,-1,6
 580 -20 580 -20 506 -20 c 0,7,8
 458 -20 458 -20 412 -8 c 128,-1,9
 366 4 366 4 325.5 27 c 128,-1,10
 285 50 285 50 252 83.5 c 128,-1,11
 219 117 219 117 197 160 c 1,12,-1
 167 0 l 1,13,-1
 114 0 l 1,14,-1
 378 1536 l 1,15,-1
 432 1536 l 1,16,-1
 318 898 l 1,17,18
 351 941 351 941 392 978 c 128,-1,19
 433 1015 433 1015 480.5 1042.5 c 128,-1,20
 528 1070 528 1070 580 1086 c 128,-1,21
 632 1102 632 1102 688 1102 c 0,22,23
 764 1102 764 1102 820 1078 c 128,-1,24
 876 1054 876 1054 915.5 1013.5 c 128,-1,25
 955 973 955 973 979 918.5 c 128,-1,26
 1003 864 1003 864 1014 802.5 c 128,-1,27
 1025 741 1025 741 1024 677 c 128,-1,28
 1023 613 1023 613 1014 552 c 2,29,-1
 1011 531 l 2,0,1
958 552 m 2,30,31
 967 604 967 604 969 661 c 128,-1,32
 971 718 971 718 964 773 c 128,-1,33
 957 828 957 828 938.5 878 c 128,-1,34
 920 928 920 928 887.5 965.5 c 128,-1,35
 855 1003 855 1003 806 1025.5 c 128,-1,36
 757 1048 757 1048 690 1048 c 0,37,38
 633 1048 633 1048 573 1027.5 c 128,-1,39
 513 1007 513 1007 459.5 971.5 c 128,-1,40
 406 936 406 936 364.5 888 c 128,-1,41
 323 840 323 840 304 785 c 1,42,-1
 210 261 l 1,43,44
 221 208 221 208 249 165.5 c 128,-1,45
 277 123 277 123 316 94 c 128,-1,46
 355 65 355 65 404 49.5 c 128,-1,47
 453 34 453 34 506 34 c 0,48,49
 573 34 573 34 629 55.5 c 128,-1,50
 685 77 685 77 731 113 c 128,-1,51
 777 149 777 149 814 197 c 128,-1,52
 851 245 851 245 878.5 300 c 128,-1,53
 906 355 906 355 924.5 414 c 128,-1,54
 943 473 943 473 954 531 c 2,55,-1
 958 552 l 2,30,31
EndSplineSet
Substitution2: "'smcp' Lowercase to Small Capitals lookup 0 subtable" B.smcp
EndChar
StartChar: d
Encoding: 100 100 70
Width: 1202
Flags: W
LayerCount: 2
Back
Fore
SplineSet
162 552 m 2,0,1
 173 617 173 617 194.5 683 c 128,-1,2
 216 749 216 749 247.5 810 c 128,-1,3
 279 871 279 871 320.5 924.5 c 128,-1,4
 362 978 362 978 414.5 1017.5 c 128,-1,5
 467 1057 467 1057 530 1079.5 c 128,-1,6
 593 1102 593 1102 668 1102 c 0,7,8
 719 1102 719 1102 765.5 1087 c 128,-1,9
 812 1072 812 1072 851 1045 c 128,-1,10
 890 1018 890 1018 920.5 980 c 128,-1,11
 951 942 951 942 971 896 c 1,12,-1
 1083 1536 l 1,13,-1
 1137 1536 l 1,14,-1
 873 0 l 1,15,-1
 819 0 l 1,16,-1
 850 162 l 1,17,18
 816 122 816 122 774.5 88.5 c 128,-1,19
 733 55 733 55 685.5 31 c 128,-1,20
 638 7 638 7 587 -6.5 c 128,-1,21
 536 -20 536 -20 482 -20 c 0,22,23
 407 -20 407 -20 351.5 4 c 128,-1,24
 296 28 296 28 257 69.5 c 128,-1,25
 218 111 218 111 194 165.5 c 128,-1,26
 170 220 170 220 159 281.5 c 128,-1,27
 148 343 148 343 148.5 407 c 128,-1,28
 149 471 149 471 158 531 c 2,29,-1
 162 552 l 2,0,1
214 531 m 2,30,31
 205 479 205 479 202.5 422 c 128,-1,32
 200 365 200 365 207.5 310 c 128,-1,33
 215 255 215 255 233 205.5 c 128,-1,34
 251 156 251 156 283.5 118 c 128,-1,35
 316 80 316 80 364.5 57.5 c 128,-1,36
 413 35 413 35 480 34 c 0,37,38
 538 34 538 34 593.5 50 c 128,-1,39
 649 66 649 66 698.5 95.5 c 128,-1,40
 748 125 748 125 789.5 165.5 c 128,-1,41
 831 206 831 206 861 255 c 1,42,-1
 956 790 l 1,43,44
 947 845 947 845 922.5 892.5 c 128,-1,45
 898 940 898 940 860.5 974.5 c 128,-1,46
 823 1009 823 1009 774.5 1028.5 c 128,-1,47
 726 1048 726 1048 668 1048 c 0,48,49
 568 1048 568 1048 491.5 1003 c 128,-1,50
 415 958 415 958 359.5 886.5 c 128,-1,51
 304 815 304 815 269 726.5 c 128,-1,52
 234 638 234 638 218 552 c 2,53,-1
 214 531 l 2,30,31
EndSplineSet
Substitution2: "'smcp' Lowercase to Small Capitals lookup 0 subtable" D.smcp
EndChar
StartChar: e
Encoding: 101 101 71
Width: 1202
Flags: W
LayerCount: 2
Back
Fore
SplineSet
536 -20 m 0,0,1
 464 -20 464 -20 404 2 c 128,-1,2
 344 24 344 24 297 62 c 128,-1,3
 250 100 250 100 217 151.5 c 128,-1,4
 184 203 184 203 164.5 262.5 c 128,-1,5
 145 322 145 322 139.5 387.5 c 128,-1,6
 134 453 134 453 144 518 c 2,7,-1
 152 562 l 2,8,9
 164 628 164 628 189 693.5 c 128,-1,10
 214 759 214 759 251 819 c 128,-1,11
 288 879 288 879 335.5 931 c 128,-1,12
 383 983 383 983 440 1021 c 128,-1,13
 497 1059 497 1059 562 1080.5 c 128,-1,14
 627 1102 627 1102 700 1102 c 0,15,16
 796 1102 796 1102 866 1062.5 c 128,-1,17
 936 1023 936 1023 979.5 958 c 128,-1,18
 1023 893 1023 893 1038.5 810 c 128,-1,19
 1054 727 1054 727 1042 640 c 2,20,-1
 1032 577 l 1,21,-1
 211 577 l 1,22,-1
 208 562 l 1,23,-1
 199 518 l 2,24,25
 184 432 184 432 198 345.5 c 128,-1,26
 212 259 212 259 255 190 c 128,-1,27
 298 121 298 121 368.5 77.5 c 128,-1,28
 439 34 439 34 535 33 c 0,29,30
 638 32 638 32 726 72 c 128,-1,31
 814 112 814 112 888 181 c 1,32,-1
 925 152 l 1,33,34
 847 71 847 71 748.5 25.5 c 128,-1,35
 650 -20 650 -20 536 -20 c 0,0,1
701 1048 m 0,36,37
 611 1048 611 1048 535 1012 c 128,-1,38
 459 976 459 976 398.5 917.5 c 128,-1,39
 338 859 338 859 293.5 784 c 128,-1,40
 249 709 249 709 221 631 c 1,41,-1
 983 631 l 1,42,-1
 986 644 l 2,43,44
 1001 717 1001 717 988.5 789.5 c 128,-1,45
 976 862 976 862 939.5 919 c 128,-1,46
 903 976 903 976 842.5 1012 c 128,-1,47
 782 1048 782 1048 701 1048 c 0,36,37
EndSplineSet
Substitution2: "'smcp' Lowercase to Small Capitals lookup 0 subtable" E.smcp
EndChar
StartChar: f
Encoding: 102 102 72
Width: 1203
Flags: W
LayerCount: 2
Back
Fore
SplineSet
1050 1027 m 1,0,-1
 618 1027 l 1,1,-1
 444 0 l 1,2,-1
 381 0 l 1,3,-1
 561 1027 l 1,4,-1
 278 1027 l 1,5,-1
 286 1082 l 1,6,-1
 571 1082 l 1,7,-1
 588 1177 l 2,8,9
 606 1271 606 1271 647 1342 c 128,-1,10
 688 1413 688 1413 748.5 1460.5 c 128,-1,11
 809 1508 809 1508 887.5 1532.5 c 128,-1,12
 966 1557 966 1557 1060 1557 c 0,13,14
 1152 1557 1152 1557 1242 1539 c 1,15,-1
 1227 1489 l 1,16,17
 1186 1497 1186 1497 1145 1500 c 128,-1,18
 1104 1503 1104 1503 1062 1503 c 0,19,20
 980 1502 980 1502 911 1482 c 128,-1,21
 842 1462 842 1462 788 1421.5 c 128,-1,22
 734 1381 734 1381 697.5 1320 c 128,-1,23
 661 1259 661 1259 644 1177 c 2,24,-1
 627 1082 l 1,25,-1
 1057 1082 l 1,26,-1
 1050 1027 l 1,0,-1
EndSplineSet
Substitution2: "'smcp' Lowercase to Small Capitals lookup 0 subtable" F.smcp
EndChar
StartChar: g
Encoding: 103 103 73
Width: 1202
Flags: W
LayerCount: 2
Back
Fore
SplineSet
164 552 m 2,0,1
 175 617 175 617 196.5 683 c 128,-1,2
 218 749 218 749 249.5 810 c 128,-1,3
 281 871 281 871 322.5 924.5 c 128,-1,4
 364 978 364 978 416.5 1017.5 c 128,-1,5
 469 1057 469 1057 532 1079.5 c 128,-1,6
 595 1102 595 1102 670 1102 c 0,7,8
 721 1102 721 1102 767 1087.5 c 128,-1,9
 813 1073 813 1073 852 1046 c 128,-1,10
 891 1019 891 1019 921.5 981 c 128,-1,11
 952 943 952 943 972 897 c 1,12,-1
 1006 1082 l 1,13,-1
 1061 1082 l 1,14,-1
 877 15 l 2,15,16
 860 -74 860 -74 820.5 -155.5 c 128,-1,17
 781 -237 781 -237 721 -299 c 128,-1,18
 661 -361 661 -361 581.5 -398.5 c 128,-1,19
 502 -436 502 -436 406 -436 c 0,20,21
 303 -436 303 -436 223 -386.5 c 128,-1,22
 143 -337 143 -337 88 -252 c 1,23,-1
 129 -218 l 1,24,25
 177 -292 177 -292 244.5 -337.5 c 128,-1,26
 312 -383 312 -383 403 -383 c 0,27,28
 489 -383 489 -383 559 -350 c 128,-1,29
 629 -317 629 -317 682 -262 c 128,-1,30
 735 -207 735 -207 770.5 -135 c 128,-1,31
 806 -63 806 -63 822 15 c 2,32,-1
 851 160 l 1,33,34
 817 120 817 120 775.5 87 c 128,-1,35
 734 54 734 54 687 30 c 128,-1,36
 640 6 640 6 588.5 -7 c 128,-1,37
 537 -20 537 -20 484 -20 c 0,38,39
 409 -20 409 -20 353.5 4 c 128,-1,40
 298 28 298 28 259 69.5 c 128,-1,41
 220 111 220 111 196 165.5 c 128,-1,42
 172 220 172 220 161 281.5 c 128,-1,43
 150 343 150 343 150.5 407 c 128,-1,44
 151 471 151 471 160 531 c 2,45,-1
 164 552 l 2,0,1
215 531 m 2,46,47
 206 479 206 479 204 422 c 128,-1,48
 202 365 202 365 209 310 c 128,-1,49
 216 255 216 255 234.5 205.5 c 128,-1,50
 253 156 253 156 285.5 118 c 128,-1,51
 318 80 318 80 366.5 57.5 c 128,-1,52
 415 35 415 35 482 34 c 0,53,54
 541 34 541 34 597 50.5 c 128,-1,55
 653 67 653 67 702.5 97.5 c 128,-1,56
 752 128 752 128 793 170 c 128,-1,57
 834 212 834 212 863 262 c 1,58,-1
 956 783 l 1,59,60
 948 839 948 839 924 887.5 c 128,-1,61
 900 936 900 936 863.5 971.5 c 128,-1,62
 827 1007 827 1007 778 1027.5 c 128,-1,63
 729 1048 729 1048 670 1048 c 0,64,65
 570 1048 570 1048 493 1003 c 128,-1,66
 416 958 416 958 360.5 886.5 c 128,-1,67
 305 815 305 815 270 726.5 c 128,-1,68
 235 638 235 638 219 552 c 2,69,-1
 215 531 l 2,46,47
EndSplineSet
Substitution2: "'smcp' Lowercase to Small Capitals lookup 0 subtable" G.smcp
EndChar
StartChar: h
Encoding: 104 104 74
Width: 1202
Flags: W
LayerCount: 2
Back
Fore
SplineSet
295 821 m 1,0,1
 331 879 331 879 377.5 930 c 128,-1,2
 424 981 424 981 479.5 1019 c 128,-1,3
 535 1057 535 1057 599 1079.5 c 128,-1,4
 663 1102 663 1102 734 1102 c 0,5,6
 823 1102 823 1102 883.5 1069 c 128,-1,7
 944 1036 944 1036 978.5 980.5 c 128,-1,8
 1013 925 1013 925 1022.5 852 c 128,-1,9
 1032 779 1032 779 1020 700 c 2,10,-1
 900 0 l 1,11,-1
 845 0 l 1,12,-1
 966 700 l 2,13,14
 977 767 977 767 971.5 830.5 c 128,-1,15
 966 894 966 894 939 942.5 c 128,-1,16
 912 991 912 991 861.5 1020.5 c 128,-1,17
 811 1050 811 1050 732 1049 c 0,18,19
 661 1048 661 1048 589.5 1019.5 c 128,-1,20
 518 991 518 991 455.5 943 c 128,-1,21
 393 895 393 895 346.5 832.5 c 128,-1,22
 300 770 300 770 279 702 c 1,23,-1
 158 0 l 1,24,-1
 103 0 l 1,25,-1
 368 1536 l 1,26,-1
 422 1536 l 1,27,-1
 295 821 l 1,0,1
EndSplineSet
Substitution2: "'smcp' Lowercase to Small Capitals lookup 0 subtable" H.smcp
EndChar
StartChar: i
Encoding: 105 105 75
Width: 1202
Flags: W
LayerCount: 2
Back
Fore
SplineSet
314 1082 m 1,0,-1
 754 1082 l 1,1,-1
 576 54 l 1,2,-1
 947 54 l 1,3,-1
 940 0 l 1,4,-1
 128 0 l 1,5,-1
 136 54 l 1,6,-1
 521 54 l 1,7,-1
 691 1028 l 1,8,-1
 307 1028 l 1,9,-1
 314 1082 l 1,0,-1
709 1391 m 0,10,11
 713 1423 713 1423 734 1443.5 c 128,-1,12
 755 1464 755 1464 787 1464 c 0,13,14
 821 1464 821 1464 836.5 1442 c 128,-1,15
 852 1420 852 1420 847 1389 c 0,16,17
 842 1359 842 1359 820.5 1338.5 c 128,-1,18
 799 1318 799 1318 767 1319 c 0,19,20
 735 1321 735 1321 719.5 1340.5 c 128,-1,21
 704 1360 704 1360 709 1391 c 0,10,11
EndSplineSet
Substitution2: "'smcp' Lowercase to Small Capitals lookup 0 subtable" I.smcp
EndChar
StartChar: j
Encoding: 106 106 76
Width: 1202
Flags: W
LayerCount: 2
Back
Fore
SplineSet
376 1082 m 1,0,-1
 839 1082 l 1,1,-1
 652 6 l 2,2,3
 636 -83 636 -83 599 -162.5 c 128,-1,4
 562 -242 562 -242 504.5 -302.5 c 128,-1,5
 447 -363 447 -363 370 -399.5 c 128,-1,6
 293 -436 293 -436 197 -437 c 0,7,8
 146 -438 146 -438 96.5 -433 c 128,-1,9
 47 -428 47 -428 -3 -420 c 1,10,-1
 8 -373 l 1,11,12
 54 -379 54 -379 100 -382 c 128,-1,13
 146 -385 146 -385 193 -384 c 0,14,15
 279 -383 279 -383 347 -351.5 c 128,-1,16
 415 -320 415 -320 466 -267 c 128,-1,17
 517 -214 517 -214 550 -144 c 128,-1,18
 583 -74 583 -74 598 6 c 2,19,-1
 775 1028 l 1,20,-1
 369 1028 l 1,21,-1
 376 1082 l 1,0,-1
786 1392 m 256,22,23
 791 1424 791 1424 812.5 1444.5 c 128,-1,24
 834 1465 834 1465 866 1465 c 0,25,26
 900 1465 900 1465 915.5 1443 c 128,-1,27
 931 1421 931 1421 926 1390 c 256,28,29
 921 1359 921 1359 899.5 1340 c 128,-1,30
 878 1321 878 1321 846 1320 c 0,31,32
 814 1320 814 1320 797.5 1340 c 128,-1,33
 781 1360 781 1360 786 1392 c 256,22,23
EndSplineSet
Substitution2: "'smcp' Lowercase to Small Capitals lookup 0 subtable" J.smcp
EndChar
StartChar: k
Encoding: 107 107 77
Width: 1202
Flags: W
LayerCount: 2
Back
Fore
SplineSet
471 585 m 1,0,-1
 466 582 l 1,1,-1
 277 444 l 1,2,-1
 200 0 l 1,3,-1
 146 0 l 1,4,-1
 410 1536 l 1,5,-1
 465 1536 l 1,6,-1
 288 510 l 1,7,-1
 438 628 l 1,8,-1
 1024 1082 l 1,9,-1
 1110 1082 l 1,10,-1
 513 619 l 1,11,-1
 951 0 l 1,12,-1
 883 0 l 1,13,-1
 471 585 l 1,0,-1
EndSplineSet
Substitution2: "'smcp' Lowercase to Small Capitals lookup 0 subtable" K.smcp
EndChar
StartChar: m
Encoding: 109 109 79
Width: 1202
Flags: W
LayerCount: 2
Back
Fore
SplineSet
215 1082 m 1,0,-1
 188 940 l 1,1,2
 236 1013 236 1013 304.5 1057 c 128,-1,3
 373 1101 373 1101 464 1102 c 0,4,5
 547 1103 547 1103 599.5 1060.5 c 128,-1,6
 652 1018 652 1018 661 935 c 1,7,8
 712 1009 712 1009 786.5 1055 c 128,-1,9
 861 1101 861 1101 953 1102 c 0,10,11
 1021 1102 1021 1102 1063 1076 c 128,-1,12
 1105 1050 1105 1050 1126.5 1007.5 c 128,-1,13
 1148 965 1148 965 1151.5 910.5 c 128,-1,14
 1155 856 1155 856 1146 800 c 2,15,-1
 1006 0 l 1,16,-1
 957 0 l 1,17,-1
 1094 800 l 2,18,19
 1101 844 1101 844 1101 888.5 c 128,-1,20
 1101 933 1101 933 1086.5 969 c 128,-1,21
 1072 1005 1072 1005 1040 1027 c 128,-1,22
 1008 1049 1008 1049 952 1048 c 0,23,24
 899 1048 899 1048 855.5 1031 c 128,-1,25
 812 1014 812 1014 776.5 985.5 c 128,-1,26
 741 957 741 957 712.5 918.5 c 128,-1,27
 684 880 684 880 662 836 c 0,28,29
 662 832 662 832 661.5 828 c 128,-1,30
 661 824 661 824 661 820 c 2,31,-1
 516 0 l 1,32,-1
 467 0 l 1,33,-1
 607 820 l 2,34,35
 614 863 614 863 612 904.5 c 128,-1,36
 610 946 610 946 594.5 978.5 c 128,-1,37
 579 1011 579 1011 547 1030 c 128,-1,38
 515 1049 515 1049 462 1049 c 0,39,40
 406 1048 406 1048 358.5 1026.5 c 128,-1,41
 311 1005 311 1005 273.5 969 c 128,-1,42
 236 933 236 933 209 886 c 128,-1,43
 182 839 182 839 167 788 c 1,44,-1
 28 0 l 1,45,-1
 -21 0 l 1,46,-1
 166 1082 l 1,47,-1
 215 1082 l 1,0,-1
EndSplineSet
Substitution2: "'smcp' Lowercase to Small Capitals lookup 0 subtable" M.smcp
EndChar
StartChar: n
Encoding: 110 110 80
Width: 1202
Flags: W
LayerCount: 2
Back
Fore
SplineSet
294 822 m 1,0,1
 330 880 330 880 376.5 930.5 c 128,-1,2
 423 981 423 981 478.5 1019 c 128,-1,3
 534 1057 534 1057 597.5 1079.5 c 128,-1,4
 661 1102 661 1102 732 1102 c 0,5,6
 821 1102 821 1102 881.5 1069 c 128,-1,7
 942 1036 942 1036 976 980 c 128,-1,8
 1010 924 1010 924 1019 851.5 c 128,-1,9
 1028 779 1028 779 1016 700 c 2,10,-1
 897 0 l 1,11,-1
 842 0 l 1,12,-1
 963 700 l 2,13,14
 974 767 974 767 968.5 830.5 c 128,-1,15
 963 894 963 894 936 942.5 c 128,-1,16
 909 991 909 991 858.5 1020.5 c 128,-1,17
 808 1050 808 1050 730 1049 c 0,18,19
 659 1048 659 1048 587.5 1019.5 c 128,-1,20
 516 991 516 991 454 943 c 128,-1,21
 392 895 392 895 345.5 832.5 c 128,-1,22
 299 770 299 770 278 702 c 1,23,-1
 157 0 l 1,24,-1
 102 0 l 1,25,-1
 288 1082 l 1,26,-1
 343 1082 l 1,27,-1
 294 822 l 1,28,-1
 294 822 l 1,0,1
EndSplineSet
Substitution2: "'smcp' Lowercase to Small Capitals lookup 0 subtable" N.smcp
EndChar
StartChar: o
Encoding: 111 111 81
Width: 1202
Flags: W
LayerCount: 2
Back
Fore
SplineSet
129 562 m 2,0,1
 148 663 148 663 194.5 760 c 128,-1,2
 241 857 241 857 311.5 933 c 128,-1,3
 382 1009 382 1009 474.5 1055.5 c 128,-1,4
 567 1102 567 1102 678 1102 c 0,5,6
 752 1102 752 1102 811 1080 c 128,-1,7
 870 1058 870 1058 914.5 1019.5 c 128,-1,8
 959 981 959 981 989.5 928.5 c 128,-1,9
 1020 876 1020 876 1036.5 816 c 128,-1,10
 1053 756 1053 756 1056.5 691 c 128,-1,11
 1060 626 1060 626 1050 562 c 2,12,-1
 1043 520 l 2,13,14
 1025 419 1025 419 978.5 322 c 128,-1,15
 932 225 932 225 861.5 149 c 128,-1,16
 791 73 791 73 698.5 26.5 c 128,-1,17
 606 -20 606 -20 495 -20 c 0,18,19
 421 -20 421 -20 362 2 c 128,-1,20
 303 24 303 24 258.5 62.5 c 128,-1,21
 214 101 214 101 183.5 153.5 c 128,-1,22
 153 206 153 206 136 266 c 128,-1,23
 119 326 119 326 115.5 391 c 128,-1,24
 112 456 112 456 122 520 c 2,25,-1
 129 562 l 2,0,1
176 520 m 2,26,27
 162 436 162 436 173.5 349.5 c 128,-1,28
 185 263 185 263 223.5 193 c 128,-1,29
 262 123 262 123 329 78.5 c 128,-1,30
 396 34 396 34 495 34 c 256,31,32
 594 34 594 34 676.5 76.5 c 128,-1,33
 759 119 759 119 822.5 188 c 128,-1,34
 886 257 886 257 928 344 c 128,-1,35
 970 431 970 431 988 520 c 2,36,-1
 996 562 l 2,37,38
 1005 618 1005 618 1003 675.5 c 128,-1,39
 1001 733 1001 733 987.5 787 c 128,-1,40
 974 841 974 841 948.5 888.5 c 128,-1,41
 923 936 923 936 884.5 971.5 c 128,-1,42
 846 1007 846 1007 794.5 1027.5 c 128,-1,43
 743 1048 743 1048 678 1048 c 0,44,45
 580 1048 580 1048 497 1005.5 c 128,-1,46
 414 963 414 963 350.5 894 c 128,-1,47
 287 825 287 825 244.5 738 c 128,-1,48
 202 651 202 651 184 562 c 2,49,-1
 176 520 l 2,26,27
EndSplineSet
Substitution2: "'smcp' Lowercase to Small Capitals lookup 0 subtable" O.smcp
EndChar
StartChar: p
Encoding: 112 112 82
Width: 1202
Flags: W
LayerCount: 2
Back
Fore
SplineSet
1007 531 m 2,0,1
 995 467 995 467 974 401 c 128,-1,2
 953 335 953 335 921.5 274 c 128,-1,3
 890 213 890 213 848.5 159.5 c 128,-1,4
 807 106 807 106 754.5 66 c 128,-1,5
 702 26 702 26 639 3 c 128,-1,6
 576 -20 576 -20 502 -20 c 0,7,8
 454 -20 454 -20 408 -8 c 128,-1,9
 362 4 362 4 321.5 26.5 c 128,-1,10
 281 49 281 49 247.5 82 c 128,-1,11
 214 115 214 115 192 158 c 1,12,-1
 91 -416 l 1,13,-1
 38 -416 l 1,14,-1
 296 1082 l 1,15,-1
 350 1082 l 1,16,-1
 315 902 l 1,17,18
 348 944 348 944 389 980.5 c 128,-1,19
 430 1017 430 1017 477.5 1044 c 128,-1,20
 525 1071 525 1071 577 1086.5 c 128,-1,21
 629 1102 629 1102 685 1102 c 0,22,23
 760 1102 760 1102 816.5 1078 c 128,-1,24
 873 1054 873 1054 912 1013.5 c 128,-1,25
 951 973 951 973 975 918.5 c 128,-1,26
 999 864 999 864 1010 802.5 c 128,-1,27
 1021 741 1021 741 1020 677 c 128,-1,28
 1019 613 1019 613 1010 552 c 2,29,-1
 1007 531 l 2,0,1
955 552 m 2,30,31
 964 604 964 604 966 661 c 128,-1,32
 968 718 968 718 960.5 773 c 128,-1,33
 953 828 953 828 934.5 878 c 128,-1,34
 916 928 916 928 883.5 965.5 c 128,-1,35
 851 1003 851 1003 802 1025.5 c 128,-1,36
 753 1048 753 1048 686 1048 c 0,37,38
 623 1048 623 1048 566 1027.5 c 128,-1,39
 509 1007 509 1007 459.5 972 c 128,-1,40
 410 937 410 937 370 890 c 128,-1,41
 330 843 330 843 301 790 c 1,42,-1
 206 256 l 1,43,44
 218 203 218 203 246 162 c 128,-1,45
 274 121 274 121 313.5 92.5 c 128,-1,46
 353 64 353 64 401.5 49 c 128,-1,47
 450 34 450 34 503 34 c 0,48,49
 569 34 569 34 625.5 55.5 c 128,-1,50
 682 77 682 77 728 113 c 128,-1,51
 774 149 774 149 810.5 197 c 128,-1,52
 847 245 847 245 875 300 c 128,-1,53
 903 355 903 355 922 414 c 128,-1,54
 941 473 941 473 952 531 c 2,55,-1
 955 552 l 2,30,31
EndSplineSet
Substitution2: "'smcp' Lowercase to Small Capitals lookup 0 subtable" P.smcp
EndChar
StartChar: q
Encoding: 113 113 83
Width: 1202
Flags: W
LayerCount: 2
Back
Fore
SplineSet
163 552 m 2,0,1
 175 617 175 617 196 683 c 128,-1,2
 217 749 217 749 248.5 810 c 128,-1,3
 280 871 280 871 321.5 924.5 c 128,-1,4
 363 978 363 978 415.5 1017.5 c 128,-1,5
 468 1057 468 1057 531 1079.5 c 128,-1,6
 594 1102 594 1102 669 1102 c 0,7,8
 720 1102 720 1102 766 1088 c 128,-1,9
 812 1074 812 1074 851 1047.5 c 128,-1,10
 890 1021 890 1021 921 984 c 128,-1,11
 952 947 952 947 973 902 c 1,12,-1
 1006 1082 l 1,13,-1
 1060 1082 l 1,14,-1
 802 -416 l 1,15,-1
 748 -416 l 1,16,-1
 850 157 l 1,17,18
 815 118 815 118 773.5 85.5 c 128,-1,19
 732 53 732 53 685 29.5 c 128,-1,20
 638 6 638 6 587 -7 c 128,-1,21
 536 -20 536 -20 483 -20 c 0,22,23
 408 -20 408 -20 352.5 4.5 c 128,-1,24
 297 29 297 29 258 70 c 128,-1,25
 219 111 219 111 195 166 c 128,-1,26
 171 221 171 221 160 282 c 128,-1,27
 149 343 149 343 149.5 407 c 128,-1,28
 150 471 150 471 159 531 c 2,29,-1
 163 552 l 2,0,1
215 531 m 2,30,31
 206 479 206 479 203.5 422 c 128,-1,32
 201 365 201 365 208.5 310 c 128,-1,33
 216 255 216 255 234 205.5 c 128,-1,34
 252 156 252 156 284.5 118 c 128,-1,35
 317 80 317 80 365.5 57.5 c 128,-1,36
 414 35 414 35 481 34 c 0,37,38
 539 34 539 34 594.5 50 c 128,-1,39
 650 66 650 66 699.5 95.5 c 128,-1,40
 749 125 749 125 790.5 165.5 c 128,-1,41
 832 206 832 206 862 255 c 1,42,-1
 957 791 l 1,43,44
 947 845 947 845 922.5 892 c 128,-1,45
 898 939 898 939 860.5 973.5 c 128,-1,46
 823 1008 823 1008 774.5 1028 c 128,-1,47
 726 1048 726 1048 669 1048 c 0,48,49
 602 1048 602 1048 546 1027 c 128,-1,50
 490 1006 490 1006 443.5 970 c 128,-1,51
 397 934 397 934 360.5 885.5 c 128,-1,52
 324 837 324 837 296 782 c 128,-1,53
 268 727 268 727 249 668 c 128,-1,54
 230 609 230 609 219 552 c 2,55,-1
 215 531 l 2,30,31
EndSplineSet
Substitution2: "'smcp' Lowercase to Small Capitals lookup 0 subtable" Q.smcp
EndChar
StartChar: r
Encoding: 114 114 84
Width: 1202
Flags: W
LayerCount: 2
Back
Fore
SplineSet
990 1102 m 0,0,1
 1025 1102 1025 1102 1059.5 1097 c 128,-1,2
 1094 1092 1094 1092 1128 1086 c 1,3,-1
 1116 1036 l 1,4,5
 1084 1041 1084 1041 1052.5 1045 c 128,-1,6
 1021 1049 1021 1049 989 1049 c 0,7,8
 905 1049 905 1049 820 1025.5 c 128,-1,9
 735 1002 735 1002 662 956 c 128,-1,10
 589 910 589 910 533.5 843.5 c 128,-1,11
 478 777 478 777 453 691 c 1,12,-1
 336 0 l 1,13,-1
 275 0 l 1,14,-1
 461 1082 l 1,15,-1
 514 1082 l 1,16,-1
 486 894 l 1,17,-1
 471 825 l 1,18,19
 515 892 515 892 571.5 944 c 128,-1,20
 628 996 628 996 694 1031 c 128,-1,21
 760 1066 760 1066 835 1084 c 128,-1,22
 910 1102 910 1102 990 1102 c 0,0,1
EndSplineSet
Substitution2: "'smcp' Lowercase to Small Capitals lookup 0 subtable" R.smcp
EndChar
StartChar: s
Encoding: 115 115 85
Width: 1202
Flags: W
LayerCount: 2
Back
Fore
SplineSet
920 265 m 0,0,1
 928 309 928 309 918 343.5 c 128,-1,2
 908 378 908 378 885 405 c 128,-1,3
 862 432 862 432 829 452.5 c 128,-1,4
 796 473 796 473 759.5 488 c 128,-1,5
 723 503 723 503 685 513.5 c 128,-1,6
 647 524 647 524 615 532 c 0,7,8
 576 541 576 541 533 552.5 c 128,-1,9
 490 564 490 564 449.5 579.5 c 128,-1,10
 409 595 409 595 373 617 c 128,-1,11
 337 639 337 639 312 669 c 128,-1,12
 287 699 287 699 275 738.5 c 128,-1,13
 263 778 263 778 271 829 c 0,14,15
 281 901 281 901 324 953 c 128,-1,16
 367 1005 367 1005 426.5 1038 c 128,-1,17
 486 1071 486 1071 555.5 1086.5 c 128,-1,18
 625 1102 625 1102 690 1102 c 0,19,20
 763 1102 763 1102 830.5 1084 c 128,-1,21
 898 1066 898 1066 949 1028 c 128,-1,22
 1000 990 1000 990 1029.5 932 c 128,-1,23
 1059 874 1059 874 1056 793 c 1,24,-1
 1001 793 l 1,25,26
 1006 860 1006 860 980.5 908.5 c 128,-1,27
 955 957 955 957 910.5 988 c 128,-1,28
 866 1019 866 1019 808 1033.5 c 128,-1,29
 750 1048 750 1048 691 1048 c 0,30,31
 638 1048 638 1048 578.5 1036.5 c 128,-1,32
 519 1025 519 1025 466.5 999.5 c 128,-1,33
 414 974 414 974 375.5 932.5 c 128,-1,34
 337 891 337 891 325 831 c 0,35,36
 317 786 317 786 327 752.5 c 128,-1,37
 337 719 337 719 360 693.5 c 128,-1,38
 383 668 383 668 416 650 c 128,-1,39
 449 632 449 632 486 618.5 c 128,-1,40
 523 605 523 605 560.5 596 c 128,-1,41
 598 587 598 587 630 579 c 0,42,43
 670 569 670 569 713.5 556.5 c 128,-1,44
 757 544 757 544 797.5 526.5 c 128,-1,45
 838 509 838 509 874 485 c 128,-1,46
 910 461 910 461 934.5 429 c 128,-1,47
 959 397 959 397 970.5 356.5 c 128,-1,48
 982 316 982 316 974 264 c 0,49,50
 963 187 963 187 918 133.5 c 128,-1,51
 873 80 873 80 810 45.5 c 128,-1,52
 747 11 747 11 673.5 -4.5 c 128,-1,53
 600 -20 600 -20 533 -20 c 0,54,55
 462 -20 462 -20 392.5 -4.5 c 128,-1,56
 323 11 323 11 267.5 46.5 c 128,-1,57
 212 82 212 82 178 138 c 128,-1,58
 144 194 144 194 146 275 c 1,59,-1
 200 275 l 1,60,61
 200 206 200 206 229.5 159.5 c 128,-1,62
 259 113 259 113 306.5 85 c 128,-1,63
 354 57 354 57 413 45.5 c 128,-1,64
 472 34 472 34 532 34 c 0,65,66
 588 34 588 34 651 46.5 c 128,-1,67
 714 59 714 59 770 86.5 c 128,-1,68
 826 114 826 114 867 158 c 128,-1,69
 908 202 908 202 920 265 c 0,0,1
EndSplineSet
Substitution2: "'smcp' Lowercase to Small Capitals lookup 0 subtable" S.smcp
EndChar
StartChar: t
Encoding: 116 116 86
Width: 1202
Flags: W
LayerCount: 2
Back
Fore
SplineSet
690 1374 m 1,0,-1
 639 1082 l 1,1,-1
 1017 1082 l 1,2,-1
 1009 1027 l 1,3,-1
 630 1027 l 1,4,-1
 496 259 l 2,5,6
 487 201 487 201 500 159 c 128,-1,7
 513 117 513 117 542.5 89.5 c 128,-1,8
 572 62 572 62 616 48.5 c 128,-1,9
 660 35 660 35 714 34 c 0,10,11
 755 33 755 33 794.5 36 c 128,-1,12
 834 39 834 39 874 43 c 1,13,-1
 878 -9 l 1,14,15
 838 -16 838 -16 798.5 -18.5 c 128,-1,16
 759 -21 759 -21 719 -20 c 0,17,18
 652 -19 652 -19 596.5 -2.5 c 128,-1,19
 541 14 541 14 503 48 c 128,-1,20
 465 82 465 82 447.5 134.5 c 128,-1,21
 430 187 430 187 440 259 c 2,22,-1
 573 1027 l 1,23,-1
 266 1027 l 1,24,-1
 273 1082 l 1,25,-1
 582 1082 l 1,26,-1
 633 1374 l 1,27,-1
 690 1374 l 1,0,-1
EndSplineSet
Substitution2: "'smcp' Lowercase to Small Capitals lookup 0 subtable" T.smcp
EndChar
StartChar: u
Encoding: 117 117 87
Width: 1202
Flags: W
LayerCount: 2
Back
Fore
SplineSet
831 0 m 1,0,-1
 869 193 l 1,1,2
 797 91 797 91 692.5 35.5 c 128,-1,3
 588 -20 588 -20 461 -20 c 0,4,5
 371 -20 371 -20 310 15 c 128,-1,6
 249 50 249 50 214.5 108 c 128,-1,7
 180 166 180 166 171 240.5 c 128,-1,8
 162 315 162 315 174 395 c 2,9,-1
 292 1082 l 1,10,-1
 346 1082 l 1,11,-1
 227 393 l 2,12,13
 216 327 216 327 221.5 262.5 c 128,-1,14
 227 198 227 198 254 147.5 c 128,-1,15
 281 97 281 97 331 66 c 128,-1,16
 381 35 381 35 459 34 c 0,17,18
 528 34 528 34 596 54.5 c 128,-1,19
 664 75 664 75 722.5 114 c 128,-1,20
 781 153 781 153 825 208.5 c 128,-1,21
 869 264 869 264 889 333 c 1,22,-1
 1017 1082 l 1,23,-1
 1073 1082 l 1,24,-1
 887 0 l 1,25,-1
 831 0 l 1,0,-1
EndSplineSet
Substitution2: "'smcp' Lowercase to Small Capitals lookup 0 subtable" U.smcp
EndChar
StartChar: v
Encoding: 118 118 88
Width: 1202
Flags: W
LayerCount: 2
Back
Fore
SplineSet
511 81 m 1,0,-1
 1089 1081 l 1,1,-1
 1151 1081 l 1,2,-1
 529 0 l 1,3,-1
 475 0 l 1,4,-1
 187 1083 l 1,5,-1
 246 1083 l 1,6,-1
 511 81 l 1,0,-1
EndSplineSet
Substitution2: "'smcp' Lowercase to Small Capitals lookup 0 subtable" V.smcp
EndChar
StartChar: w
Encoding: 119 119 89
Width: 1202
Flags: W
LayerCount: 2
Back
Fore
SplineSet
251 308 m 1,0,-1
 254 105 l 1,1,-1
 343 317 l 1,2,-1
 661 1082 l 1,3,-1
 711 1082 l 1,4,-1
 767 308 l 1,5,-1
 779 104 l 1,6,-1
 858 318 l 1,7,-1
 1160 1081 l 1,8,-1
 1218 1081 l 1,9,-1
 791 0 l 1,10,-1
 742 0 l 1,11,-1
 675 818 l 1,12,-1
 672 980 l 1,13,-1
 605 809 l 1,14,-1
 262 0 l 1,15,-1
 213 0 l 1,16,-1
 157 1082 l 1,17,-1
 213 1082 l 1,18,-1
 251 308 l 1,0,-1
EndSplineSet
Substitution2: "'smcp' Lowercase to Small Capitals lookup 0 subtable" W.smcp
EndChar
StartChar: x
Encoding: 120 120 90
Width: 1202
Flags: W
LayerCount: 2
Back
Fore
SplineSet
607 603 m 1,0,-1
 1053 1081 l 1,1,-1
 1127 1080 l 1,2,-1
 635 552 l 1,3,-1
 980 0 l 1,4,-1
 913 0 l 1,5,-1
 597 507 l 1,6,-1
 124 0 l 1,7,-1
 51 0 l 1,8,-1
 569 558 l 1,9,-1
 241 1083 l 1,10,-1
 310 1083 l 1,11,-1
 607 603 l 1,0,-1
EndSplineSet
Substitution2: "'smcp' Lowercase to Small Capitals lookup 0 subtable" X.smcp
EndChar
StartChar: y
Encoding: 121 121 91
Width: 1202
Flags: W
LayerCount: 2
Back
Fore
SplineSet
510 74 m 1,0,-1
 528 105 l 1,1,-1
 1125 1081 l 1,2,-1
 1191 1081 l 1,3,-1
 423 -180 l 2,4,5
 392 -231 392 -231 354.5 -277.5 c 128,-1,6
 317 -324 317 -324 272 -359 c 128,-1,7
 227 -394 227 -394 173.5 -415.5 c 128,-1,8
 120 -437 120 -437 56 -437 c 0,9,10
 33 -437 33 -437 11.5 -434 c 128,-1,11
 -10 -431 -10 -431 -33 -426 c 1,12,-1
 -28 -375 l 1,13,14
 -9 -378 -9 -378 10 -381 c 128,-1,15
 29 -384 29 -384 49 -384 c 0,16,17
 102 -384 102 -384 148.5 -367 c 128,-1,18
 195 -350 195 -350 234 -320.5 c 128,-1,19
 273 -291 273 -291 306 -252 c 128,-1,20
 339 -213 339 -213 365 -170 c 2,21,-1
 471 7 l 1,22,-1
 164 1083 l 1,23,-1
 225 1083 l 1,24,-1
 510 74 l 1,0,-1
EndSplineSet
Substitution2: "'smcp' Lowercase to Small Capitals lookup 0 subtable" Y.smcp
EndChar
StartChar: braceleft
Encoding: 123 123 93
Width: 1202
Flags: W
LayerCount: 2
Back
Fore
SplineSet
782 -440 m 1,0,1
 704 -412 704 -412 647.5 -367 c 128,-1,2
 591 -322 591 -322 556 -263.5 c 128,-1,3
 521 -205 521 -205 509 -133.5 c 128,-1,4
 497 -62 497 -62 508 20 c 2,5,-1
 547 265 l 2,6,7
 564 392 564 392 504.5 462 c 128,-1,8
 445 532 445 532 320 543 c 1,9,-1
 322 566 l 1,10,-1
 325 586 l 1,11,-1
 328 609 l 1,12,13
 454 620 454 620 536.5 689.5 c 128,-1,14
 619 759 619 759 643 885 c 1,15,-1
 681 1132 l 2,16,17
 696 1220 696 1220 731 1293 c 128,-1,18
 766 1366 766 1366 819.5 1424.5 c 128,-1,19
 873 1483 873 1483 942.5 1526 c 128,-1,20
 1012 1569 1012 1569 1095 1597 c 1,21,-1
 1105 1551 l 1,22,23
 959 1500 959 1500 861.5 1393 c 128,-1,24
 764 1286 764 1286 736 1132 c 1,25,-1
 698 885 l 2,26,27
 677 762 677 762 602.5 683 c 128,-1,28
 528 604 528 604 408 575 c 1,29,30
 463 560 463 560 503 530.5 c 128,-1,31
 543 501 543 501 567 461 c 128,-1,32
 591 421 591 421 599 371 c 128,-1,33
 607 321 607 321 600 265 c 2,34,-1
 562 20 l 2,35,36
 541 -129 541 -129 605 -235 c 128,-1,37
 669 -341 669 -341 806 -396 c 1,38,-1
 782 -440 l 1,0,1
EndSplineSet
EndChar
StartChar: bar
Encoding: 124 124 94
Width: 1202
Flags: W
LayerCount: 2
Back
Fore
SplineSet
489 -270 m 1,0,-1
 435 -270 l 1,1,-1
 703 1456 l 1,2,-1
 757 1456 l 1,3,-1
 489 -270 l 1,0,-1
EndSplineSet
EndChar
StartChar: braceright
Encoding: 125 125 95
Width: 1202
Flags: W
LayerCount: 2
Back
Fore
SplineSet
172 -394 m 1,0,1
 244 -368 244 -368 305.5 -328.5 c 128,-1,2
 367 -289 367 -289 415.5 -237.5 c 128,-1,3
 464 -186 464 -186 497 -121.5 c 128,-1,4
 530 -57 530 -57 544 20 c 2,5,-1
 582 265 l 2,6,7
 603 389 603 389 677.5 468 c 128,-1,8
 752 547 752 547 873 577 c 1,9,10
 817 592 817 592 777 621 c 128,-1,11
 737 650 737 650 713 690 c 128,-1,12
 689 730 689 730 680.5 779.5 c 128,-1,13
 672 829 672 829 679 885 c 2,14,-1
 718 1132 l 2,15,16
 739 1279 739 1279 679 1389 c 128,-1,17
 619 1499 619 1499 480 1553 c 1,18,-1
 501 1596 l 1,19,20
 656 1537 656 1537 725.5 1417 c 128,-1,21
 795 1297 795 1297 772 1132 c 2,22,-1
 733 885 l 2,23,24
 715 759 715 759 774.5 689.5 c 128,-1,25
 834 620 834 620 959 609 c 1,26,-1
 956 586 l 1,27,-1
 957 586 l 1,28,-1
 956 576 l 1,29,-1
 956 566 l 1,30,-1
 955 566 l 1,31,-1
 953 543 l 1,32,33
 826 533 826 533 743.5 462.5 c 128,-1,34
 661 392 661 392 637 265 c 1,35,-1
 599 20 l 2,36,37
 584 -68 584 -68 549 -140.5 c 128,-1,38
 514 -213 514 -213 460.5 -271 c 128,-1,39
 407 -329 407 -329 337.5 -371.5 c 128,-1,40
 268 -414 268 -414 185 -441 c 1,41,-1
 172 -394 l 1,0,1
EndSplineSet
EndChar
StartChar: asciitilde
Encoding: 126 126 96
Width: 1202
Flags: W
LayerCount: 2
Back
Fore
SplineSet
1147 751 m 1,0,1
 1135 693 1135 693 1110.5 638 c 128,-1,2
 1086 583 1086 583 1048 540 c 128,-1,3
 1010 497 1010 497 958.5 470.5 c 128,-1,4
 907 444 907 444 841 443 c 0,5,6
 799 443 799 443 762.5 455.5 c 128,-1,7
 726 468 726 468 693 489 c 128,-1,8
 660 510 660 510 630.5 537 c 128,-1,9
 601 564 601 564 574 593 c 0,10,11
 551 617 551 617 527 640 c 128,-1,12
 503 663 503 663 476 681 c 128,-1,13
 449 699 449 699 418.5 709.5 c 128,-1,14
 388 720 388 720 352 720 c 0,15,16
 297 719 297 719 255 697 c 128,-1,17
 213 675 213 675 183 639 c 128,-1,18
 153 603 153 603 133 557 c 128,-1,19
 113 511 113 511 102 463 c 1,20,-1
 47 463 l 1,21,22
 59 521 59 521 83.5 577 c 128,-1,23
 108 633 108 633 145.5 676.5 c 128,-1,24
 183 720 183 720 234.5 746.5 c 128,-1,25
 286 773 286 773 352 774 c 0,26,27
 394 774 394 774 431 762 c 128,-1,28
 468 750 468 750 501 729 c 128,-1,29
 534 708 534 708 564 680.5 c 128,-1,30
 594 653 594 653 621 624 c 0,31,32
 643 600 643 600 667 577 c 128,-1,33
 691 554 691 554 718 536 c 128,-1,34
 745 518 745 518 775.5 507 c 128,-1,35
 806 496 806 496 841 496 c 0,36,37
 896 497 896 497 937.5 519 c 128,-1,38
 979 541 979 541 1009.5 577 c 128,-1,39
 1040 613 1040 613 1060 658.5 c 128,-1,40
 1080 704 1080 704 1091 752 c 1,41,-1
 1147 751 l 1,0,1
EndSplineSet
EndChar
StartChar: exclamdown
Encoding: 161 161 97
Width: 1202
Flags: W
LayerCount: 2
Back
Fore
SplineSet
592 696 m 1,0,-1
 646 696 l 1,1,-1
 465 -359 l 1,2,-1
 410 -359 l 1,3,-1
 592 696 l 1,0,-1
729 1046 m 0,4,5
 727 1036 727 1036 721 1026 c 128,-1,6
 715 1016 715 1016 706 1008.5 c 128,-1,7
 697 1001 697 1001 686 996.5 c 128,-1,8
 675 992 675 992 665 992 c 0,9,10
 644 993 644 993 628.5 1010.5 c 128,-1,11
 613 1028 613 1028 616 1050 c 0,12,13
 620 1070 620 1070 639.5 1086.5 c 128,-1,14
 659 1103 659 1103 680 1103 c 0,15,16
 701 1102 701 1102 716.5 1085 c 128,-1,17
 732 1068 732 1068 729 1046 c 0,4,5
EndSplineSet
EndChar
StartChar: cent
Encoding: 162 162 98
Width: 1202
Flags: W
LayerCount: 2
Back
Fore
SplineSet
513 34 m 0,0,1
 584 34 584 34 647 55 c 128,-1,2
 710 76 710 76 761.5 114.5 c 128,-1,3
 813 153 813 153 851.5 207 c 128,-1,4
 890 261 890 261 912 327 c 1,5,-1
 966 327 l 1,6,7
 945 254 945 254 905.5 193 c 128,-1,8
 866 132 866 132 811.5 87 c 128,-1,9
 757 42 757 42 690 14.5 c 128,-1,10
 623 -13 623 -13 548 -19 c 1,11,-1
 510 -245 l 1,12,-1
 454 -245 l 1,13,-1
 492 -19 l 1,14,15
 422 -16 422 -16 368 8.5 c 128,-1,16
 314 33 314 33 274 72.5 c 128,-1,17
 234 112 234 112 208.5 163.5 c 128,-1,18
 183 215 183 215 170 274 c 128,-1,19
 157 333 157 333 155.5 396 c 128,-1,20
 154 459 154 459 164 520 c 2,21,-1
 171 562 l 2,22,23
 189 660 189 660 231 755.5 c 128,-1,24
 273 851 273 851 338 927.5 c 128,-1,25
 403 1004 403 1004 490.5 1052 c 128,-1,26
 578 1100 578 1100 687 1102 c 1,27,-1
 724 1318 l 1,28,-1
 780 1318 l 1,29,-1
 743 1099 l 1,30,31
 815 1091 815 1091 871.5 1059.5 c 128,-1,32
 928 1028 928 1028 966 978 c 128,-1,33
 1004 928 1004 928 1022 863.5 c 128,-1,34
 1040 799 1040 799 1036 725 c 1,35,-1
 983 725 l 1,36,37
 987 794 987 794 970 853 c 128,-1,38
 953 912 953 912 916 955.5 c 128,-1,39
 879 999 879 999 823.5 1023.5 c 128,-1,40
 768 1048 768 1048 697 1048 c 0,41,42
 630 1048 630 1048 572.5 1028.5 c 128,-1,43
 515 1009 515 1009 466.5 974.5 c 128,-1,44
 418 940 418 940 378.5 893.5 c 128,-1,45
 339 847 339 847 309 793 c 128,-1,46
 279 739 279 739 258 680 c 128,-1,47
 237 621 237 621 226 562 c 2,48,-1
 218 520 l 2,49,50
 209 465 209 465 208.5 407.5 c 128,-1,51
 208 350 208 350 218.5 296 c 128,-1,52
 229 242 229 242 251 194.5 c 128,-1,53
 273 147 273 147 309 111.5 c 128,-1,54
 345 76 345 76 395.5 55 c 128,-1,55
 446 34 446 34 513 34 c 0,0,1
EndSplineSet
EndChar
StartChar: sterling
Encoding: 163 163 99
Width: 1202
Flags: W
LayerCount: 2
Back
Fore
SplineSet
419 667 m 1,0,-1
 372 336 l 2,1,2
 360 257 360 257 334.5 185 c 128,-1,3
 309 113 309 113 254 53 c 1,4,-1
 990 54 l 1,5,-1
 983 0 l 1,6,-1
 51 0 l 1,7,-1
 58 54 l 1,8,-1
 172 54 l 1,9,10
 210 75 210 75 235 107 c 128,-1,11
 260 139 260 139 276.5 176.5 c 128,-1,12
 293 214 293 214 302 255 c 128,-1,13
 311 296 311 296 317 336 c 2,14,-1
 365 667 l 1,15,-1
 163 667 l 1,16,-1
 170 721 l 1,17,-1
 373 721 l 1,18,-1
 418 1039 l 2,19,20
 431 1120 431 1120 466 1198.5 c 128,-1,21
 501 1277 501 1277 555.5 1338.5 c 128,-1,22
 610 1400 610 1400 682.5 1438 c 128,-1,23
 755 1476 755 1476 845 1476 c 0,24,25
 930 1476 930 1476 990.5 1444.5 c 128,-1,26
 1051 1413 1051 1413 1088.5 1359.5 c 128,-1,27
 1126 1306 1126 1306 1140.5 1236 c 128,-1,28
 1155 1166 1155 1166 1146 1089 c 1,29,-1
 1093 1089 l 1,30,31
 1101 1155 1101 1155 1091 1215 c 128,-1,32
 1081 1275 1081 1275 1051 1321.5 c 128,-1,33
 1021 1368 1021 1368 970.5 1395 c 128,-1,34
 920 1422 920 1422 846 1422 c 0,35,36
 768 1421 768 1421 704.5 1388 c 128,-1,37
 641 1355 641 1355 593.5 1301 c 128,-1,38
 546 1247 546 1247 515.5 1178.5 c 128,-1,39
 485 1110 485 1110 473 1039 c 2,40,-1
 426 721 l 1,41,-1
 784 721 l 1,42,-1
 777 667 l 1,43,-1
 419 667 l 1,0,-1
EndSplineSet
EndChar
StartChar: currency
Encoding: 164 164 100
Width: 1202
Flags: W
LayerCount: 2
Back
Fore
SplineSet
880 151 m 1,0,1
 842 114 842 114 800.5 83 c 128,-1,2
 759 52 759 52 713 29 c 128,-1,3
 667 6 667 6 617 -7 c 128,-1,4
 567 -20 567 -20 513 -20 c 0,5,6
 415 -20 415 -20 336.5 24.5 c 128,-1,7
 258 69 258 69 204 150 c 1,8,-1
 27 -26 l 1,9,-1
 -7 15 l 1,10,-1
 175 196 l 1,11,12
 132 293 132 293 120 398 c 128,-1,13
 108 503 108 503 125 608 c 0,14,15
 145 726 145 726 197.5 834 c 128,-1,16
 250 942 250 942 328 1033 c 1,17,-1
 204 1227 l 1,18,-1
 245 1264 l 1,19,-1
 365 1076 l 1,20,21
 402 1110 402 1110 443 1139 c 128,-1,22
 484 1168 484 1168 528.5 1189 c 128,-1,23
 573 1210 573 1210 621 1222 c 128,-1,24
 669 1234 669 1234 720 1234 c 0,25,26
 814 1234 814 1234 890.5 1192.5 c 128,-1,27
 967 1151 967 1151 1021 1075 c 1,28,-1
 1213 1265 l 1,29,-1
 1248 1223 l 1,30,-1
 1053 1028 l 1,31,32
 1100 930 1100 930 1112.5 822.5 c 128,-1,33
 1125 715 1125 715 1108 608 c 0,34,35
 1088 494 1088 494 1039 390 c 128,-1,36
 990 286 990 286 916 197 c 1,37,-1
 1037 11 l 1,38,-1
 995 -27 l 1,39,-1
 880 151 l 1,0,1
180 608 m 0,40,41
 169 550 169 550 169.5 484.5 c 128,-1,42
 170 419 170 419 183 355 c 128,-1,43
 196 291 196 291 221.5 233 c 128,-1,44
 247 175 247 175 287.5 130.5 c 128,-1,45
 328 86 328 86 383.5 59.5 c 128,-1,46
 439 33 439 33 512 33 c 0,47,48
 584 33 584 33 649.5 58 c 128,-1,49
 715 83 715 83 771 125.5 c 128,-1,50
 827 168 827 168 874 224.5 c 128,-1,51
 921 281 921 281 957 345 c 128,-1,52
 993 409 993 409 1017 476.5 c 128,-1,53
 1041 544 1041 544 1053 608 c 0,54,55
 1063 666 1063 666 1063 731 c 128,-1,56
 1063 796 1063 796 1050 860 c 128,-1,57
 1037 924 1037 924 1011.5 982 c 128,-1,58
 986 1040 986 1040 945.5 1084 c 128,-1,59
 905 1128 905 1128 849 1154.5 c 128,-1,60
 793 1181 793 1181 721 1181 c 0,61,62
 648 1181 648 1181 583 1156.5 c 128,-1,63
 518 1132 518 1132 462 1089.5 c 128,-1,64
 406 1047 406 1047 359 990.5 c 128,-1,65
 312 934 312 934 276 870.5 c 128,-1,66
 240 807 240 807 215.5 739.5 c 128,-1,67
 191 672 191 672 180 608 c 0,40,41
EndSplineSet
EndChar
StartChar: yen
Encoding: 165 165 101
Width: 1202
Flags: W
LayerCount: 2
Back
Fore
SplineSet
1204 1455 m 1,0,-1
 1271 1454 l 1,1,-1
 666 676 l 1,2,-1
 1072 676 l 1,3,-1
 1065 621 l 1,4,-1
 627 621 l 1,5,-1
 585 381 l 1,6,-1
 1021 381 l 1,7,-1
 1014 326 l 1,8,-1
 576 326 l 1,9,-1
 520 0 l 1,10,-1
 466 0 l 1,11,-1
 521 326 l 1,12,-1
 88 326 l 1,13,-1
 95 381 l 1,14,-1
 530 381 l 1,15,-1
 573 621 l 1,16,-1
 139 621 l 1,17,-1
 147 676 l 1,18,-1
 557 676 l 1,19,-1
 218 1457 l 1,20,-1
 280 1457 l 1,21,-1
 593 738 l 1,22,-1
 606 687 l 1,23,-1
 610 687 l 1,24,-1
 643 738 l 1,25,-1
 1204 1455 l 1,0,-1
EndSplineSet
EndChar
StartChar: brokenbar
Encoding: 166 166 102
Width: 1202
Flags: W
LayerCount: 2
Back
Fore
SplineSet
408 -270 m 1,0,-1
 537 482 l 1,1,-1
 591 482 l 1,2,-1
 462 -270 l 1,3,-1
 408 -270 l 1,0,-1
630 698 m 1,4,-1
 576 698 l 1,5,-1
 706 1456 l 1,6,-1
 760 1456 l 1,7,-1
 630 698 l 1,4,-1
EndSplineSet
EndChar
StartChar: section
Encoding: 167 167 103
Width: 1202
Flags: W
LayerCount: 2
Back
Fore
SplineSet
1041 431 m 0,0,1
 1030 366 1030 366 996.5 319.5 c 128,-1,2
 963 273 963 273 916 241 c 128,-1,3
 869 209 869 209 812 190 c 128,-1,4
 755 171 755 171 697 162 c 1,5,6
 746 139 746 139 786.5 109.5 c 128,-1,7
 827 80 827 80 855 41.5 c 128,-1,8
 883 3 883 3 895 -44 c 128,-1,9
 907 -91 907 -91 898 -149 c 0,10,11
 884 -237 884 -237 835.5 -302 c 128,-1,12
 787 -367 787 -367 718.5 -410 c 128,-1,13
 650 -453 650 -453 568 -474 c 128,-1,14
 486 -495 486 -495 405 -495 c 0,15,16
 307 -495 307 -495 228.5 -464.5 c 128,-1,17
 150 -434 150 -434 96.5 -378 c 128,-1,18
 43 -322 43 -322 18 -242.5 c 128,-1,19
 -7 -163 -7 -163 4 -64 c 1,20,-1
 58 -62 l 1,21,22
 48 -149 48 -149 68.5 -219 c 128,-1,23
 89 -289 89 -289 135 -338.5 c 128,-1,24
 181 -388 181 -388 249.5 -414.5 c 128,-1,25
 318 -441 318 -441 405 -441 c 0,26,27
 474 -441 474 -441 545.5 -424 c 128,-1,28
 617 -407 617 -407 678 -371 c 128,-1,29
 739 -335 739 -335 783 -280.5 c 128,-1,30
 827 -226 827 -226 842 -151 c 0,31,32
 852 -101 852 -101 843.5 -60.5 c 128,-1,33
 835 -20 835 -20 813 11.5 c 128,-1,34
 791 43 791 43 758 67 c 128,-1,35
 725 91 725 91 686.5 109.5 c 128,-1,36
 648 128 648 128 606.5 141.5 c 128,-1,37
 565 155 565 155 526 166 c 0,38,39
 479 179 479 179 427 195.5 c 128,-1,40
 375 212 375 212 326 234.5 c 128,-1,41
 277 257 277 257 234.5 285.5 c 128,-1,42
 192 314 192 314 162 352.5 c 128,-1,43
 132 391 132 391 119 440 c 128,-1,44
 106 489 106 489 117 551 c 0,45,46
 127 613 127 613 157 660 c 128,-1,47
 187 707 187 707 230.5 740 c 128,-1,48
 274 773 274 773 327.5 794.5 c 128,-1,49
 381 816 381 816 438 827 c 1,50,51
 392 850 392 850 355.5 880 c 128,-1,52
 319 910 319 910 295 947.5 c 128,-1,53
 271 985 271 985 261.5 1030 c 128,-1,54
 252 1075 252 1075 261 1129 c 0,55,56
 275 1216 275 1216 323.5 1281.5 c 128,-1,57
 372 1347 372 1347 440.5 1390 c 128,-1,58
 509 1433 509 1433 591 1454.5 c 128,-1,59
 673 1476 673 1476 754 1476 c 0,60,61
 851 1476 851 1476 925.5 1444 c 128,-1,62
 1000 1412 1000 1412 1048 1354.5 c 128,-1,63
 1096 1297 1096 1297 1116.5 1218 c 128,-1,64
 1137 1139 1137 1139 1126 1045 c 1,65,-1
 1073 1045 l 1,66,67
 1082 1125 1082 1125 1064.5 1193.5 c 128,-1,68
 1047 1262 1047 1262 1006 1312.5 c 128,-1,69
 965 1363 965 1363 901.5 1392 c 128,-1,70
 838 1421 838 1421 755 1422 c 0,71,72
 684 1423 684 1423 612.5 1406 c 128,-1,73
 541 1389 541 1389 480 1353 c 128,-1,74
 419 1317 419 1317 374.5 1262 c 128,-1,75
 330 1207 330 1207 315 1132 c 0,76,77
 300 1055 300 1055 325.5 1000.5 c 128,-1,78
 351 946 351 946 400.5 908.5 c 128,-1,79
 450 871 450 871 513 846.5 c 128,-1,80
 576 822 576 822 636 804 c 0,81,82
 682 790 682 790 733 774.5 c 128,-1,83
 784 759 784 759 832.5 738 c 128,-1,84
 881 717 881 717 923.5 689.5 c 128,-1,85
 966 662 966 662 996 625 c 128,-1,86
 1026 588 1026 588 1039 540.5 c 128,-1,87
 1052 493 1052 493 1041 431 c 0,0,1
614 766 m 0,88,89
 590 773 590 773 566.5 780.5 c 128,-1,90
 543 788 543 788 519 796 c 1,91,92
 462 791 462 791 405.5 775.5 c 128,-1,93
 349 760 349 760 301 731.5 c 128,-1,94
 253 703 253 703 218.5 659 c 128,-1,95
 184 615 184 615 171 553 c 0,96,97
 159 496 159 496 170.5 452.5 c 128,-1,98
 182 409 182 409 209.5 376 c 128,-1,99
 237 343 237 343 277 318 c 128,-1,100
 317 293 317 293 362.5 274.5 c 128,-1,101
 408 256 408 256 454.5 241.5 c 128,-1,102
 501 227 501 227 542 215 c 2,103,-1
 602 196 l 1,104,105
 659 199 659 199 721 211.5 c 128,-1,106
 783 224 783 224 837 250.5 c 128,-1,107
 891 277 891 277 931.5 320 c 128,-1,108
 972 363 972 363 986 428 c 0,109,110
 998 483 998 483 986.5 526.5 c 128,-1,111
 975 570 975 570 947 603.5 c 128,-1,112
 919 637 919 637 878.5 662 c 128,-1,113
 838 687 838 687 792.5 706.5 c 128,-1,114
 747 726 747 726 700.5 740 c 128,-1,115
 654 754 654 754 614 766 c 0,88,89
EndSplineSet
EndChar
StartChar: dieresis
Encoding: 168 168 104
Width: 1202
Flags: W
LayerCount: 2
Back
Fore
SplineSet
451 1422 m 0,0,1
 454 1442 454 1442 473 1459.5 c 128,-1,2
 492 1477 492 1477 512 1477 c 0,3,4
 523 1477 523 1477 532.5 1472 c 128,-1,5
 542 1467 542 1467 549 1458.5 c 128,-1,6
 556 1450 556 1450 559 1440 c 128,-1,7
 562 1430 562 1430 561 1420 c 0,8,9
 558 1400 558 1400 538.5 1383 c 128,-1,10
 519 1366 519 1366 499 1366 c 0,11,12
 478 1367 478 1367 463.5 1384.5 c 128,-1,13
 449 1402 449 1402 451 1422 c 0,0,1
883 1422 m 256,14,15
 886 1442 886 1442 905 1459.5 c 128,-1,16
 924 1477 924 1477 944 1477 c 0,17,18
 965 1477 965 1477 980 1458.5 c 128,-1,19
 995 1440 995 1440 993 1420 c 0,20,21
 990 1400 990 1400 970.5 1383 c 128,-1,22
 951 1366 951 1366 931 1366 c 0,23,24
 910 1367 910 1367 895 1384.5 c 128,-1,25
 880 1402 880 1402 883 1422 c 256,14,15
EndSplineSet
EndChar
StartChar: copyright
Encoding: 169 169 105
Width: 1202
Flags: W
LayerCount: 2
Back
Fore
SplineSet
798 455 m 1,0,1
 790 406 790 406 769 363 c 128,-1,2
 748 320 748 320 715 288.5 c 128,-1,3
 682 257 682 257 639 239.5 c 128,-1,4
 596 222 596 222 544 222 c 0,5,6
 482 222 482 222 441.5 251 c 128,-1,7
 401 280 401 280 378 324.5 c 128,-1,8
 355 369 355 369 348.5 423 c 128,-1,9
 342 477 342 477 348 529 c 2,10,-1
 355 577 l 2,11,12
 364 631 364 631 386.5 684.5 c 128,-1,13
 409 738 409 738 444.5 780 c 128,-1,14
 480 822 480 822 528 848 c 128,-1,15
 576 874 576 874 637 875 c 0,16,17
 688 875 688 875 726.5 858.5 c 128,-1,18
 765 842 765 842 790.5 812 c 128,-1,19
 816 782 816 782 826 740.5 c 128,-1,20
 836 699 836 699 830 651 c 1,21,-1
 783 651 l 1,22,23
 783 688 783 688 776 719.5 c 128,-1,24
 769 751 769 751 752 773.5 c 128,-1,25
 735 796 735 796 707 809 c 128,-1,26
 679 822 679 822 638 822 c 0,27,28
 588 822 588 822 549.5 800 c 128,-1,29
 511 778 511 778 482.5 743 c 128,-1,30
 454 708 454 708 436 664.5 c 128,-1,31
 418 621 418 621 410 578 c 2,32,-1
 402 529 l 2,33,34
 396 489 396 489 398.5 445 c 128,-1,35
 401 401 401 401 416.5 364.5 c 128,-1,36
 432 328 432 328 462.5 303.5 c 128,-1,37
 493 279 493 279 544 278 c 0,38,39
 587 277 587 277 620 290.5 c 128,-1,40
 653 304 653 304 678 328 c 128,-1,41
 703 352 703 352 720.5 385 c 128,-1,42
 738 418 738 418 750 455 c 1,43,-1
 798 455 l 1,0,1
128 551 m 0,44,45
 112 454 112 454 130 361 c 128,-1,46
 148 268 148 268 197.5 195.5 c 128,-1,47
 247 123 247 123 326 78.5 c 128,-1,48
 405 34 405 34 512 34 c 256,49,50
 619 34 619 34 712.5 76.5 c 128,-1,51
 806 119 806 119 878.5 190.5 c 128,-1,52
 951 262 951 262 999 355.5 c 128,-1,53
 1047 449 1047 449 1064 551 c 0,54,55
 1080 647 1080 647 1060.5 737.5 c 128,-1,56
 1041 828 1041 828 991 897.5 c 128,-1,57
 941 967 941 967 861.5 1009 c 128,-1,58
 782 1051 782 1051 679 1051 c 0,59,60
 574 1051 574 1051 481.5 1010.5 c 128,-1,61
 389 970 389 970 316 901.5 c 128,-1,62
 243 833 243 833 194 742 c 128,-1,63
 145 651 145 651 128 551 c 0,44,45
73 551 m 0,64,65
 90 663 90 663 143 764 c 128,-1,66
 196 865 196 865 276 941 c 128,-1,67
 356 1017 356 1017 459 1061.5 c 128,-1,68
 562 1106 562 1106 679 1106 c 0,69,70
 794 1106 794 1106 883.5 1060 c 128,-1,71
 973 1014 973 1014 1031 937 c 128,-1,72
 1089 860 1089 860 1112.5 760 c 128,-1,73
 1136 660 1136 660 1120 551 c 0,74,75
 1103 437 1103 437 1050.5 333.5 c 128,-1,76
 998 230 998 230 918 151.5 c 128,-1,77
 838 73 838 73 734.5 26 c 128,-1,78
 631 -21 631 -21 512 -21 c 0,79,80
 433 -21 433 -21 367 1 c 128,-1,81
 301 23 301 23 248.5 62.5 c 128,-1,82
 196 102 196 102 158 155.5 c 128,-1,83
 120 209 120 209 97.5 272.5 c 128,-1,84
 75 336 75 336 68.5 407 c 128,-1,85
 62 478 62 478 73 551 c 0,64,65
EndSplineSet
EndChar
StartChar: ordfeminine
Encoding: 170 170 106
Width: 1202
Flags: W
LayerCount: 2
Back
Fore
SplineSet
846 704 m 1,0,1
 844 736 844 736 844 766 c 128,-1,2
 844 796 844 796 849 828 c 1,3,4
 798 769 798 769 730 731 c 128,-1,5
 662 693 662 693 582 691 c 0,6,7
 535 691 535 691 492 704.5 c 128,-1,8
 449 718 449 718 417.5 744.5 c 128,-1,9
 386 771 386 771 370.5 810 c 128,-1,10
 355 849 355 849 363 900 c 0,11,12
 373 964 373 964 408.5 1007.5 c 128,-1,13
 444 1051 444 1051 494.5 1078.5 c 128,-1,14
 545 1106 545 1106 604 1118.5 c 128,-1,15
 663 1131 663 1131 719 1132 c 2,16,-1
 893 1132 l 1,17,-1
 907 1201 l 2,18,19
 914 1245 914 1245 908.5 1284.5 c 128,-1,20
 903 1324 903 1324 884 1354 c 128,-1,21
 865 1384 865 1384 831.5 1402.5 c 128,-1,22
 798 1421 798 1421 750 1422 c 0,23,24
 703 1423 703 1423 660 1412.5 c 128,-1,25
 617 1402 617 1402 581 1379.5 c 128,-1,26
 545 1357 545 1357 518 1323.5 c 128,-1,27
 491 1290 491 1290 476 1244 c 1,28,-1
 421 1244 l 1,29,30
 437 1300 437 1300 468.5 1343.5 c 128,-1,31
 500 1387 500 1387 543.5 1416.5 c 128,-1,32
 587 1446 587 1446 639.5 1461 c 128,-1,33
 692 1476 692 1476 749 1476 c 0,34,35
 809 1476 809 1476 852.5 1453.5 c 128,-1,36
 896 1431 896 1431 923 1393 c 128,-1,37
 950 1355 950 1355 959.5 1305 c 128,-1,38
 969 1255 969 1255 962 1200 c 2,39,-1
 908 886 l 2,40,41
 893 797 893 797 904 705 c 1,42,-1
 846 704 l 1,0,1
582 746 m 0,43,44
 623 747 623 747 663.5 758.5 c 128,-1,45
 704 770 704 770 740 791 c 128,-1,46
 776 812 776 812 805.5 841 c 128,-1,47
 835 870 835 870 855 906 c 1,48,-1
 887 1078 l 1,49,-1
 721 1078 l 2,50,51
 675 1077 675 1077 626 1069.5 c 128,-1,52
 577 1062 577 1062 534 1042.5 c 128,-1,53
 491 1023 491 1023 459 989.5 c 128,-1,54
 427 956 427 956 417 904 c 0,55,56
 409 863 409 863 420 833.5 c 128,-1,57
 431 804 431 804 455 784.5 c 128,-1,58
 479 765 479 765 512.5 755.5 c 128,-1,59
 546 746 546 746 582 746 c 0,43,44
EndSplineSet
EndChar
StartChar: logicalnot
Encoding: 172 172 108
Width: 1202
Flags: W
LayerCount: 2
Back
Fore
SplineSet
936 396 m 1,0,-1
 883 396 l 1,1,-1
 935 700 l 1,2,-1
 219 700 l 1,3,-1
 226 753 l 1,4,-1
 996 753 l 1,5,-1
 936 396 l 1,0,-1
EndSplineSet
EndChar
StartChar: registered
Encoding: 174 174 109
Width: 1202
Flags: W
LayerCount: 2
Back
Fore
SplineSet
68 539 m 0,0,1
 85 652 85 652 137.5 753.5 c 128,-1,2
 190 855 190 855 270 931 c 128,-1,3
 350 1007 350 1007 453.5 1051.5 c 128,-1,4
 557 1096 557 1096 675 1096 c 0,5,6
 791 1096 791 1096 880.5 1050 c 128,-1,7
 970 1004 970 1004 1027.5 927 c 128,-1,8
 1085 850 1085 850 1108 749.5 c 128,-1,9
 1131 649 1131 649 1115 539 c 0,10,11
 1098 426 1098 426 1045.5 324 c 128,-1,12
 993 222 993 222 913 145.5 c 128,-1,13
 833 69 833 69 730 24 c 128,-1,14
 627 -21 627 -21 509 -21 c 0,15,16
 392 -21 392 -21 302.5 25.5 c 128,-1,17
 213 72 213 72 155.5 149.5 c 128,-1,18
 98 227 98 227 75 328 c 128,-1,19
 52 429 52 429 68 539 c 0,0,1
123 539 m 0,20,21
 107 441 107 441 126 350 c 128,-1,22
 145 259 145 259 195 189 c 128,-1,23
 245 119 245 119 324.5 76.5 c 128,-1,24
 404 34 404 34 509 34 c 0,25,26
 615 34 615 34 708 75 c 128,-1,27
 801 116 801 116 873.5 185.5 c 128,-1,28
 946 255 946 255 994.5 346.5 c 128,-1,29
 1043 438 1043 438 1060 539 c 0,30,31
 1076 636 1076 636 1057 727 c 128,-1,32
 1038 818 1038 818 988 887.5 c 128,-1,33
 938 957 938 957 859 999 c 128,-1,34
 780 1041 780 1041 675 1041 c 0,35,36
 569 1041 569 1041 475.5 1000.5 c 128,-1,37
 382 960 382 960 309.5 891.5 c 128,-1,38
 237 823 237 823 188 732 c 128,-1,39
 139 641 139 641 123 539 c 0,20,21
452 498 m 1,40,-1
 411 236 l 1,41,-1
 358 236 l 1,42,-1
 453 846 l 1,43,-1
 645 846 l 2,44,45
 684 844 684 844 720 832.5 c 128,-1,46
 756 821 756 821 781.5 799 c 128,-1,47
 807 777 807 777 819.5 744 c 128,-1,48
 832 711 832 711 825 668 c 0,49,50
 820 635 820 635 805.5 610 c 128,-1,51
 791 585 791 585 769.5 566.5 c 128,-1,52
 748 548 748 548 721.5 535 c 128,-1,53
 695 522 695 522 666 514 c 1,54,-1
 777 235 l 1,55,-1
 721 235 l 1,56,-1
 617 498 l 1,57,-1
 452 498 l 1,40,-1
460 550 m 1,58,-1
 609 550 l 2,59,60
 637 551 637 551 663.5 559 c 128,-1,61
 690 567 690 567 712 581.5 c 128,-1,62
 734 596 734 596 749.5 617.5 c 128,-1,63
 765 639 765 639 771 669 c 0,64,65
 777 700 777 700 768.5 722.5 c 128,-1,66
 760 745 760 745 741.5 760 c 128,-1,67
 723 775 723 775 697.5 782 c 128,-1,68
 672 789 672 789 645 791 c 2,69,-1
 498 791 l 1,70,-1
 460 550 l 1,58,-1
EndSplineSet
EndChar
StartChar: macron
Encoding: 175 175 110
AltUni2: 0002c9.ffffffff.0
Width: 1202
Flags: W
LayerCount: 2
Back
Fore
SplineSet
1027 1403 m 1,0,-1
 418 1403 l 1,1,-1
 424 1456 l 1,2,-1
 1034 1456 l 1,3,-1
 1027 1403 l 1,0,-1
EndSplineSet
EndChar
StartChar: degree
Encoding: 176 176 111
Width: 1202
Flags: W
LayerCount: 2
Back
Fore
SplineSet
478 1236 m 0,0,1
 485 1283 485 1283 509.5 1326 c 128,-1,2
 534 1369 534 1369 570 1402.5 c 128,-1,3
 606 1436 606 1436 651 1456 c 128,-1,4
 696 1476 696 1476 745 1476 c 0,5,6
 792 1476 792 1476 830 1455 c 128,-1,7
 868 1434 868 1434 893.5 1400.5 c 128,-1,8
 919 1367 919 1367 930 1324 c 128,-1,9
 941 1281 941 1281 934 1236 c 0,10,11
 927 1189 927 1189 903 1146.5 c 128,-1,12
 879 1104 879 1104 844 1071.5 c 128,-1,13
 809 1039 809 1039 764.5 1019 c 128,-1,14
 720 999 720 999 672 999 c 256,15,16
 624 999 624 999 585 1019 c 128,-1,17
 546 1039 546 1039 520 1072 c 128,-1,18
 494 1105 494 1105 482.5 1147.5 c 128,-1,19
 471 1190 471 1190 478 1236 c 0,0,1
533 1236 m 0,20,21
 526 1201 526 1201 533 1168.5 c 128,-1,22
 540 1136 540 1136 558.5 1111 c 128,-1,23
 577 1086 577 1086 606 1070.5 c 128,-1,24
 635 1055 635 1055 672 1055 c 256,25,26
 709 1055 709 1055 743.5 1070 c 128,-1,27
 778 1085 778 1085 805.5 1109.5 c 128,-1,28
 833 1134 833 1134 852 1167 c 128,-1,29
 871 1200 871 1200 878 1236 c 0,30,31
 885 1270 885 1270 879 1303 c 128,-1,32
 873 1336 873 1336 855.5 1362 c 128,-1,33
 838 1388 838 1388 810 1404 c 128,-1,34
 782 1420 782 1420 745 1420 c 0,35,36
 707 1420 707 1420 671.5 1405 c 128,-1,37
 636 1390 636 1390 607.5 1364.5 c 128,-1,38
 579 1339 579 1339 559.5 1305.5 c 128,-1,39
 540 1272 540 1272 533 1236 c 0,20,21
EndSplineSet
EndChar
StartChar: plusminus
Encoding: 177 177 112
Width: 1202
Flags: W
LayerCount: 2
Back
Fore
SplineSet
666 805 m 1,0,-1
 1072 805 l 1,1,-1
 1065 751 l 1,2,-1
 658 751 l 1,3,-1
 586 289 l 1,4,-1
 533 289 l 1,5,-1
 604 751 l 1,6,-1
 175 751 l 1,7,-1
 182 805 l 1,8,-1
 612 805 l 1,9,-1
 684 1267 l 1,10,-1
 738 1267 l 1,11,-1
 666 805 l 1,0,-1
926 -1 m 1,12,-1
 114 -1 l 1,13,-1
 122 53 l 1,14,-1
 933 53 l 1,15,-1
 926 -1 l 1,12,-1
EndSplineSet
EndChar
StartChar: twosuperior
Encoding: 178 178 113
Width: 1202
Flags: W
LayerCount: 2
Back
Fore
SplineSet
897 667 m 1,0,-1
 369 667 l 1,1,-1
 376 711 l 1,2,-1
 705 1006 l 2,3,4
 733 1031 733 1031 764 1057.5 c 128,-1,5
 795 1084 795 1084 822.5 1114 c 128,-1,6
 850 1144 850 1144 870.5 1177.5 c 128,-1,7
 891 1211 891 1211 899 1250 c 256,8,9
 907 1289 907 1289 897.5 1320 c 128,-1,10
 888 1351 888 1351 866.5 1372.5 c 128,-1,11
 845 1394 845 1394 813 1406 c 128,-1,12
 781 1418 781 1418 744 1418 c 0,13,14
 652 1418 652 1418 589 1366 c 128,-1,15
 526 1314 526 1314 499 1230 c 1,16,-1
 444 1230 l 1,17,18
 458 1282 458 1282 485.5 1325.5 c 128,-1,19
 513 1369 513 1369 552 1400.5 c 128,-1,20
 591 1432 591 1432 639.5 1449.5 c 128,-1,21
 688 1467 688 1467 743 1467 c 0,22,23
 790 1467 790 1467 831.5 1452 c 128,-1,24
 873 1437 873 1437 903 1409 c 128,-1,25
 933 1381 933 1381 947 1341 c 128,-1,26
 961 1301 961 1301 953 1251 c 0,27,28
 945 1206 945 1206 922 1166 c 128,-1,29
 899 1126 899 1126 867.5 1090.5 c 128,-1,30
 836 1055 836 1055 800.5 1023.5 c 128,-1,31
 765 992 765 992 733 964 c 2,32,-1
 446 716 l 1,33,-1
 904 716 l 1,34,-1
 897 667 l 1,0,-1
EndSplineSet
EndChar
StartChar: threesuperior
Encoding: 179 179 114
Width: 1202
Flags: W
LayerCount: 2
Back
Fore
SplineSet
609 1092 m 1,0,-1
 676 1092 l 2,1,2
 714 1093 714 1093 754 1102.5 c 128,-1,3
 794 1112 794 1112 828.5 1131 c 128,-1,4
 863 1150 863 1150 888.5 1179.5 c 128,-1,5
 914 1209 914 1209 923 1251 c 0,6,7
 931 1291 931 1291 920.5 1321.5 c 128,-1,8
 910 1352 910 1352 886.5 1373 c 128,-1,9
 863 1394 863 1394 830 1405.5 c 128,-1,10
 797 1417 797 1417 761 1417 c 0,11,12
 676 1417 676 1417 613.5 1372 c 128,-1,13
 551 1327 551 1327 523 1249 c 1,14,-1
 469 1249 l 1,15,16
 483 1299 483 1299 511 1339 c 128,-1,17
 539 1379 539 1379 576.5 1407 c 128,-1,18
 614 1435 614 1435 660.5 1450.5 c 128,-1,19
 707 1466 707 1466 759 1466 c 0,20,21
 806 1466 806 1466 849.5 1451 c 128,-1,22
 893 1436 893 1436 924 1408 c 128,-1,23
 955 1380 955 1380 970 1339.5 c 128,-1,24
 985 1299 985 1299 976 1248 c 0,25,26
 970 1211 970 1211 952 1182.5 c 128,-1,27
 934 1154 934 1154 908.5 1132 c 128,-1,28
 883 1110 883 1110 851.5 1094.5 c 128,-1,29
 820 1079 820 1079 787 1068 c 1,30,31
 821 1058 821 1058 850 1041 c 128,-1,32
 879 1024 879 1024 899 1000.5 c 128,-1,33
 919 977 919 977 927.5 946 c 128,-1,34
 936 915 936 915 930 877 c 0,35,36
 922 824 922 824 893.5 782.5 c 128,-1,37
 865 741 865 741 824 713 c 128,-1,38
 783 685 783 685 733.5 670 c 128,-1,39
 684 655 684 655 634 655 c 0,40,41
 581 655 581 655 535.5 670 c 128,-1,42
 490 685 490 685 457 714 c 128,-1,43
 424 743 424 743 405.5 785.5 c 128,-1,44
 387 828 387 828 388 883 c 1,45,-1
 441 883 l 1,46,47
 439 839 439 839 453 805.5 c 128,-1,48
 467 772 467 772 492.5 749.5 c 128,-1,49
 518 727 518 727 554 715 c 128,-1,50
 590 703 590 703 632 703 c 0,51,52
 672 703 672 703 712.5 714 c 128,-1,53
 753 725 753 725 786.5 746.5 c 128,-1,54
 820 768 820 768 844 800.5 c 128,-1,55
 868 833 868 833 876 876 c 0,56,57
 885 924 885 924 869 955.5 c 128,-1,58
 853 987 853 987 822.5 1006 c 128,-1,59
 792 1025 792 1025 752 1033.5 c 128,-1,60
 712 1042 712 1042 674 1043 c 2,61,-1
 602 1043 l 1,62,-1
 609 1092 l 1,0,-1
EndSplineSet
EndChar
StartChar: acute
Encoding: 180 180 115
Width: 1202
Flags: W
LayerCount: 2
Back
Fore
SplineSet
794 1515 m 1,0,-1
 862 1514 l 1,1,-1
 637 1251 l 1,2,-1
 576 1252 l 1,3,-1
 794 1515 l 1,0,-1
EndSplineSet
EndChar
StartChar: mu
Encoding: 181 181 116
Width: 1202
Flags: W
LayerCount: 2
Back
Fore
SplineSet
351 1082 m 1,0,-1
 241 440 l 2,1,2
 234 396 234 396 232 349 c 128,-1,3
 230 302 230 302 235.5 257 c 128,-1,4
 241 212 241 212 256 171.5 c 128,-1,5
 271 131 271 131 298 101 c 128,-1,6
 325 71 325 71 365 52.5 c 128,-1,7
 405 34 405 34 462 34 c 0,8,9
 550 34 550 34 622 66 c 128,-1,10
 694 98 694 98 748.5 153 c 128,-1,11
 803 208 803 208 839.5 280.5 c 128,-1,12
 876 353 876 353 894 434 c 2,13,-1
 1006 1082 l 1,14,-1
 1060 1082 l 1,15,-1
 874 0 l 1,16,-1
 822 0 l 1,17,-1
 861 220 l 1,18,19
 829 167 829 167 788 122.5 c 128,-1,20
 747 78 747 78 698 46.5 c 128,-1,21
 649 15 649 15 592 -2.5 c 128,-1,22
 535 -20 535 -20 471 -20 c 0,23,24
 375 -20 375 -20 303 30 c 128,-1,25
 231 80 231 80 196 168 c 1,26,-1
 93 -416 l 1,27,-1
 42 -416 l 1,28,-1
 300 1082 l 1,29,-1
 351 1082 l 1,0,-1
EndSplineSet
EndChar
StartChar: paragraph
Encoding: 182 182 117
Width: 1202
Flags: W
LayerCount: 2
Back
Fore
SplineSet
741 0 m 1,0,-1
 831 520 l 1,1,-1
 715 520 l 2,2,3
 615 522 615 522 533.5 557.5 c 128,-1,4
 452 593 452 593 398 655 c 128,-1,5
 344 717 344 717 320.5 802 c 128,-1,6
 297 887 297 887 314 988 c 0,7,8
 331 1091 331 1091 381 1176 c 128,-1,9
 431 1261 431 1261 504.5 1322.5 c 128,-1,10
 578 1384 578 1384 671 1419 c 128,-1,11
 764 1454 764 1454 867 1456 c 2,12,-1
 1047 1456 l 1,13,-1
 795 0 l 1,14,-1
 741 0 l 1,0,-1
EndSplineSet
EndChar
StartChar: periodcentered
Encoding: 183 183 118
Width: 1202
Flags: W
LayerCount: 2
Back
Fore
SplineSet
566 708 m 0,0,1
 567 718 567 718 573 727.5 c 128,-1,2
 579 737 579 737 587.5 744.5 c 128,-1,3
 596 752 596 752 606.5 757 c 128,-1,4
 617 762 617 762 627 762 c 0,5,6
 649 761 649 761 663.5 743 c 128,-1,7
 678 725 678 725 675 704 c 0,8,9
 673 694 673 694 667 684.5 c 128,-1,10
 661 675 661 675 652.5 667.5 c 128,-1,11
 644 660 644 660 633.5 655.5 c 128,-1,12
 623 651 623 651 613 651 c 0,13,14
 592 652 592 652 577.5 669.5 c 128,-1,15
 563 687 563 687 566 708 c 0,0,1
EndSplineSet
EndChar
StartChar: cedilla
Encoding: 184 184 119
Width: 1202
Flags: W
LayerCount: 2
Back
Fore
SplineSet
496 0 m 1,0,-1
 470 -77 l 1,1,2
 504 -83 504 -83 533 -96 c 128,-1,3
 562 -109 562 -109 582 -129.5 c 128,-1,4
 602 -150 602 -150 611.5 -179 c 128,-1,5
 621 -208 621 -208 615 -246 c 0,6,7
 607 -300 607 -300 575 -335.5 c 128,-1,8
 543 -371 543 -371 498.5 -392 c 128,-1,9
 454 -413 454 -413 402.5 -422.5 c 128,-1,10
 351 -432 351 -432 305 -435 c 1,11,-1
 306 -386 l 1,12,13
 341 -384 341 -384 382 -377 c 128,-1,14
 423 -370 423 -370 459.5 -354.5 c 128,-1,15
 496 -339 496 -339 524 -312.5 c 128,-1,16
 552 -286 552 -286 561 -245 c 0,17,18
 569 -208 569 -208 554.5 -185 c 128,-1,19
 540 -162 540 -162 514.5 -149 c 128,-1,20
 489 -136 489 -136 457.5 -130 c 128,-1,21
 426 -124 426 -124 399 -120 c 1,22,-1
 443 0 l 1,23,-1
 496 0 l 1,0,-1
EndSplineSet
EndChar
StartChar: onesuperior
Encoding: 185 185 120
Width: 1202
Flags: W
LayerCount: 2
Back
Fore
SplineSet
718 665 m 1,0,-1
 665 665 l 1,1,-1
 789 1385 l 1,2,-1
 536 1307 l 1,3,-1
 543 1359 l 1,4,-1
 842 1456 l 1,5,-1
 853 1456 l 1,6,-1
 718 665 l 1,0,-1
EndSplineSet
EndChar
StartChar: ordmasculine
Encoding: 186 186 121
Width: 1202
Flags: W
LayerCount: 2
Back
Fore
SplineSet
393 1141 m 2,0,1
 405 1205 405 1205 435 1265.5 c 128,-1,2
 465 1326 465 1326 510 1372.5 c 128,-1,3
 555 1419 555 1419 613.5 1447.5 c 128,-1,4
 672 1476 672 1476 743 1476 c 0,5,6
 813 1476 813 1476 863 1447 c 128,-1,7
 913 1418 913 1418 943.5 1371 c 128,-1,8
 974 1324 974 1324 984.5 1264 c 128,-1,9
 995 1204 995 1204 986 1141 c 2,10,-1
 967 1024 l 2,11,12
 955 959 955 959 925 899 c 128,-1,13
 895 839 895 839 850.5 792.5 c 128,-1,14
 806 746 806 746 747 718 c 128,-1,15
 688 690 688 690 618 690 c 256,16,17
 548 690 548 690 498 718.5 c 128,-1,18
 448 747 448 747 417.5 794 c 128,-1,19
 387 841 387 841 376 901 c 128,-1,20
 365 961 365 961 374 1024 c 2,21,-1
 393 1141 l 2,0,1
427 1024 m 2,22,23
 419 972 419 972 425 921.5 c 128,-1,24
 431 871 431 871 454 831.5 c 128,-1,25
 477 792 477 792 517.5 768 c 128,-1,26
 558 744 558 744 618 744 c 0,27,28
 677 744 677 744 726 767.5 c 128,-1,29
 775 791 775 791 812.5 830 c 128,-1,30
 850 869 850 869 875.5 919.5 c 128,-1,31
 901 970 901 970 912 1024 c 2,32,-1
 934 1141 l 2,33,34
 942 1192 942 1192 935.5 1242.5 c 128,-1,35
 929 1293 929 1293 906 1332.5 c 128,-1,36
 883 1372 883 1372 842.5 1397 c 128,-1,37
 802 1422 802 1422 743 1422 c 256,38,39
 684 1422 684 1422 634.5 1398.5 c 128,-1,40
 585 1375 585 1375 547.5 1335.5 c 128,-1,41
 510 1296 510 1296 484.5 1245.5 c 128,-1,42
 459 1195 459 1195 448 1141 c 2,43,-1
 427 1024 l 2,22,23
EndSplineSet
EndChar
StartChar: questiondown
Encoding: 191 191 126
Width: 1202
Flags: W
LayerCount: 2
Back
Fore
SplineSet
664 694 m 1,0,1
 655 648 655 648 641 608.5 c 128,-1,2
 627 569 627 569 606.5 533.5 c 128,-1,3
 586 498 586 498 559 466 c 128,-1,4
 532 434 532 434 496 403 c 0,5,6
 446 360 446 360 398 314.5 c 128,-1,7
 350 269 350 269 310 218 c 128,-1,8
 270 167 270 167 241 109 c 128,-1,9
 212 51 212 51 200 -17 c 0,10,11
 189 -79 189 -79 198 -135.5 c 128,-1,12
 207 -192 207 -192 236.5 -234.5 c 128,-1,13
 266 -277 266 -277 314.5 -302.5 c 128,-1,14
 363 -328 363 -328 430 -328 c 0,15,16
 499 -328 499 -328 555.5 -303.5 c 128,-1,17
 612 -279 612 -279 656 -237 c 128,-1,18
 700 -195 700 -195 731 -139.5 c 128,-1,19
 762 -84 762 -84 779 -22 c 1,20,-1
 833 -22 l 1,21,22
 816 -96 816 -96 781 -161 c 128,-1,23
 746 -226 746 -226 695 -275 c 128,-1,24
 644 -324 644 -324 577.5 -352.5 c 128,-1,25
 511 -381 511 -381 431 -381 c 0,26,27
 353 -381 353 -381 294.5 -351 c 128,-1,28
 236 -321 236 -321 199 -270.5 c 128,-1,29
 162 -220 162 -220 148 -154 c 128,-1,30
 134 -88 134 -88 146 -15 c 0,31,32
 158 59 158 59 189 123 c 128,-1,33
 220 187 220 187 263.5 243.5 c 128,-1,34
 307 300 307 300 359.5 350 c 128,-1,35
 412 400 412 400 468 445 c 0,36,37
 530 496 530 496 562 556 c 128,-1,38
 594 616 594 616 610 695 c 1,39,-1
 664 694 l 1,0,1
639 1048 m 0,40,41
 640 1058 640 1058 646.5 1067.5 c 128,-1,42
 653 1077 653 1077 662 1084.5 c 128,-1,43
 671 1092 671 1092 681.5 1096.5 c 128,-1,44
 692 1101 692 1101 702 1101 c 0,45,46
 723 1100 723 1100 737.5 1082.5 c 128,-1,47
 752 1065 752 1065 749 1044 c 0,48,49
 747 1034 747 1034 741 1024.5 c 128,-1,50
 735 1015 735 1015 726.5 1007.5 c 128,-1,51
 718 1000 718 1000 707.5 995 c 128,-1,52
 697 990 697 990 687 990 c 0,53,54
 666 991 666 991 651 1009 c 128,-1,55
 636 1027 636 1027 639 1048 c 0,40,41
EndSplineSet
EndChar
StartChar: AE
Encoding: 198 198 127
Width: 1202
Flags: W
LayerCount: 2
Back
Fore
SplineSet
1012 0 m 1,0,-1
 547 0 l 1,1,-1
 611 425 l 1,2,-1
 253 425 l 1,3,-1
 26 0 l 1,4,-1
 -29 0 l 1,5,-1
 750 1456 l 1,6,-1
 1225 1456 l 1,7,-1
 1218 1402 l 1,8,-1
 803 1402 l 1,9,-1
 711 786 l 1,10,-1
 1060 786 l 1,11,-1
 1053 732 l 1,12,-1
 704 732 l 1,13,-1
 603 54 l 1,14,-1
 1019 54 l 1,15,-1
 1012 0 l 1,0,-1
281 478 m 1,16,-1
 618 478 l 1,17,-1
 748 1349 l 1,18,-1
 281 478 l 1,16,-1
EndSplineSet
EndChar
StartChar: Eth
Encoding: 208 208 486
Width: 1232
Flags: W
LayerCount: 2
Back
Fore
SplineSet
119 0 m 1,0,-1
 243 713 l 1,1,-1
 -23 713 l 1,2,-1
 -15 767 l 1,3,-1
 252 767 l 1,4,-1
 372 1456 l 1,5,-1
 723 1456 l 2,6,7
 807 1454 807 1454 874 1426 c 128,-1,8
 941 1398 941 1398 992 1351.5 c 128,-1,9
 1043 1305 1043 1305 1077.5 1243 c 128,-1,10
 1112 1181 1112 1181 1131 1111 c 128,-1,11
 1150 1041 1150 1041 1153 965.5 c 128,-1,12
 1156 890 1156 890 1145 817 c 2,13,-1
 1115 639 l 2,14,15
 1101 562 1101 562 1072 485 c 128,-1,16
 1043 408 1043 408 1000.5 337.5 c 128,-1,17
 958 267 958 267 903.5 206.5 c 128,-1,18
 849 146 849 146 783 101 c 128,-1,19
 717 56 717 56 641 29 c 128,-1,20
 565 2 565 2 480 0 c 2,21,-1
 119 0 l 1,0,-1
548 713 m 1,22,-1
 295 713 l 1,23,-1
 181 54 l 1,24,-1
 480 54 l 2,25,26
 557 56 557 56 626 81 c 128,-1,27
 695 106 695 106 755 147.5 c 128,-1,28
 815 189 815 189 865 244.5 c 128,-1,29
 915 300 915 300 954 364.5 c 128,-1,30
 993 429 993 429 1019.5 499 c 128,-1,31
 1046 569 1046 569 1060 639 c 2,32,-1
 1092 820 l 2,33,34
 1102 885 1102 885 1100 953 c 128,-1,35
 1098 1021 1098 1021 1082.5 1085 c 128,-1,36
 1067 1149 1067 1149 1037.5 1205.5 c 128,-1,37
 1008 1262 1008 1262 963.5 1305 c 128,-1,38
 919 1348 919 1348 859 1374 c 128,-1,39
 799 1400 799 1400 723 1402 c 2,40,-1
 415 1402 l 1,41,-1
 305 767 l 1,42,-1
 556 767 l 1,43,-1
 548 713 l 1,22,-1
EndSplineSet
Substitution2: "'smcp' Lowercase to Small Capitals lookup 0 subtable" Eth.smcp
EndChar
StartChar: multiply
Encoding: 215 215 128
Width: 1202
Flags: W
LayerCount: 2
Back
Fore
SplineSet
107 38 m 1,0,-1
 549 433 l 1,1,-1
 265 795 l 1,2,-1
 307 832 l 1,3,-1
 589 469 l 1,4,-1
 999 832 l 1,5,-1
 1034 791 l 1,6,-1
 623 426 l 1,7,-1
 930 34 l 1,8,-1
 888 -1 l 1,9,-1
 583 389 l 1,10,-1
 143 -1 l 1,11,-1
 107 38 l 1,0,-1
EndSplineSet
EndChar
StartChar: Oslash
Encoding: 216 216 129
Width: 1202
Flags: W
LayerCount: 2
Back
Fore
SplineSet
1046 619 m 2,0,1
 1033 549 1033 549 1009.5 474 c 128,-1,2
 986 399 986 399 950.5 328 c 128,-1,3
 915 257 915 257 868.5 194 c 128,-1,4
 822 131 822 131 764 83.5 c 128,-1,5
 706 36 706 36 635.5 8 c 128,-1,6
 565 -20 565 -20 483 -20 c 0,7,8
 394 -20 394 -20 330.5 13 c 128,-1,9
 267 46 267 46 223 102 c 1,10,-1
 93 -74 l 1,11,-1
 27 -73 l 1,12,-1
 192 149 l 1,13,14
 163 199 163 199 146.5 258 c 128,-1,15
 130 317 130 317 123 378.5 c 128,-1,16
 116 440 116 440 118 501.5 c 128,-1,17
 120 563 120 563 129 619 c 2,18,-1
 166 837 l 2,19,20
 179 907 179 907 203 982 c 128,-1,21
 227 1057 227 1057 262 1128 c 128,-1,22
 297 1199 297 1199 344 1262 c 128,-1,23
 391 1325 391 1325 449.5 1373 c 128,-1,24
 508 1421 508 1421 578 1448.5 c 128,-1,25
 648 1476 648 1476 731 1476 c 0,26,27
 788 1476 788 1476 834.5 1461.5 c 128,-1,28
 881 1447 881 1447 918.5 1421.5 c 128,-1,29
 956 1396 956 1396 984.5 1361 c 128,-1,30
 1013 1326 1013 1326 1033 1284 c 1,31,-1
 1189 1494 l 1,32,-1
 1255 1493 l 1,33,-1
 1057 1227 l 1,34,35
 1073 1181 1073 1181 1081.5 1131 c 128,-1,36
 1090 1081 1090 1081 1093 1031 c 128,-1,37
 1096 981 1096 981 1093 931.5 c 128,-1,38
 1090 882 1090 882 1083 837 c 2,39,-1
 1046 619 l 2,0,1
183 619 m 2,40,41
 175 570 175 570 172 515 c 128,-1,42
 169 460 169 460 173 404 c 128,-1,43
 177 348 177 348 189.5 294 c 128,-1,44
 202 240 202 240 225 194 c 1,45,-1
 999 1238 l 1,46,47
 982 1278 982 1278 958 1311.5 c 128,-1,48
 934 1345 934 1345 901 1369.5 c 128,-1,49
 868 1394 868 1394 826 1408 c 128,-1,50
 784 1422 784 1422 731 1422 c 0,51,52
 657 1422 657 1422 593.5 1396.5 c 128,-1,53
 530 1371 530 1371 477.5 1327 c 128,-1,54
 425 1283 425 1283 383 1225 c 128,-1,55
 341 1167 341 1167 309 1102.5 c 128,-1,56
 277 1038 277 1038 255.5 970 c 128,-1,57
 234 902 234 902 222 839 c 2,58,-1
 183 619 l 2,40,41
1031 839 m 2,59,60
 1044 915 1044 915 1043 1004.5 c 128,-1,61
 1042 1094 1042 1094 1020 1177 c 1,62,-1
 255 144 l 1,63,64
 291 94 291 94 347 64 c 128,-1,65
 403 34 403 34 483 34 c 0,66,67
 558 34 558 34 621.5 59.5 c 128,-1,68
 685 85 685 85 737.5 129 c 128,-1,69
 790 173 790 173 832 231 c 128,-1,70
 874 289 874 289 905.5 354 c 128,-1,71
 937 419 937 419 958.5 487 c 128,-1,72
 980 555 980 555 992 619 c 2,73,-1
 1031 839 l 2,59,60
EndSplineSet
EndChar
StartChar: Thorn
Encoding: 222 222 130
Width: 1202
Flags: W
LayerCount: 2
Back
Fore
SplineSet
409 1456 m 1,0,-1
 355 1143 l 1,1,-1
 709 1143 l 2,2,3
 796 1141 796 1141 871 1112 c 128,-1,4
 946 1083 946 1083 997.5 1030.5 c 128,-1,5
 1049 978 1049 978 1073 903.5 c 128,-1,6
 1097 829 1097 829 1082 738 c 0,7,8
 1067 645 1067 645 1020 571 c 128,-1,9
 973 497 973 497 905.5 445 c 128,-1,10
 838 393 838 393 753.5 364.5 c 128,-1,11
 669 336 669 336 579 334 c 2,12,-1
 215 334 l 1,13,-1
 158 0 l 1,14,-1
 104 0 l 1,15,-1
 355 1456 l 1,16,-1
 409 1456 l 1,0,-1
346 1089 m 1,17,-1
 224 388 l 1,18,-1
 578 388 l 2,19,20
 656 390 656 390 730.5 414.5 c 128,-1,21
 805 439 805 439 865.5 484 c 128,-1,22
 926 529 926 529 969 592.5 c 128,-1,23
 1012 656 1012 656 1027 736 c 0,24,25
 1042 815 1042 815 1022.5 879.5 c 128,-1,26
 1003 944 1003 944 959 990 c 128,-1,27
 915 1036 915 1036 850 1061.5 c 128,-1,28
 785 1087 785 1087 710 1089 c 2,29,-1
 346 1089 l 1,17,-1
EndSplineSet
EndChar
StartChar: germandbls
Encoding: 223 223 131
Width: 1202
Flags: W
LayerCount: 2
Back
Fore
SplineSet
161 0 m 1,0,-1
 108 0 l 1,1,-1
 304 1143 l 2,2,3
 318 1218 318 1218 348.5 1288.5 c 128,-1,4
 379 1359 379 1359 427 1414 c 128,-1,5
 475 1469 475 1469 540 1502 c 128,-1,6
 605 1535 605 1535 689 1535 c 0,7,8
 746 1535 746 1535 797.5 1514 c 128,-1,9
 849 1493 849 1493 886 1456 c 128,-1,10
 923 1419 923 1419 941.5 1368 c 128,-1,11
 960 1317 960 1317 951 1257 c 0,12,13
 942 1198 942 1198 916 1145.5 c 128,-1,14
 890 1093 890 1093 860.5 1042 c 128,-1,15
 831 991 831 991 804.5 939 c 128,-1,16
 778 887 778 887 768 829 c 0,17,18
 759 777 759 777 774 732 c 128,-1,19
 789 687 789 687 816 646.5 c 128,-1,20
 843 606 843 606 875.5 566 c 128,-1,21
 908 526 908 526 934.5 483.5 c 128,-1,22
 961 441 961 441 975 393 c 128,-1,23
 989 345 989 345 980 287 c 0,24,25
 969 220 969 220 933.5 164 c 128,-1,26
 898 108 898 108 847 67 c 128,-1,27
 796 26 796 26 733 3 c 128,-1,28
 670 -20 670 -20 604 -21 c 0,29,30
 527 -22 527 -22 452.5 -0.5 c 128,-1,31
 378 21 378 21 318 69 c 1,32,-1
 348 116 l 1,33,34
 402 76 402 76 465.5 53.5 c 128,-1,35
 529 31 529 31 596 32 c 0,36,37
 654 33 654 33 709 52.5 c 128,-1,38
 764 72 764 72 809 106.5 c 128,-1,39
 854 141 854 141 885.5 189.5 c 128,-1,40
 917 238 917 238 928 296 c 0,41,42
 938 351 938 351 924.5 397 c 128,-1,43
 911 443 911 443 884.5 484 c 128,-1,44
 858 525 858 525 825.5 563.5 c 128,-1,45
 793 602 793 602 766 643 c 128,-1,46
 739 684 739 684 723.5 730 c 128,-1,47
 708 776 708 776 716 831 c 0,48,49
 724 890 724 890 749 942.5 c 128,-1,50
 774 995 774 995 803 1046 c 128,-1,51
 832 1097 832 1097 858 1149 c 128,-1,52
 884 1201 884 1201 893 1259 c 0,53,54
 900 1305 900 1305 887.5 1345 c 128,-1,55
 875 1385 875 1385 848 1415 c 128,-1,56
 821 1445 821 1445 782.5 1462.5 c 128,-1,57
 744 1480 744 1480 699 1481 c 0,58,59
 626 1482 626 1482 568.5 1454 c 128,-1,60
 511 1426 511 1426 468.5 1378.5 c 128,-1,61
 426 1331 426 1331 398.5 1269.5 c 128,-1,62
 371 1208 371 1208 358 1143 c 2,63,-1
 161 0 l 1,0,-1
EndSplineSet
Substitution2: "'smcp' Lowercase to Small Capitals lookup 0 subtable" Germandbls.smcp
EndChar
StartChar: ae
Encoding: 230 230 132
Width: 1202
Flags: W
LayerCount: 2
Back
Fore
SplineSet
764 -20 m 0,0,1
 665 -20 665 -20 601 35 c 128,-1,2
 537 90 537 90 517 184 c 1,3,4
 490 143 490 143 456.5 106.5 c 128,-1,5
 423 70 423 70 383 41.5 c 128,-1,6
 343 13 343 13 297 -3.5 c 128,-1,7
 251 -20 251 -20 200 -20 c 0,8,9
 137 -20 137 -20 94 7 c 128,-1,10
 51 34 51 34 26 77.5 c 128,-1,11
 1 121 1 121 -6.5 175 c 128,-1,12
 -14 229 -14 229 -5 284 c 0,13,14
 6 353 6 353 36 415 c 128,-1,15
 66 477 66 477 112.5 524 c 128,-1,16
 159 571 159 571 220 599.5 c 128,-1,17
 281 628 281 628 354 630 c 2,18,-1
 551 630 l 1,19,-1
 584 820 l 2,20,21
 592 867 592 867 588.5 908.5 c 128,-1,22
 585 950 585 950 567 980.5 c 128,-1,23
 549 1011 549 1011 514 1029 c 128,-1,24
 479 1047 479 1047 425 1047 c 0,25,26
 375 1048 375 1048 331 1032.5 c 128,-1,27
 287 1017 287 1017 252 988.5 c 128,-1,28
 217 960 217 960 193.5 920 c 128,-1,29
 170 880 170 880 160 831 c 1,30,-1
 108 832 l 1,31,32
 118 892 118 892 146 941.5 c 128,-1,33
 174 991 174 991 215.5 1026.5 c 128,-1,34
 257 1062 257 1062 310 1082 c 128,-1,35
 363 1102 363 1102 425 1102 c 0,36,37
 525 1102 525 1102 582.5 1049 c 128,-1,38
 640 996 640 996 640 896 c 1,39,40
 664 938 664 938 694.5 975 c 128,-1,41
 725 1012 725 1012 762 1040 c 128,-1,42
 799 1068 799 1068 843 1085 c 128,-1,43
 887 1102 887 1102 938 1102 c 0,44,45
 1017 1102 1017 1102 1066.5 1066.5 c 128,-1,46
 1116 1031 1116 1031 1140.5 975 c 128,-1,47
 1165 919 1165 919 1169 851.5 c 128,-1,48
 1173 784 1173 784 1163 720 c 2,49,-1
 1136 577 l 1,50,-1
 597 577 l 1,51,-1
 566 400 l 2,52,53
 556 341 556 341 557.5 277 c 128,-1,54
 559 213 559 213 579.5 159 c 128,-1,55
 600 105 600 105 644 70 c 128,-1,56
 688 35 688 35 764 35 c 0,57,58
 802 35 802 35 836.5 45.5 c 128,-1,59
 871 56 871 56 902.5 74 c 128,-1,60
 934 92 934 92 963 115 c 128,-1,61
 992 138 992 138 1018 164 c 1,62,-1
 1041 120 l 1,63,64
 985 60 985 60 917 20 c 128,-1,65
 849 -20 849 -20 764 -20 c 0,0,1
199 32 m 0,66,67
 245 32 245 32 287 48.5 c 128,-1,68
 329 65 329 65 365 91.5 c 128,-1,69
 401 118 401 118 430.5 153 c 128,-1,70
 460 188 460 188 481 226 c 1,71,-1
 482 230 l 2,72,73
 482 229 482 229 483 229 c 2,74,-1
 505 356 l 2,75,76
 506 367 506 367 507 378 c 128,-1,77
 508 389 508 389 510 400 c 2,78,-1
 541 575 l 1,79,-1
 356 575 l 2,80,81
 294 573 294 573 242.5 548.5 c 128,-1,82
 191 524 191 524 151.5 483.5 c 128,-1,83
 112 443 112 443 85.5 390.5 c 128,-1,84
 59 338 59 338 48 280 c 0,85,86
 40 237 40 237 43.5 193 c 128,-1,87
 47 149 47 149 64 113 c 128,-1,88
 81 77 81 77 114 54.5 c 128,-1,89
 147 32 147 32 199 32 c 0,66,67
603 632 m 1,90,-1
 1096 632 l 1,91,-1
 1111 724 l 2,92,93
 1118 775 1118 775 1117 832 c 128,-1,94
 1116 889 1116 889 1098.5 937 c 128,-1,95
 1081 985 1081 985 1043 1016.5 c 128,-1,96
 1005 1048 1005 1048 938 1048 c 0,97,98
 860 1048 860 1048 804 1008.5 c 128,-1,99
 748 969 748 969 709 909 c 128,-1,100
 670 849 670 849 645.5 778.5 c 128,-1,101
 621 708 621 708 606 645 c 2,102,-1
 603 632 l 1,90,-1
EndSplineSet
EndChar
StartChar: eth
Encoding: 240 240 133
Width: 1202
Flags: W
LayerCount: 2
Back
Fore
SplineSet
846 1300 m 1,0,1
 901 1224 901 1224 935 1142 c 128,-1,2
 969 1060 969 1060 985 973 c 128,-1,3
 1001 886 1001 886 999.5 796 c 128,-1,4
 998 706 998 706 983 615 c 2,5,-1
 970 535 l 2,6,7
 958 467 958 467 933.5 399.5 c 128,-1,8
 909 332 909 332 873 270 c 128,-1,9
 837 208 837 208 790 155.5 c 128,-1,10
 743 103 743 103 686 64 c 128,-1,11
 629 25 629 25 562 2.5 c 128,-1,12
 495 -20 495 -20 420 -20 c 0,13,14
 322 -20 322 -20 250 23 c 128,-1,15
 178 66 178 66 134 135 c 128,-1,16
 90 204 90 204 74 291 c 128,-1,17
 58 378 58 378 72 465 c 0,18,19
 88 566 88 566 134.5 655 c 128,-1,20
 181 744 181 744 251 810 c 128,-1,21
 321 876 321 876 411.5 914.5 c 128,-1,22
 502 953 502 953 608 953 c 0,23,24
 659 953 659 953 708.5 942.5 c 128,-1,25
 758 932 758 932 801.5 910 c 128,-1,26
 845 888 845 888 881.5 854.5 c 128,-1,27
 918 821 918 821 944 776 c 1,28,29
 951 913 951 913 916 1039 c 128,-1,30
 881 1165 881 1165 796 1273 c 1,31,-1
 545 1149 l 1,32,-1
 522 1199 l 1,33,-1
 756 1315 l 1,34,35
 687 1388 687 1388 602.5 1439 c 128,-1,36
 518 1490 518 1490 425 1528 c 1,37,-1
 451 1576 l 1,38,39
 551 1534 551 1534 641 1477.5 c 128,-1,40
 731 1421 731 1421 806 1342 c 1,41,-1
 1047 1461 l 1,42,-1
 1071 1411 l 1,43,-1
 846 1300 l 1,0,1
930 617 m 2,44,45
 933 634 933 634 935.5 649.5 c 128,-1,46
 938 665 938 665 940 682 c 1,47,48
 924 735 924 735 890 775 c 128,-1,49
 856 815 856 815 811 841.5 c 128,-1,50
 766 868 766 868 713.5 881.5 c 128,-1,51
 661 895 661 895 608 895 c 0,52,53
 515 895 515 895 434 861.5 c 128,-1,54
 353 828 353 828 290.5 769.5 c 128,-1,55
 228 711 228 711 186 632.5 c 128,-1,56
 144 554 144 554 128 465 c 0,57,58
 114 389 114 389 126.5 313 c 128,-1,59
 139 237 139 237 176.5 175.5 c 128,-1,60
 214 114 214 114 276 76 c 128,-1,61
 338 38 338 38 424 38 c 0,62,63
 492 38 492 38 551.5 58 c 128,-1,64
 611 78 611 78 661.5 113 c 128,-1,65
 712 148 712 148 753.5 195.5 c 128,-1,66
 795 243 795 243 827 298.5 c 128,-1,67
 859 354 859 354 881 414 c 128,-1,68
 903 474 903 474 915 535 c 2,69,-1
 930 617 l 2,44,45
EndSplineSet
Substitution2: "'smcp' Lowercase to Small Capitals lookup 0 subtable" Eth.smcp
EndChar
StartChar: divide
Encoding: 247 247 134
Width: 1202
Flags: W
LayerCount: 2
Back
Fore
SplineSet
1097 686 m 1,0,-1
 127 686 l 1,1,-1
 134 738 l 1,2,-1
 1104 738 l 1,3,-1
 1097 686 l 1,0,-1
636 1081 m 0,4,5
 637 1091 637 1091 643.5 1100.5 c 128,-1,6
 650 1110 650 1110 658.5 1117.5 c 128,-1,7
 667 1125 667 1125 677.5 1130 c 128,-1,8
 688 1135 688 1135 698 1135 c 0,9,10
 719 1134 719 1134 734 1116 c 128,-1,11
 749 1098 749 1098 746 1077 c 0,12,13
 744 1067 744 1067 738 1057.5 c 128,-1,14
 732 1048 732 1048 723 1040.5 c 128,-1,15
 714 1033 714 1033 703.5 1028.5 c 128,-1,16
 693 1024 693 1024 683 1024 c 0,17,18
 662 1025 662 1025 647.5 1042.5 c 128,-1,19
 633 1060 633 1060 636 1081 c 0,4,5
502 303 m 0,20,21
 503 313 503 313 509 322.5 c 128,-1,22
 515 332 515 332 523.5 339.5 c 128,-1,23
 532 347 532 347 542.5 352 c 128,-1,24
 553 357 553 357 563 357 c 0,25,26
 584 356 584 356 599 338 c 128,-1,27
 614 320 614 320 611 299 c 0,28,29
 609 289 609 289 603 279.5 c 128,-1,30
 597 270 597 270 588 262.5 c 128,-1,31
 579 255 579 255 568.5 250.5 c 128,-1,32
 558 246 558 246 548 246 c 0,33,34
 527 247 527 247 512.5 264.5 c 128,-1,35
 498 282 498 282 502 303 c 0,20,21
EndSplineSet
EndChar
StartChar: oslash
Encoding: 248 248 135
Width: 1202
Flags: W
LayerCount: 2
Back
Fore
SplineSet
129 562 m 2,0,1
 148 663 148 663 194.5 760 c 128,-1,2
 241 857 241 857 311.5 933 c 128,-1,3
 382 1009 382 1009 474.5 1055.5 c 128,-1,4
 567 1102 567 1102 678 1102 c 0,5,6
 728 1102 728 1102 770.5 1091.5 c 128,-1,7
 813 1081 813 1081 850 1062 c 1,8,-1
 950 1218 l 1,9,-1
 1014 1218 l 1,10,-1
 895 1034 l 1,11,12
 945 997 945 997 979.5 944 c 128,-1,13
 1014 891 1014 891 1033 828.5 c 128,-1,14
 1052 766 1052 766 1056 697.5 c 128,-1,15
 1060 629 1060 629 1050 562 c 2,16,-1
 1043 520 l 2,17,18
 1025 419 1025 419 978.5 322 c 128,-1,19
 932 225 932 225 861.5 149 c 128,-1,20
 791 73 791 73 698.5 26.5 c 128,-1,21
 606 -20 606 -20 495 -20 c 0,22,23
 423 -20 423 -20 366.5 0.5 c 128,-1,24
 310 21 310 21 266 56 c 1,25,-1
 137 -144 l 1,26,-1
 72 -144 l 1,27,-1
 226 95 l 1,28,29
 190 135 190 135 166 184.5 c 128,-1,30
 142 234 142 234 129.5 289 c 128,-1,31
 117 344 117 344 115 403 c 128,-1,32
 113 462 113 462 122 520 c 2,33,-1
 129 562 l 2,0,1
996 562 m 2,34,35
 1005 621 1005 621 1002.5 682 c 128,-1,36
 1000 743 1000 743 984 799.5 c 128,-1,37
 968 856 968 856 938.5 904.5 c 128,-1,38
 909 953 909 953 865 987 c 1,39,-1
 296 103 l 1,40,41
 334 71 334 71 383 52.5 c 128,-1,42
 432 34 432 34 495 34 c 0,43,44
 594 34 594 34 676.5 76.5 c 128,-1,45
 759 119 759 119 822.5 188 c 128,-1,46
 886 257 886 257 928 344 c 128,-1,47
 970 431 970 431 988 520 c 2,48,-1
 996 562 l 2,34,35
176 520 m 2,49,50
 168 470 168 470 168.5 418.5 c 128,-1,51
 169 367 169 367 178.5 318 c 128,-1,52
 188 269 188 269 207.5 224 c 128,-1,53
 227 179 227 179 257 143 c 1,54,-1
 820 1016 l 1,55,56
 790 1031 790 1031 754.5 1039.5 c 128,-1,57
 719 1048 719 1048 678 1048 c 0,58,59
 580 1048 580 1048 497 1005.5 c 128,-1,60
 414 963 414 963 350.5 894 c 128,-1,61
 287 825 287 825 244.5 738 c 128,-1,62
 202 651 202 651 184 562 c 2,63,-1
 176 520 l 2,49,50
EndSplineSet
EndChar
StartChar: thorn
Encoding: 254 254 136
Width: 1202
Flags: W
LayerCount: 2
Back
Fore
SplineSet
1007 531 m 2,0,1
 996 469 996 469 975.5 404 c 128,-1,2
 955 339 955 339 925.5 278 c 128,-1,3
 896 217 896 217 856 163 c 128,-1,4
 816 109 816 109 766 68.5 c 128,-1,5
 716 28 716 28 655 4 c 128,-1,6
 594 -20 594 -20 522 -20 c 0,7,8
 472 -20 472 -20 423.5 -8.5 c 128,-1,9
 375 3 375 3 331.5 25.5 c 128,-1,10
 288 48 288 48 252.5 82 c 128,-1,11
 217 116 217 116 193 161 c 1,12,-1
 92 -416 l 1,13,-1
 38 -416 l 1,14,-1
 374 1536 l 1,15,-1
 428 1536 l 1,16,-1
 314 898 l 1,17,18
 350 942 350 942 393.5 979.5 c 128,-1,19
 437 1017 437 1017 486.5 1044 c 128,-1,20
 536 1071 536 1071 591 1086.5 c 128,-1,21
 646 1102 646 1102 704 1102 c 0,22,23
 778 1102 778 1102 832 1077.5 c 128,-1,24
 886 1053 886 1053 923.5 1011 c 128,-1,25
 961 969 961 969 982.5 914 c 128,-1,26
 1004 859 1004 859 1013 798 c 128,-1,27
 1022 737 1022 737 1020.5 673.5 c 128,-1,28
 1019 610 1019 610 1010 552 c 2,29,-1
 1007 531 l 2,0,1
955 552 m 2,30,31
 963 601 963 601 966 657 c 128,-1,32
 969 713 969 713 963.5 768 c 128,-1,33
 958 823 958 823 941.5 873.5 c 128,-1,34
 925 924 925 924 894.5 962.5 c 128,-1,35
 864 1001 864 1001 818 1024 c 128,-1,36
 772 1047 772 1047 706 1048 c 0,37,38
 641 1048 641 1048 581 1028 c 128,-1,39
 521 1008 521 1008 468.5 973 c 128,-1,40
 416 938 416 938 373.5 890.5 c 128,-1,41
 331 843 331 843 300 788 c 1,42,-1
 206 258 l 1,43,44
 219 204 219 204 249.5 162 c 128,-1,45
 280 120 280 120 322.5 91.5 c 128,-1,46
 365 63 365 63 416.5 48.5 c 128,-1,47
 468 34 468 34 522 34 c 0,48,49
 587 35 587 35 641 56.5 c 128,-1,50
 695 78 695 78 739.5 115 c 128,-1,51
 784 152 784 152 818.5 201 c 128,-1,52
 853 250 853 250 879 305 c 128,-1,53
 905 360 905 360 923 418 c 128,-1,54
 941 476 941 476 951 531 c 2,55,-1
 955 552 l 2,30,31
EndSplineSet
EndChar
StartChar: Aogonek
Encoding: 260 260 549
Width: 1202
Flags: W
LayerCount: 2
Back
Fore
SplineSet
997 0 m 1,0,-1
 1001 -2 l 1,1,2
 969 -24 969 -24 931 -49 c 128,-1,3
 893 -74 893 -74 859 -103.5 c 128,-1,4
 825 -133 825 -133 799.5 -168.5 c 128,-1,5
 774 -204 774 -204 768 -246 c 256,6,7
 762 -288 762 -288 783.5 -313 c 128,-1,8
 805 -338 805 -338 847 -340 c 0,9,10
 880 -342 880 -342 909.5 -330 c 128,-1,11
 939 -318 939 -318 968 -303 c 1,12,-1
 978 -352 l 1,13,14
 947 -370 947 -370 914.5 -382.5 c 128,-1,15
 882 -395 882 -395 846 -395 c 0,16,17
 813 -395 813 -395 787 -383.5 c 128,-1,18
 761 -372 761 -372 743.5 -352.5 c 128,-1,19
 726 -333 726 -333 718 -305.5 c 128,-1,20
 710 -278 710 -278 715 -246 c 0,21,22
 721 -202 721 -202 745 -165 c 128,-1,23
 769 -128 769 -128 802 -96.5 c 128,-1,24
 835 -65 835 -65 873 -38.5 c 128,-1,25
 911 -12 911 -12 945 11 c 1,26,-1
 883 435 l 1,27,-1
 285 435 l 1,28,-1
 71 0 l 1,29,-1
 14 0 l 1,30,-1
 727 1456 l 1,31,-1
 788 1456 l 1,32,-1
 1001 0 l 1,33,-1
 997 0 l 1,0,-1
310 489 m 1,34,-1
 876 489 l 1,35,-1
 749 1379 l 1,36,-1
 310 489 l 1,34,-1
EndSplineSet
Substitution2: "'smcp' Lowercase to Small Capitals lookup 0 subtable" Aogonek.smcp
EndChar
StartChar: aogonek
Encoding: 261 261 550
Width: 1202
Flags: W
LayerCount: 2
Back
Fore
SplineSet
855 17 m 1,0,1
 854 65 854 65 859.5 110 c 128,-1,2
 865 155 865 155 874 202 c 1,3,4
 831 150 831 150 778.5 108.5 c 128,-1,5
 726 67 726 67 666.5 38.5 c 128,-1,6
 607 10 607 10 542 -5.5 c 128,-1,7
 477 -21 477 -21 409 -20 c 0,8,9
 346 -19 346 -19 289 1.5 c 128,-1,10
 232 22 232 22 191.5 60 c 128,-1,11
 151 98 151 98 130.5 152 c 128,-1,12
 110 206 110 206 121 274 c 0,13,14
 131 339 131 339 160.5 388.5 c 128,-1,15
 190 438 190 438 233.5 474.5 c 128,-1,16
 277 511 277 511 330.5 535.5 c 128,-1,17
 384 560 384 560 442 575 c 128,-1,18
 500 590 500 590 560 596.5 c 128,-1,19
 620 603 620 603 676 604 c 2,20,-1
 939 604 l 1,21,-1
 967 762 l 2,22,23
 977 831 977 831 959.5 884 c 128,-1,24
 942 937 942 937 904 973.5 c 128,-1,25
 866 1010 866 1010 810.5 1029 c 128,-1,26
 755 1048 755 1048 690 1048 c 256,27,28
 625 1048 625 1048 562.5 1031 c 128,-1,29
 500 1014 500 1014 446.5 980.5 c 128,-1,30
 393 947 393 947 353 898 c 128,-1,31
 313 849 313 849 294 785 c 1,32,-1
 240 787 l 1,33,34
 259 862 259 862 303.5 920.5 c 128,-1,35
 348 979 348 979 409 1019 c 128,-1,36
 470 1059 470 1059 542 1080.5 c 128,-1,37
 614 1102 614 1102 689 1102 c 0,38,39
 765 1102 765 1102 830.5 1079 c 128,-1,40
 896 1056 896 1056 942 1011.5 c 128,-1,41
 988 967 988 967 1009.5 903.5 c 128,-1,42
 1031 840 1031 840 1020 760 c 2,43,-1
 926 218 l 2,44,45
 918 165 918 165 918.5 113.5 c 128,-1,46
 919 62 919 62 919 9 c 1,47,-1
 918 0 l 1,48,-1
 891 0 l 1,49,-1
 895 -2 l 1,50,51
 863 -24 863 -24 825 -49 c 128,-1,52
 787 -74 787 -74 753 -103.5 c 128,-1,53
 719 -133 719 -133 693.5 -168.5 c 128,-1,54
 668 -204 668 -204 662 -246 c 256,55,56
 656 -288 656 -288 677.5 -313 c 128,-1,57
 699 -338 699 -338 741 -340 c 0,58,59
 774 -342 774 -342 803.5 -330 c 128,-1,60
 833 -318 833 -318 862 -303 c 1,61,-1
 872 -352 l 1,62,63
 841 -370 841 -370 808.5 -382.5 c 128,-1,64
 776 -395 776 -395 740 -395 c 0,65,66
 707 -395 707 -395 681 -383.5 c 128,-1,67
 655 -372 655 -372 637.5 -352.5 c 128,-1,68
 620 -333 620 -333 612 -305.5 c 128,-1,69
 604 -278 604 -278 609 -246 c 0,70,71
 615 -200 615 -200 641 -161.5 c 128,-1,72
 667 -123 667 -123 702 -91 c 128,-1,73
 737 -59 737 -59 776.5 -31.5 c 128,-1,74
 816 -4 816 -4 851 19 c 1,75,-1
 855 17 l 1,0,1
408 33 m 0,76,77
 481 31 481 31 549.5 49.5 c 128,-1,78
 618 68 618 68 678.5 102.5 c 128,-1,79
 739 137 739 137 791 185.5 c 128,-1,80
 843 234 843 234 884 293 c 1,81,-1
 930 549 l 1,82,-1
 679 549 l 2,83,84
 631 549 631 549 578 543.5 c 128,-1,85
 525 538 525 538 472 526 c 128,-1,86
 419 514 419 514 370 494 c 128,-1,87
 321 474 321 474 280.5 443 c 128,-1,88
 240 412 240 412 212 369.5 c 128,-1,89
 184 327 184 327 174 270 c 0,90,91
 164 215 164 215 181 171.5 c 128,-1,92
 198 128 198 128 231.5 97.5 c 128,-1,93
 265 67 265 67 311.5 50.5 c 128,-1,94
 358 34 358 34 408 33 c 0,76,77
EndSplineSet
Substitution2: "'smcp' Lowercase to Small Capitals lookup 0 subtable" Aogonek.smcp
EndChar
StartChar: dcroat
Encoding: 273 273 995
Width: 1232
Flags: W
LayerCount: 2
Back
Fore
SplineSet
1273 1281 m 1,0,-1
 1093 1281 l 1,1,-1
 873 0 l 1,2,-1
 819 0 l 1,3,-1
 850 162 l 1,4,5
 816 122 816 122 774.5 88.5 c 128,-1,6
 733 55 733 55 685.5 31 c 128,-1,7
 638 7 638 7 587 -6.5 c 128,-1,8
 536 -20 536 -20 482 -20 c 0,9,10
 407 -20 407 -20 351.5 4 c 128,-1,11
 296 28 296 28 257 69.5 c 128,-1,12
 218 111 218 111 194 165.5 c 128,-1,13
 170 220 170 220 159 281.5 c 128,-1,14
 148 343 148 343 148.5 407 c 128,-1,15
 149 471 149 471 158 531 c 2,16,-1
 162 552 l 2,17,18
 173 617 173 617 194.5 683 c 128,-1,19
 216 749 216 749 247.5 810 c 128,-1,20
 279 871 279 871 320.5 924.5 c 128,-1,21
 362 978 362 978 414.5 1017.5 c 128,-1,22
 467 1057 467 1057 530 1079.5 c 128,-1,23
 593 1102 593 1102 668 1102 c 0,24,25
 719 1102 719 1102 765.5 1087 c 128,-1,26
 812 1072 812 1072 851 1045 c 128,-1,27
 890 1018 890 1018 920.5 980 c 128,-1,28
 951 942 951 942 971 896 c 1,29,-1
 1038 1281 l 1,30,-1
 702 1281 l 1,31,-1
 710 1335 l 1,32,-1
 1048 1335 l 1,33,-1
 1083 1536 l 1,34,-1
 1137 1536 l 1,35,-1
 1102 1335 l 1,36,-1
 1281 1335 l 1,37,-1
 1273 1281 l 1,0,-1
214 531 m 2,38,39
 205 479 205 479 202.5 422 c 128,-1,40
 200 365 200 365 207.5 310 c 128,-1,41
 215 255 215 255 233 205.5 c 128,-1,42
 251 156 251 156 283.5 118 c 128,-1,43
 316 80 316 80 364.5 57.5 c 128,-1,44
 413 35 413 35 480 34 c 0,45,46
 538 34 538 34 593.5 50 c 128,-1,47
 649 66 649 66 698.5 95.5 c 128,-1,48
 748 125 748 125 789.5 165.5 c 128,-1,49
 831 206 831 206 861 255 c 1,50,-1
 956 790 l 1,51,52
 947 845 947 845 922.5 892.5 c 128,-1,53
 898 940 898 940 860.5 974.5 c 128,-1,54
 823 1009 823 1009 774.5 1028.5 c 128,-1,55
 726 1048 726 1048 668 1048 c 0,56,57
 568 1048 568 1048 491.5 1003 c 128,-1,58
 415 958 415 958 359.5 886.5 c 128,-1,59
 304 815 304 815 269 726.5 c 128,-1,60
 234 638 234 638 218 552 c 2,61,-1
 214 531 l 2,38,39
EndSplineSet
Substitution2: "'smcp' Lowercase to Small Capitals lookup 0 subtable" Dcroat.smcp
EndChar
StartChar: Eogonek
Encoding: 280 280 567
Width: 1202
Flags: W
LayerCount: 2
Back
Fore
SplineSet
945 722 m 1,0,-1
 287 722 l 1,1,-1
 171 54 l 1,2,-1
 919 54 l 1,3,-1
 912 0 l 1,4,-1
 780 0 l 1,5,-1
 784 -2 l 1,6,7
 752 -24 752 -24 714 -49 c 128,-1,8
 676 -74 676 -74 642 -103.5 c 128,-1,9
 608 -133 608 -133 582.5 -168.5 c 128,-1,10
 557 -204 557 -204 551 -246 c 256,11,12
 545 -288 545 -288 566.5 -313 c 128,-1,13
 588 -338 588 -338 630 -340 c 0,14,15
 663 -342 663 -342 692.5 -330 c 128,-1,16
 722 -318 722 -318 751 -303 c 1,17,-1
 761 -352 l 1,18,19
 730 -370 730 -370 697.5 -382.5 c 128,-1,20
 665 -395 665 -395 629 -395 c 0,21,22
 596 -395 596 -395 570 -383.5 c 128,-1,23
 544 -372 544 -372 526.5 -352.5 c 128,-1,24
 509 -333 509 -333 501 -305.5 c 128,-1,25
 493 -278 493 -278 498 -246 c 0,26,27
 504 -205 504 -205 525.5 -169.5 c 128,-1,28
 547 -134 547 -134 577 -104 c 128,-1,29
 607 -74 607 -74 642.5 -48 c 128,-1,30
 678 -22 678 -22 711 0 c 1,31,-1
 109 0 l 1,32,-1
 361 1456 l 1,33,-1
 1162 1456 l 1,34,-1
 1155 1402 l 1,35,-1
 405 1402 l 1,36,-1
 296 776 l 1,37,-1
 952 776 l 1,38,-1
 945 722 l 1,0,-1
EndSplineSet
Substitution2: "'smcp' Lowercase to Small Capitals lookup 0 subtable" Eogonek.smcp
EndChar
StartChar: eogonek
Encoding: 281 281 568
Width: 1202
Flags: W
LayerCount: 2
Back
Fore
SplineSet
536 -20 m 0,0,1
 464 -20 464 -20 404 2 c 128,-1,2
 344 24 344 24 297 62 c 128,-1,3
 250 100 250 100 217 151.5 c 128,-1,4
 184 203 184 203 164.5 262.5 c 128,-1,5
 145 322 145 322 139.5 387.5 c 128,-1,6
 134 453 134 453 144 518 c 2,7,-1
 152 562 l 2,8,9
 164 628 164 628 189 693.5 c 128,-1,10
 214 759 214 759 251 819 c 128,-1,11
 288 879 288 879 335.5 931 c 128,-1,12
 383 983 383 983 440 1021 c 128,-1,13
 497 1059 497 1059 562 1080.5 c 128,-1,14
 627 1102 627 1102 700 1102 c 0,15,16
 796 1102 796 1102 866 1062.5 c 128,-1,17
 936 1023 936 1023 979.5 958 c 128,-1,18
 1023 893 1023 893 1038.5 810 c 128,-1,19
 1054 727 1054 727 1042 640 c 2,20,-1
 1032 577 l 1,21,-1
 211 577 l 1,22,-1
 208 562 l 1,23,-1
 199 518 l 2,24,25
 184 432 184 432 198 345.5 c 128,-1,26
 212 259 212 259 255 190 c 128,-1,27
 298 121 298 121 368.5 77.5 c 128,-1,28
 439 34 439 34 535 33 c 0,29,30
 638 32 638 32 726 72 c 128,-1,31
 814 112 814 112 888 181 c 1,32,-1
 925 152 l 1,33,34
 863 89 863 89 794 49 c 1,35,-1
 796 48 l 1,36,37
 764 26 764 26 726 1 c 128,-1,38
 688 -24 688 -24 654 -53.5 c 128,-1,39
 620 -83 620 -83 594.5 -118.5 c 128,-1,40
 569 -154 569 -154 563 -196 c 256,41,42
 557 -238 557 -238 578.5 -263 c 128,-1,43
 600 -288 600 -288 642 -290 c 0,44,45
 675 -292 675 -292 704.5 -280 c 128,-1,46
 734 -268 734 -268 763 -253 c 1,47,-1
 773 -302 l 1,48,49
 742 -320 742 -320 709.5 -332.5 c 128,-1,50
 677 -345 677 -345 641 -345 c 0,51,52
 608 -345 608 -345 582 -333.5 c 128,-1,53
 556 -322 556 -322 538.5 -302.5 c 128,-1,54
 521 -283 521 -283 513 -255.5 c 128,-1,55
 505 -228 505 -228 510 -196 c 0,56,57
 518 -138 518 -138 555 -92.5 c 128,-1,58
 592 -47 592 -47 640 -9 c 1,59,60
 614 -14 614 -14 588.5 -17 c 128,-1,61
 563 -20 563 -20 536 -20 c 0,0,1
701 1048 m 0,62,63
 611 1048 611 1048 535 1012 c 128,-1,64
 459 976 459 976 398.5 917.5 c 128,-1,65
 338 859 338 859 293.5 784 c 128,-1,66
 249 709 249 709 221 631 c 1,67,-1
 983 631 l 1,68,-1
 986 644 l 2,69,70
 1001 717 1001 717 988.5 789.5 c 128,-1,71
 976 862 976 862 939.5 919 c 128,-1,72
 903 976 903 976 842.5 1012 c 128,-1,73
 782 1048 782 1048 701 1048 c 0,62,63
EndSplineSet
Substitution2: "'smcp' Lowercase to Small Capitals lookup 0 subtable" Eogonek.smcp
EndChar
StartChar: Hbar
Encoding: 294 294 137
Width: 1202
Flags: W
LayerCount: 2
Back
Fore
SplineSet
1097 1081 m 1,0,-1
 1242 1081 l 1,1,-1
 1235 1028 l 1,2,-1
 1088 1028 l 1,3,-1
 911 0 l 1,4,-1
 860 0 l 1,5,-1
 985 722 l 1,6,-1
 238 722 l 1,7,-1
 113 0 l 1,8,-1
 62 0 l 1,9,-1
 239 1028 l 1,10,-1
 121 1028 l 1,11,-1
 128 1081 l 1,12,-1
 248 1081 l 1,13,-1
 313 1456 l 1,14,-1
 364 1456 l 1,15,-1
 299 1081 l 1,16,-1
 1046 1081 l 1,17,-1
 1111 1456 l 1,18,-1
 1162 1456 l 1,19,-1
 1097 1081 l 1,0,-1
994 776 m 1,20,-1
 1037 1028 l 1,21,-1
 290 1028 l 1,22,-1
 247 776 l 1,23,-1
 994 776 l 1,20,-1
EndSplineSet
EndChar
StartChar: hbar
Encoding: 295 295 487
Width: 1232
Flags: W
LayerCount: 2
Back
Fore
SplineSet
710 1281 m 1,0,-1
 407 1281 l 1,1,-1
 325 821 l 1,2,3
 361 879 361 879 407.5 930 c 128,-1,4
 454 981 454 981 509.5 1019 c 128,-1,5
 565 1057 565 1057 629 1079.5 c 128,-1,6
 693 1102 693 1102 764 1102 c 0,7,8
 853 1102 853 1102 913.5 1069 c 128,-1,9
 974 1036 974 1036 1008.5 980.5 c 128,-1,10
 1043 925 1043 925 1052.5 852 c 128,-1,11
 1062 779 1062 779 1050 700 c 2,12,-1
 930 0 l 1,13,-1
 875 0 l 1,14,-1
 996 700 l 2,15,16
 1007 767 1007 767 1001.5 830.5 c 128,-1,17
 996 894 996 894 969 942.5 c 128,-1,18
 942 991 942 991 891.5 1020.5 c 128,-1,19
 841 1050 841 1050 762 1049 c 0,20,21
 691 1048 691 1048 619.5 1019.5 c 128,-1,22
 548 991 548 991 485.5 943 c 128,-1,23
 423 895 423 895 376.5 832.5 c 128,-1,24
 330 770 330 770 309 702 c 1,25,-1
 188 0 l 1,26,-1
 133 0 l 1,27,-1
 354 1281 l 1,28,-1
 139 1281 l 1,29,-1
 147 1335 l 1,30,-1
 363 1335 l 1,31,-1
 398 1536 l 1,32,-1
 452 1536 l 1,33,-1
 416 1335 l 1,34,-1
 718 1335 l 1,35,-1
 710 1281 l 1,0,-1
EndSplineSet
EndChar
StartChar: Iogonek
Encoding: 302 302 587
Width: 1202
Flags: W
LayerCount: 2
Back
Fore
SplineSet
353 1456 m 1,0,-1
 1136 1456 l 1,1,-1
 1128 1400 l 1,2,-1
 758 1400 l 1,3,-1
 524 54 l 1,4,-1
 893 54 l 1,5,-1
 885 0 l 1,6,-1
 746 0 l 1,7,-1
 750 -2 l 1,8,9
 718 -24 718 -24 680 -49 c 128,-1,10
 642 -74 642 -74 608 -103.5 c 128,-1,11
 574 -133 574 -133 548.5 -168.5 c 128,-1,12
 523 -204 523 -204 517 -246 c 256,13,14
 511 -288 511 -288 532.5 -313 c 128,-1,15
 554 -338 554 -338 596 -340 c 0,16,17
 629 -342 629 -342 658.5 -330 c 128,-1,18
 688 -318 688 -318 717 -303 c 1,19,-1
 727 -352 l 1,20,21
 696 -370 696 -370 663.5 -382.5 c 128,-1,22
 631 -395 631 -395 595 -395 c 0,23,24
 562 -395 562 -395 536 -383.5 c 128,-1,25
 510 -372 510 -372 492.5 -352.5 c 128,-1,26
 475 -333 475 -333 467 -305.5 c 128,-1,27
 459 -278 459 -278 464 -246 c 0,28,29
 470 -205 470 -205 491.5 -169.5 c 128,-1,30
 513 -134 513 -134 543 -104 c 128,-1,31
 573 -74 573 -74 608.5 -48 c 128,-1,32
 644 -22 644 -22 677 0 c 1,33,-1
 102 0 l 1,34,-1
 110 54 l 1,35,-1
 466 54 l 1,36,-1
 700 1400 l 1,37,-1
 345 1400 l 1,38,-1
 353 1456 l 1,0,-1
EndSplineSet
Substitution2: "'smcp' Lowercase to Small Capitals lookup 0 subtable" Iogonek.smcp
EndChar
StartChar: iogonek
Encoding: 303 303 588
Width: 1202
Flags: W
LayerCount: 2
Back
Fore
SplineSet
314 1082 m 1,0,-1
 754 1082 l 1,1,-1
 576 54 l 1,2,-1
 947 54 l 1,3,-1
 940 0 l 1,4,-1
 563 0 l 1,5,-1
 567 -2 l 1,6,7
 535 -24 535 -24 497 -49 c 128,-1,8
 459 -74 459 -74 425 -103.5 c 128,-1,9
 391 -133 391 -133 365.5 -168.5 c 128,-1,10
 340 -204 340 -204 334 -246 c 256,11,12
 328 -288 328 -288 349.5 -313 c 128,-1,13
 371 -338 371 -338 413 -340 c 0,14,15
 446 -342 446 -342 475.5 -330 c 128,-1,16
 505 -318 505 -318 534 -303 c 1,17,-1
 544 -352 l 1,18,19
 513 -370 513 -370 480.5 -382.5 c 128,-1,20
 448 -395 448 -395 412 -395 c 0,21,22
 379 -395 379 -395 353 -383.5 c 128,-1,23
 327 -372 327 -372 309.5 -352.5 c 128,-1,24
 292 -333 292 -333 284 -305.5 c 128,-1,25
 276 -278 276 -278 281 -246 c 0,26,27
 287 -205 287 -205 308.5 -169.5 c 128,-1,28
 330 -134 330 -134 360 -104 c 128,-1,29
 390 -74 390 -74 425.5 -48 c 128,-1,30
 461 -22 461 -22 494 0 c 1,31,-1
 128 0 l 1,32,-1
 136 54 l 1,33,-1
 521 54 l 1,34,-1
 691 1028 l 1,35,-1
 307 1028 l 1,36,-1
 314 1082 l 1,0,-1
709 1391 m 0,37,38
 713 1423 713 1423 734 1443.5 c 128,-1,39
 755 1464 755 1464 787 1464 c 0,40,41
 821 1464 821 1464 836.5 1442 c 128,-1,42
 852 1420 852 1420 847 1389 c 0,43,44
 842 1359 842 1359 820.5 1338.5 c 128,-1,45
 799 1318 799 1318 767 1319 c 0,46,47
 735 1321 735 1321 719.5 1340.5 c 128,-1,48
 704 1360 704 1360 709 1391 c 0,37,38
EndSplineSet
Substitution2: "'smcp' Lowercase to Small Capitals lookup 0 subtable" Iogonek.smcp
EndChar
StartChar: dotlessi
Encoding: 305 305 138
Width: 1202
Flags: W
LayerCount: 2
Back
Fore
SplineSet
314 1082 m 1,0,-1
 754 1082 l 1,1,-1
 576 54 l 1,2,-1
 947 54 l 1,3,-1
 940 0 l 1,4,-1
 128 0 l 1,5,-1
 136 54 l 1,6,-1
 521 54 l 1,7,-1
 691 1028 l 1,8,-1
 307 1028 l 1,9,-1
 314 1082 l 1,0,-1
EndSplineSet
EndChar
StartChar: IJ
Encoding: 306 306 139
Width: 1202
Flags: W
LayerCount: 2
Back
Fore
SplineSet
95 0 m 1,0,-1
 41 0 l 1,1,-1
 292 1456 l 1,2,-1
 345 1456 l 1,3,-1
 95 0 l 1,0,-1
1152 1456 m 1,4,-1
 1206 1456 l 1,5,-1
 1014 341 l 2,6,7
 1000 261 1000 261 967.5 195 c 128,-1,8
 935 129 935 129 885.5 81.5 c 128,-1,9
 836 34 836 34 768.5 7.5 c 128,-1,10
 701 -19 701 -19 617 -19 c 0,11,12
 538 -19 538 -19 480.5 6 c 128,-1,13
 423 31 423 31 387 76 c 128,-1,14
 351 121 351 121 338 183.5 c 128,-1,15
 325 246 325 246 335 321 c 1,16,-1
 388 321 l 1,17,18
 378 256 378 256 386.5 203 c 128,-1,19
 395 150 395 150 423 112.5 c 128,-1,20
 451 75 451 75 499 55 c 128,-1,21
 547 35 547 35 616 35 c 0,22,23
 690 35 690 35 748 57 c 128,-1,24
 806 79 806 79 848.5 118.5 c 128,-1,25
 891 158 891 158 918.5 214.5 c 128,-1,26
 946 271 946 271 959 341 c 2,27,-1
 1152 1456 l 1,4,-1
EndSplineSet
EndChar
StartChar: ij
Encoding: 307 307 140
Width: 1202
Flags: W
LayerCount: 2
Back
Fore
SplineSet
739 1082 m 1,0,-1
 1055 1082 l 1,1,-1
 869 6 l 2,2,3
 853 -83 853 -83 815.5 -162.5 c 128,-1,4
 778 -242 778 -242 720.5 -302.5 c 128,-1,5
 663 -363 663 -363 586 -399.5 c 128,-1,6
 509 -436 509 -436 413 -437 c 0,7,8
 362 -438 362 -438 312.5 -433 c 128,-1,9
 263 -428 263 -428 213 -420 c 1,10,-1
 224 -373 l 1,11,12
 270 -379 270 -379 316.5 -382 c 128,-1,13
 363 -385 363 -385 409 -384 c 0,14,15
 495 -383 495 -383 563 -351.5 c 128,-1,16
 631 -320 631 -320 682 -267 c 128,-1,17
 733 -214 733 -214 766 -144 c 128,-1,18
 799 -74 799 -74 814 6 c 2,19,-1
 991 1028 l 1,20,-1
 731 1028 l 1,21,-1
 739 1082 l 1,0,-1
208 1082 m 1,22,-1
 534 1082 l 1,23,-1
 356 54 l 1,24,-1
 558 54 l 1,25,-1
 551 0 l 1,26,-1
 23 0 l 1,27,-1
 30 54 l 1,28,-1
 301 54 l 1,29,-1
 470 1028 l 1,30,-1
 201 1028 l 1,31,-1
 208 1082 l 1,22,-1
1003 1392 m 256,32,33
 1008 1424 1008 1424 1029 1444.5 c 128,-1,34
 1050 1465 1050 1465 1083 1465 c 256,35,36
 1116 1465 1116 1465 1131.5 1443 c 128,-1,37
 1147 1421 1147 1421 1142 1390 c 256,38,39
 1137 1359 1137 1359 1116 1340 c 128,-1,40
 1095 1321 1095 1321 1063 1320 c 0,41,42
 1030 1320 1030 1320 1014 1340 c 128,-1,43
 998 1360 998 1360 1003 1392 c 256,32,33
488 1391 m 0,44,45
 493 1423 493 1423 514 1443.5 c 128,-1,46
 535 1464 535 1464 567 1464 c 0,47,48
 601 1464 601 1464 616.5 1442 c 128,-1,49
 632 1420 632 1420 627 1389 c 0,50,51
 622 1359 622 1359 600.5 1338.5 c 128,-1,52
 579 1318 579 1318 547 1319 c 0,53,54
 515 1321 515 1321 499.5 1340.5 c 128,-1,55
 484 1360 484 1360 488 1391 c 0,44,45
EndSplineSet
EndChar
StartChar: kgreenlandic
Encoding: 312 312 141
Width: 1202
Flags: W
LayerCount: 2
Back
Fore
SplineSet
467 532 m 1,0,-1
 245 351 l 1,1,-1
 185 0 l 1,2,-1
 130 0 l 1,3,-1
 316 1082 l 1,4,-1
 371 1082 l 1,5,-1
 258 429 l 1,6,-1
 463 603 l 1,7,-1
 1029 1081 l 1,8,-1
 1101 1080 l 1,9,-1
 508 569 l 1,10,-1
 977 0 l 1,11,-1
 907 0 l 1,12,-1
 467 532 l 1,0,-1
EndSplineSet
EndChar
StartChar: Lslash
Encoding: 321 321 142
Width: 1202
Flags: W
LayerCount: 2
Back
Fore
SplineSet
363 801 m 1,0,-1
 695 901 l 1,1,-1
 687 845 l 1,2,-1
 353 745 l 1,3,-1
 234 54 l 1,4,-1
 979 54 l 1,5,-1
 972 0 l 1,6,-1
 169 0 l 1,7,-1
 295 727 l 1,8,-1
 66 659 l 1,9,-1
 74 715 l 1,10,-1
 305 784 l 1,11,-1
 421 1456 l 1,12,-1
 476 1456 l 1,13,-1
 363 801 l 1,0,-1
EndSplineSet
EndChar
StartChar: lslash
Encoding: 322 322 143
Width: 1202
Flags: W
LayerCount: 2
Back
Fore
SplineSet
393 1536 m 1,0,-1
 837 1536 l 1,1,-1
 716 842 l 1,2,-1
 1115 929 l 1,3,-1
 1101 871 l 1,4,-1
 706 785 l 1,5,-1
 580 54 l 1,6,-1
 947 54 l 1,7,-1
 940 0 l 1,8,-1
 128 0 l 1,9,-1
 136 54 l 1,10,-1
 525 54 l 1,11,-1
 650 773 l 1,12,-1
 246 685 l 1,13,-1
 260 743 l 1,14,-1
 660 830 l 1,15,-1
 773 1482 l 1,16,-1
 385 1482 l 1,17,-1
 393 1536 l 1,0,-1
EndSplineSet
EndChar
StartChar: Eng
Encoding: 330 330 144
Width: 1202
Flags: W
LayerCount: 2
Back
Fore
SplineSet
1152 1456 m 1,0,-1
 887 -89 l 2,1,2
 877 -144 877 -144 857 -205 c 128,-1,3
 837 -266 837 -266 803.5 -318 c 128,-1,4
 770 -370 770 -370 721 -403.5 c 128,-1,5
 672 -437 672 -437 605 -436 c 0,6,7
 581 -436 581 -436 558.5 -430 c 128,-1,8
 536 -424 536 -424 513 -416 c 1,9,-1
 532 -366 l 1,10,11
 550 -372 550 -372 568.5 -377.5 c 128,-1,12
 587 -383 587 -383 607 -383 c 0,13,14
 661 -383 661 -383 700 -353.5 c 128,-1,15
 739 -324 739 -324 765.5 -279.5 c 128,-1,16
 792 -235 792 -235 808 -184 c 128,-1,17
 824 -133 824 -133 833 -89 c 2,18,-1
 851 12 l 1,19,-1
 368 1348 l 1,20,-1
 134 0 l 1,21,-1
 84 0 l 1,22,-1
 334 1456 l 1,23,-1
 384 1456 l 1,24,-1
 383 1449 l 1,25,-1
 868 110 l 1,26,-1
 1102 1456 l 1,27,-1
 1152 1456 l 1,0,-1
EndSplineSet
EndChar
StartChar: eng
Encoding: 331 331 145
Width: 1202
Flags: W
LayerCount: 2
Back
Fore
SplineSet
309 842 m 1,0,1
 342 899 342 899 384.5 946.5 c 128,-1,2
 427 994 427 994 478 1028.5 c 128,-1,3
 529 1063 529 1063 589 1082.5 c 128,-1,4
 649 1102 649 1102 717 1102 c 0,5,6
 783 1102 783 1102 831 1082 c 128,-1,7
 879 1062 879 1062 911.5 1028 c 128,-1,8
 944 994 944 994 963 948.5 c 128,-1,9
 982 903 982 903 989.5 851.5 c 128,-1,10
 997 800 997 800 995 745 c 128,-1,11
 993 690 993 690 985 637 c 2,12,-1
 860 -89 l 2,13,14
 848 -154 848 -154 821.5 -216 c 128,-1,15
 795 -278 795 -278 753.5 -327 c 128,-1,16
 712 -376 712 -376 655.5 -406 c 128,-1,17
 599 -436 599 -436 526 -437 c 0,18,19
 493 -437 493 -437 460.5 -430.5 c 128,-1,20
 428 -424 428 -424 396 -416 c 1,21,-1
 415 -366 l 1,22,23
 443 -374 443 -374 470.5 -379.5 c 128,-1,24
 498 -385 498 -385 527 -384 c 0,25,26
 587 -383 587 -383 634 -357 c 128,-1,27
 681 -331 681 -331 715.5 -289 c 128,-1,28
 750 -247 750 -247 772 -194.5 c 128,-1,29
 794 -142 794 -142 805 -89 c 2,30,-1
 932 639 l 2,31,32
 939 683 939 683 942 730 c 128,-1,33
 945 777 945 777 940.5 822.5 c 128,-1,34
 936 868 936 868 922 909 c 128,-1,35
 908 950 908 950 882 980.5 c 128,-1,36
 856 1011 856 1011 815.5 1029.5 c 128,-1,37
 775 1048 775 1048 718 1048 c 0,38,39
 637 1048 637 1048 566.5 1016.5 c 128,-1,40
 496 985 496 985 439 932 c 128,-1,41
 382 879 382 879 342 810 c 128,-1,42
 302 741 302 741 283 666 c 1,43,-1
 167 0 l 1,44,-1
 114 0 l 1,45,-1
 300 1082 l 1,46,-1
 349 1082 l 1,47,-1
 311 852 l 1,48,-1
 309 842 l 1,0,1
EndSplineSet
EndChar
StartChar: OE
Encoding: 338 338 146
Width: 1202
Flags: W
LayerCount: 2
Back
Fore
SplineSet
1055 0 m 1,0,-1
 584 0 l 2,1,2
 530 -3 530 -3 476 -8 c 128,-1,3
 422 -13 422 -13 367 -11 c 0,4,5
 290 -9 290 -9 235.5 19 c 128,-1,6
 181 47 181 47 144.5 92.5 c 128,-1,7
 108 138 108 138 87.5 197 c 128,-1,8
 67 256 67 256 59 320.5 c 128,-1,9
 51 385 51 385 53.5 451 c 128,-1,10
 56 517 56 517 66 576 c 2,11,-1
 118 880 l 2,12,13
 130 945 130 945 150 1013 c 128,-1,14
 170 1081 170 1081 199.5 1145 c 128,-1,15
 229 1209 229 1209 269 1266.5 c 128,-1,16
 309 1324 309 1324 359.5 1367.5 c 128,-1,17
 410 1411 410 1411 472.5 1437 c 128,-1,18
 535 1463 535 1463 611 1466 c 0,19,20
 665 1468 665 1468 718.5 1463.5 c 128,-1,21
 772 1459 772 1459 827 1456 c 2,22,-1
 1306 1456 l 1,23,-1
 1298 1402 l 1,24,-1
 828 1402 l 1,25,-1
 719 776 l 1,26,-1
 1124 776 l 1,27,-1
 1116 722 l 1,28,-1
 710 722 l 1,29,-1
 594 54 l 1,30,-1
 1063 54 l 1,31,-1
 1055 0 l 1,0,-1
367 43 m 0,32,33
 411 41 411 41 454.5 42 c 128,-1,34
 498 43 498 43 542 47 c 1,35,-1
 783 1408 l 1,36,37
 741 1412 741 1412 698 1413 c 128,-1,38
 655 1414 655 1414 612 1412 c 0,39,40
 510 1407 510 1407 434.5 1357 c 128,-1,41
 359 1307 359 1307 306.5 1230.5 c 128,-1,42
 254 1154 254 1154 221.5 1062 c 128,-1,43
 189 970 189 970 173 882 c 2,44,-1
 120 576 l 2,45,46
 111 525 111 525 107 466 c 128,-1,47
 103 407 103 407 107.5 349 c 128,-1,48
 112 291 112 291 127.5 237 c 128,-1,49
 143 183 143 183 173 141 c 128,-1,50
 203 99 203 99 250.5 72.5 c 128,-1,51
 298 46 298 46 367 43 c 0,32,33
EndSplineSet
EndChar
StartChar: oe
Encoding: 339 339 147
Width: 1202
Flags: W
LayerCount: 2
Back
Fore
SplineSet
11 622 m 2,0,1
 20 673 20 673 36.5 728.5 c 128,-1,2
 53 784 53 784 76.5 837.5 c 128,-1,3
 100 891 100 891 132.5 938.5 c 128,-1,4
 165 986 165 986 206 1022.5 c 128,-1,5
 247 1059 247 1059 298 1080.5 c 128,-1,6
 349 1102 349 1102 410 1102 c 256,7,8
 471 1102 471 1102 516 1078.5 c 128,-1,9
 561 1055 561 1055 591 1016 c 128,-1,10
 621 977 621 977 637 926.5 c 128,-1,11
 653 876 653 876 658 821 c 1,12,13
 681 872 681 872 712 922 c 128,-1,14
 743 972 743 972 783 1012 c 128,-1,15
 823 1052 823 1052 873.5 1077 c 128,-1,16
 924 1102 924 1102 986 1102 c 0,17,18
 1040 1102 1040 1102 1079.5 1084 c 128,-1,19
 1119 1066 1119 1066 1145.5 1035 c 128,-1,20
 1172 1004 1172 1004 1187 964 c 128,-1,21
 1202 924 1202 924 1208 879 c 128,-1,22
 1214 834 1214 834 1212.5 788 c 128,-1,23
 1211 742 1211 742 1204 700 c 2,24,-1
 1176 557 l 1,25,-1
 644 557 l 1,26,-1
 623 440 l 2,27,28
 617 404 617 404 614 360.5 c 128,-1,29
 611 317 611 317 614.5 272 c 128,-1,30
 618 227 618 227 629.5 185 c 128,-1,31
 641 143 641 143 663 110 c 128,-1,32
 685 77 685 77 719 56.5 c 128,-1,33
 753 36 753 36 803 35 c 0,34,35
 840 34 840 34 874.5 43 c 128,-1,36
 909 52 909 52 941 67.5 c 128,-1,37
 973 83 973 83 1002.5 103.5 c 128,-1,38
 1032 124 1032 124 1061 145 c 1,39,-1
 1083 101 l 1,40,41
 1053 76 1053 76 1020.5 54 c 128,-1,42
 988 32 988 32 953 15.5 c 128,-1,43
 918 -1 918 -1 881 -10.5 c 128,-1,44
 844 -20 844 -20 804 -20 c 0,45,46
 745 -19 745 -19 702.5 5 c 128,-1,47
 660 29 660 29 631.5 68 c 128,-1,48
 603 107 603 107 587 156.5 c 128,-1,49
 571 206 571 206 567 258 c 1,50,51
 543 205 543 205 510.5 155.5 c 128,-1,52
 478 106 478 106 436.5 67 c 128,-1,53
 395 28 395 28 343 4 c 128,-1,54
 291 -20 291 -20 228 -20 c 0,55,56
 166 -20 166 -20 121.5 2.5 c 128,-1,57
 77 25 77 25 47 63 c 128,-1,58
 17 101 17 101 0.5 150 c 128,-1,59
 -16 199 -16 199 -22 252.5 c 128,-1,60
 -28 306 -28 306 -26 359.5 c 128,-1,61
 -24 413 -24 413 -17 460 c 2,62,-1
 11 622 l 2,0,1
37 460 m 2,63,64
 31 422 31 422 27.5 375.5 c 128,-1,65
 24 329 24 329 27 282 c 128,-1,66
 30 235 30 235 41.5 190 c 128,-1,67
 53 145 53 145 76 110.5 c 128,-1,68
 99 76 99 76 136 55 c 128,-1,69
 173 34 173 34 227 34 c 0,70,71
 280 34 280 34 324 53.5 c 128,-1,72
 368 73 368 73 403.5 106 c 128,-1,73
 439 139 439 139 466.5 182 c 128,-1,74
 494 225 494 225 514.5 272.5 c 128,-1,75
 535 320 535 320 549 368 c 128,-1,76
 563 416 563 416 571 460 c 2,77,-1
 600 622 l 2,78,79
 606 660 606 660 609.5 706.5 c 128,-1,80
 613 753 613 753 609.5 800 c 128,-1,81
 606 847 606 847 595 891.5 c 128,-1,82
 584 936 584 936 561 971 c 128,-1,83
 538 1006 538 1006 501 1027 c 128,-1,84
 464 1048 464 1048 411 1048 c 256,85,86
 358 1048 358 1048 314.5 1028.5 c 128,-1,87
 271 1009 271 1009 235 976 c 128,-1,88
 199 943 199 943 171 900 c 128,-1,89
 143 857 143 857 122.5 809.5 c 128,-1,90
 102 762 102 762 87.5 713.5 c 128,-1,91
 73 665 73 665 65 622 c 2,92,-1
 37 460 l 2,63,64
650 611 m 1,93,-1
 1137 611 l 1,94,-1
 1152 692 l 2,95,96
 1158 725 1158 725 1161 764 c 128,-1,97
 1164 803 1164 803 1160.5 842.5 c 128,-1,98
 1157 882 1157 882 1146.5 919 c 128,-1,99
 1136 956 1136 956 1115.5 984.5 c 128,-1,100
 1095 1013 1095 1013 1063.5 1030.5 c 128,-1,101
 1032 1048 1032 1048 987 1048 c 0,102,103
 935 1048 935 1048 892.5 1028 c 128,-1,104
 850 1008 850 1008 816 975 c 128,-1,105
 782 942 782 942 756 898.5 c 128,-1,106
 730 855 730 855 710 808 c 128,-1,107
 690 761 690 761 676 713.5 c 128,-1,108
 662 666 662 666 653 625 c 2,109,-1
 650 611 l 1,93,-1
EndSplineSet
EndChar
StartChar: Tbar
Encoding: 358 358 488
Width: 1202
Flags: W
LayerCount: 2
Back
Fore
SplineSet
901 847 m 1,0,-1
 669 847 l 1,1,-1
 523 0 l 1,2,-1
 469 0 l 1,3,-1
 616 847 l 1,4,-1
 330 847 l 1,5,-1
 338 901 l 1,6,-1
 626 901 l 1,7,-1
 713 1402 l 1,8,-1
 248 1402 l 1,9,-1
 256 1456 l 1,10,-1
 1238 1456 l 1,11,-1
 1230 1402 l 1,12,-1
 765 1402 l 1,13,-1
 678 901 l 1,14,-1
 909 901 l 1,15,-1
 901 847 l 1,0,-1
EndSplineSet
Substitution2: "'smcp' Lowercase to Small Capitals lookup 0 subtable" Tbar.smcp
EndChar
StartChar: tbar
Encoding: 359 359 489
Width: 1202
Flags: W
LayerCount: 2
Back
Fore
SplineSet
841 634 m 1,0,-1
 561 634 l 1,1,-1
 496 259 l 2,2,3
 487 201 487 201 500 159 c 128,-1,4
 513 117 513 117 542.5 89.5 c 128,-1,5
 572 62 572 62 616 48.5 c 128,-1,6
 660 35 660 35 714 34 c 0,7,8
 755 33 755 33 794.5 36 c 128,-1,9
 834 39 834 39 874 43 c 1,10,-1
 878 -9 l 1,11,12
 838 -16 838 -16 798.5 -18.5 c 128,-1,13
 759 -21 759 -21 719 -20 c 0,14,15
 652 -19 652 -19 596.5 -2.5 c 128,-1,16
 541 14 541 14 503 48 c 128,-1,17
 465 82 465 82 447.5 134.5 c 128,-1,18
 430 187 430 187 440 259 c 2,19,-1
 505 634 l 1,20,-1
 270 634 l 1,21,-1
 278 688 l 1,22,-1
 514 688 l 1,23,-1
 573 1027 l 1,24,-1
 266 1027 l 1,25,-1
 273 1082 l 1,26,-1
 582 1082 l 1,27,-1
 633 1374 l 1,28,-1
 690 1374 l 1,29,-1
 639 1082 l 1,30,-1
 1017 1082 l 1,31,-1
 1009 1027 l 1,32,-1
 630 1027 l 1,33,-1
 571 688 l 1,34,-1
 849 688 l 1,35,-1
 841 634 l 1,0,-1
EndSplineSet
Substitution2: "'smcp' Lowercase to Small Capitals lookup 0 subtable" Tbar.smcp
EndChar
StartChar: Uogonek
Encoding: 370 370 648
Width: 1202
Flags: W
LayerCount: 2
Back
Fore
SplineSet
1171 1456 m 1,0,-1
 1002 469 l 2,1,2
 989 400 989 400 962 333.5 c 128,-1,3
 935 267 935 267 895 208.5 c 128,-1,4
 855 150 855 150 803 102.5 c 128,-1,5
 751 55 751 55 689 25 c 1,6,7
 657 3 657 3 620.5 -21.5 c 128,-1,8
 584 -46 584 -46 551.5 -75 c 128,-1,9
 519 -104 519 -104 495 -138 c 128,-1,10
 471 -172 471 -172 465 -213 c 0,11,12
 459 -255 459 -255 480.5 -280 c 128,-1,13
 502 -305 502 -305 544 -307 c 0,14,15
 577 -309 577 -309 606.5 -297 c 128,-1,16
 636 -285 636 -285 665 -270 c 1,17,-1
 675 -319 l 1,18,19
 644 -337 644 -337 611.5 -349.5 c 128,-1,20
 579 -362 579 -362 543 -362 c 0,21,22
 510 -362 510 -362 484 -350.5 c 128,-1,23
 458 -339 458 -339 440.5 -319.5 c 128,-1,24
 423 -300 423 -300 415 -272.5 c 128,-1,25
 407 -245 407 -245 412 -213 c 0,26,27
 416 -182 416 -182 429.5 -154.5 c 128,-1,28
 443 -127 443 -127 462.5 -102.5 c 128,-1,29
 482 -78 482 -78 505.5 -56.5 c 128,-1,30
 529 -35 529 -35 555 -16 c 1,31,32
 541 -18 541 -18 525.5 -19 c 128,-1,33
 510 -20 510 -20 495 -20 c 0,34,35
 394 -20 394 -20 322.5 23 c 128,-1,36
 251 66 251 66 207.5 135.5 c 128,-1,37
 164 205 164 205 149 292.5 c 128,-1,38
 134 380 134 380 148 469 c 2,39,-1
 319 1456 l 1,40,-1
 370 1456 l 1,41,-1
 200 469 l 2,42,43
 188 392 188 392 199 314 c 128,-1,44
 210 236 210 236 246 174 c 128,-1,45
 282 112 282 112 344 73 c 128,-1,46
 406 34 406 34 495 34 c 256,47,48
 584 34 584 34 660 71.5 c 128,-1,49
 736 109 736 109 794.5 170 c 128,-1,50
 853 231 853 231 892 309.5 c 128,-1,51
 931 388 931 388 947 469 c 2,52,-1
 1119 1456 l 1,53,-1
 1171 1456 l 1,0,-1
EndSplineSet
Substitution2: "'smcp' Lowercase to Small Capitals lookup 0 subtable" Uogonek.smcp
EndChar
StartChar: uogonek
Encoding: 371 371 649
Width: 1202
Flags: W
LayerCount: 2
Back
Fore
SplineSet
882 0 m 1,0,-1
 886 -2 l 1,1,2
 854 -24 854 -24 816 -49 c 128,-1,3
 778 -74 778 -74 744 -103.5 c 128,-1,4
 710 -133 710 -133 684.5 -168.5 c 128,-1,5
 659 -204 659 -204 653 -246 c 256,6,7
 647 -288 647 -288 668.5 -313 c 128,-1,8
 690 -338 690 -338 732 -340 c 0,9,10
 765 -342 765 -342 794.5 -330 c 128,-1,11
 824 -318 824 -318 853 -303 c 1,12,-1
 863 -352 l 1,13,14
 832 -370 832 -370 799.5 -382.5 c 128,-1,15
 767 -395 767 -395 731 -395 c 0,16,17
 698 -395 698 -395 672 -383.5 c 128,-1,18
 646 -372 646 -372 628.5 -352.5 c 128,-1,19
 611 -333 611 -333 603 -305.5 c 128,-1,20
 595 -278 595 -278 600 -246 c 0,21,22
 606 -201 606 -201 630.5 -163.5 c 128,-1,23
 655 -126 655 -126 688.5 -94.5 c 128,-1,24
 722 -63 722 -63 760.5 -36.5 c 128,-1,25
 799 -10 799 -10 833 13 c 1,26,-1
 869 193 l 1,27,28
 797 91 797 91 692.5 35.5 c 128,-1,29
 588 -20 588 -20 461 -20 c 0,30,31
 371 -20 371 -20 310 15 c 128,-1,32
 249 50 249 50 214.5 108 c 128,-1,33
 180 166 180 166 171 240.5 c 128,-1,34
 162 315 162 315 174 395 c 2,35,-1
 292 1082 l 1,36,-1
 346 1082 l 1,37,-1
 227 393 l 2,38,39
 216 327 216 327 221.5 262.5 c 128,-1,40
 227 198 227 198 254 147.5 c 128,-1,41
 281 97 281 97 331 66 c 128,-1,42
 381 35 381 35 459 34 c 0,43,44
 528 34 528 34 596 54.5 c 128,-1,45
 664 75 664 75 722.5 114 c 128,-1,46
 781 153 781 153 825 208.5 c 128,-1,47
 869 264 869 264 889 333 c 1,48,-1
 1017 1082 l 1,49,-1
 1073 1082 l 1,50,-1
 887 0 l 1,51,-1
 882 0 l 1,0,-1
EndSplineSet
Substitution2: "'smcp' Lowercase to Small Capitals lookup 0 subtable" Uogonek.smcp
EndChar
StartChar: longs
Encoding: 383 383 148
Width: 1202
Flags: W
LayerCount: 2
Back
Fore
SplineSet
403 0 m 1,0,-1
 617 1236 l 2,1,2
 630 1307 630 1307 663.5 1365.5 c 128,-1,3
 697 1424 697 1424 746 1466 c 128,-1,4
 795 1508 795 1508 858 1532 c 128,-1,5
 921 1556 921 1556 994 1557 c 0,6,7
 1032 1558 1032 1558 1068.5 1552.5 c 128,-1,8
 1105 1547 1105 1547 1141 1539 c 1,9,-1
 1127 1489 l 1,10,11
 1094 1496 1094 1496 1061 1500 c 128,-1,12
 1028 1504 1028 1504 994 1503 c 0,13,14
 934 1502 934 1502 881.5 1482 c 128,-1,15
 829 1462 829 1462 787 1427 c 128,-1,16
 745 1392 745 1392 716 1343.5 c 128,-1,17
 687 1295 687 1295 674 1236 c 2,18,-1
 460 0 l 1,19,-1
 403 0 l 1,0,-1
EndSplineSet
EndChar
StartChar: florin
Encoding: 402 402 149
Width: 1202
Flags: W
LayerCount: 2
Back
Fore
SplineSet
1046 1027 m 1,0,-1
 688 1027 l 1,1,-1
 512 -89 l 2,2,3
 499 -162 499 -162 467 -225.5 c 128,-1,4
 435 -289 435 -289 385.5 -336 c 128,-1,5
 336 -383 336 -383 271.5 -410 c 128,-1,6
 207 -437 207 -437 130 -437 c 0,7,8
 96 -437 96 -437 62.5 -431 c 128,-1,9
 29 -425 29 -425 -4 -416 c 1,10,-1
 15 -366 l 1,11,12
 44 -374 44 -374 72.5 -378.5 c 128,-1,13
 101 -383 101 -383 131 -383 c 0,14,15
 196 -382 196 -382 250.5 -359.5 c 128,-1,16
 305 -337 305 -337 346.5 -297.5 c 128,-1,17
 388 -258 388 -258 415.5 -204.5 c 128,-1,18
 443 -151 443 -151 455 -89 c 2,19,-1
 628 1027 l 1,20,-1
 395 1027 l 1,21,-1
 402 1082 l 1,22,-1
 639 1082 l 1,23,-1
 664 1236 l 2,24,25
 677 1310 677 1310 712.5 1369.5 c 128,-1,26
 748 1429 748 1429 799.5 1470 c 128,-1,27
 851 1511 851 1511 917 1533.5 c 128,-1,28
 983 1556 983 1556 1057 1557 c 0,29,30
 1097 1557 1097 1557 1136 1552.5 c 128,-1,31
 1175 1548 1175 1548 1213 1540 c 1,32,-1
 1198 1489 l 1,33,34
 1163 1496 1163 1496 1128 1500 c 128,-1,35
 1093 1504 1093 1504 1058 1503 c 0,36,37
 997 1502 997 1502 941 1483.5 c 128,-1,38
 885 1465 885 1465 839.5 1430.5 c 128,-1,39
 794 1396 794 1396 762.5 1347 c 128,-1,40
 731 1298 731 1298 719 1236 c 2,41,-1
 696 1082 l 1,42,-1
 1053 1082 l 1,43,-1
 1046 1027 l 1,0,-1
EndSplineSet
EndChar
StartChar: Ohorn
Encoding: 416 416 150
Width: 1202
Flags: W
LayerCount: 2
Back
Fore
SplineSet
1058 619 m 2,0,1
 1045 549 1045 549 1021.5 474 c 128,-1,2
 998 399 998 399 962.5 328 c 128,-1,3
 927 257 927 257 880.5 194 c 128,-1,4
 834 131 834 131 776 83.5 c 128,-1,5
 718 36 718 36 647.5 8 c 128,-1,6
 577 -20 577 -20 495 -20 c 0,7,8
 412 -20 412 -20 351 9.5 c 128,-1,9
 290 39 290 39 247 88.5 c 128,-1,10
 204 138 204 138 178.5 202.5 c 128,-1,11
 153 267 153 267 141 338 c 128,-1,12
 129 409 129 409 130 481.5 c 128,-1,13
 131 554 131 554 141 619 c 2,14,-1
 178 837 l 2,15,16
 191 907 191 907 215 982 c 128,-1,17
 239 1057 239 1057 274 1128 c 128,-1,18
 309 1199 309 1199 356 1262 c 128,-1,19
 403 1325 403 1325 461.5 1373 c 128,-1,20
 520 1421 520 1421 590 1448.5 c 128,-1,21
 660 1476 660 1476 743 1476 c 0,22,23
 807 1476 807 1476 858.5 1458 c 128,-1,24
 910 1440 910 1440 949.5 1408.5 c 128,-1,25
 989 1377 989 1377 1017 1333.5 c 128,-1,26
 1045 1290 1045 1290 1064 1240 c 1,27,28
 1124 1249 1124 1249 1164.5 1276.5 c 128,-1,29
 1205 1304 1205 1304 1232.5 1344.5 c 128,-1,30
 1260 1385 1260 1385 1277 1435.5 c 128,-1,31
 1294 1486 1294 1486 1308 1541 c 1,32,-1
 1359 1540 l 1,33,34
 1348 1475 1348 1475 1327.5 1416.5 c 128,-1,35
 1307 1358 1307 1358 1274 1311.5 c 128,-1,36
 1241 1265 1241 1265 1193.5 1233 c 128,-1,37
 1146 1201 1146 1201 1081 1189 c 1,38,39
 1104 1103 1104 1103 1106 1010.5 c 128,-1,40
 1108 918 1108 918 1095 837 c 2,41,-1
 1058 619 l 2,0,1
1043 839 m 2,42,43
 1052 896 1052 896 1054.5 961.5 c 128,-1,44
 1057 1027 1057 1027 1049 1091.5 c 128,-1,45
 1041 1156 1041 1156 1020.5 1216 c 128,-1,46
 1000 1276 1000 1276 963.5 1321.5 c 128,-1,47
 927 1367 927 1367 872.5 1394.5 c 128,-1,48
 818 1422 818 1422 743 1422 c 0,49,50
 669 1422 669 1422 605.5 1396.5 c 128,-1,51
 542 1371 542 1371 489.5 1327 c 128,-1,52
 437 1283 437 1283 395 1225 c 128,-1,53
 353 1167 353 1167 321 1102.5 c 128,-1,54
 289 1038 289 1038 267.5 970 c 128,-1,55
 246 902 246 902 234 839 c 2,56,-1
 195 619 l 2,57,58
 186 562 186 562 183.5 496.5 c 128,-1,59
 181 431 181 431 189 366 c 128,-1,60
 197 301 197 301 217.5 241 c 128,-1,61
 238 181 238 181 274.5 135 c 128,-1,62
 311 89 311 89 365 61.5 c 128,-1,63
 419 34 419 34 495 34 c 0,64,65
 570 34 570 34 633.5 59.5 c 128,-1,66
 697 85 697 85 749.5 129 c 128,-1,67
 802 173 802 173 844 231 c 128,-1,68
 886 289 886 289 917.5 354 c 128,-1,69
 949 419 949 419 970.5 487 c 128,-1,70
 992 555 992 555 1004 619 c 2,71,-1
 1043 839 l 2,42,43
EndSplineSet
EndChar
StartChar: ohorn
Encoding: 417 417 151
Width: 1202
Flags: W
LayerCount: 2
Back
Fore
SplineSet
103 562 m 2,0,1
 122 663 122 663 168.5 760 c 128,-1,2
 215 857 215 857 285.5 933 c 128,-1,3
 356 1009 356 1009 448.5 1055.5 c 128,-1,4
 541 1102 541 1102 652 1102 c 0,5,6
 761 1102 761 1102 837 1055.5 c 128,-1,7
 913 1009 913 1009 960 934 c 1,8,-1
 963 953 l 1,9,10
 1020 958 1020 958 1060.5 976.5 c 128,-1,11
 1101 995 1101 995 1129.5 1026 c 128,-1,12
 1158 1057 1158 1057 1177 1099.5 c 128,-1,13
 1196 1142 1196 1142 1208 1195 c 1,14,-1
 1262 1195 l 1,15,16
 1249 1132 1249 1132 1227 1081 c 128,-1,17
 1205 1030 1205 1030 1170.5 992.5 c 128,-1,18
 1136 955 1136 955 1088.5 931.5 c 128,-1,19
 1041 908 1041 908 978 901 c 1,20,21
 1015 826 1015 826 1026.5 738 c 128,-1,22
 1038 650 1038 650 1024 562 c 2,23,-1
 1017 520 l 2,24,25
 999 419 999 419 952.5 322 c 128,-1,26
 906 225 906 225 835.5 149 c 128,-1,27
 765 73 765 73 672.5 26.5 c 128,-1,28
 580 -20 580 -20 469 -20 c 0,29,30
 395 -20 395 -20 336 2 c 128,-1,31
 277 24 277 24 232.5 62.5 c 128,-1,32
 188 101 188 101 157.5 153.5 c 128,-1,33
 127 206 127 206 110 266 c 128,-1,34
 93 326 93 326 89.5 391 c 128,-1,35
 86 456 86 456 96 520 c 2,36,-1
 103 562 l 2,0,1
150 520 m 2,37,38
 136 436 136 436 147.5 349.5 c 128,-1,39
 159 263 159 263 197.5 193 c 128,-1,40
 236 123 236 123 303 78.5 c 128,-1,41
 370 34 370 34 469 34 c 256,42,43
 568 34 568 34 650.5 76.5 c 128,-1,44
 733 119 733 119 796.5 188 c 128,-1,45
 860 257 860 257 902 344 c 128,-1,46
 944 431 944 431 962 520 c 2,47,-1
 970 562 l 2,48,49
 979 618 979 618 977 675.5 c 128,-1,50
 975 733 975 733 961.5 787 c 128,-1,51
 948 841 948 841 922.5 888.5 c 128,-1,52
 897 936 897 936 858.5 971.5 c 128,-1,53
 820 1007 820 1007 768.5 1027.5 c 128,-1,54
 717 1048 717 1048 652 1048 c 0,55,56
 554 1048 554 1048 471 1005.5 c 128,-1,57
 388 963 388 963 324.5 894 c 128,-1,58
 261 825 261 825 218.5 738 c 128,-1,59
 176 651 176 651 158 562 c 2,60,-1
 150 520 l 2,37,38
EndSplineSet
EndChar
StartChar: Uhorn
Encoding: 431 431 152
Width: 1202
Flags: W
LayerCount: 2
Back
Fore
SplineSet
1171 1456 m 1,0,-1
 1136 1254 l 1,1,2
 1190 1266 1190 1266 1228.5 1293.5 c 128,-1,3
 1267 1321 1267 1321 1294 1360 c 128,-1,4
 1321 1399 1321 1399 1338.5 1448 c 128,-1,5
 1356 1497 1356 1497 1369 1551 c 1,6,-1
 1421 1550 l 1,7,8
 1409 1482 1409 1482 1387 1423 c 128,-1,9
 1365 1364 1365 1364 1330 1317.5 c 128,-1,10
 1295 1271 1295 1271 1245 1240 c 128,-1,11
 1195 1209 1195 1209 1127 1198 c 1,12,-1
 1002 469 l 2,13,14
 985 376 985 376 941.5 287.5 c 128,-1,15
 898 199 898 199 833 131 c 128,-1,16
 768 63 768 63 682.5 21.5 c 128,-1,17
 597 -20 597 -20 495 -20 c 0,18,19
 394 -20 394 -20 322.5 23 c 128,-1,20
 251 66 251 66 207.5 135.5 c 128,-1,21
 164 205 164 205 149 292.5 c 128,-1,22
 134 380 134 380 148 469 c 2,23,-1
 319 1456 l 1,24,-1
 370 1456 l 1,25,-1
 200 469 l 2,26,27
 188 392 188 392 199 314 c 128,-1,28
 210 236 210 236 246 174 c 128,-1,29
 282 112 282 112 344 73 c 128,-1,30
 406 34 406 34 495 34 c 256,31,32
 584 34 584 34 660 71.5 c 128,-1,33
 736 109 736 109 794.5 170 c 128,-1,34
 853 231 853 231 892 309.5 c 128,-1,35
 931 388 931 388 947 469 c 2,36,-1
 1119 1456 l 1,37,-1
 1171 1456 l 1,0,-1
EndSplineSet
EndChar
StartChar: uhorn
Encoding: 432 432 153
Width: 1202
Flags: W
LayerCount: 2
Back
Fore
SplineSet
831 0 m 1,0,-1
 869 193 l 1,1,2
 797 91 797 91 692.5 35.5 c 128,-1,3
 588 -20 588 -20 461 -20 c 0,4,5
 371 -20 371 -20 310 15 c 128,-1,6
 249 50 249 50 214.5 108 c 128,-1,7
 180 166 180 166 171 240.5 c 128,-1,8
 162 315 162 315 174 395 c 2,9,-1
 292 1082 l 1,10,-1
 346 1082 l 1,11,-1
 227 393 l 2,12,13
 216 327 216 327 221.5 262.5 c 128,-1,14
 227 198 227 198 254 147.5 c 128,-1,15
 281 97 281 97 331 66 c 128,-1,16
 381 35 381 35 459 34 c 0,17,18
 528 34 528 34 596 54.5 c 128,-1,19
 664 75 664 75 722.5 114 c 128,-1,20
 781 153 781 153 825 208.5 c 128,-1,21
 869 264 869 264 889 333 c 1,22,-1
 1017 1082 l 1,23,-1
 1073 1082 l 1,24,-1
 1050 949 l 1,25,26
 1100 956 1100 956 1137.5 975.5 c 128,-1,27
 1175 995 1175 995 1202 1026 c 128,-1,28
 1229 1057 1229 1057 1247.5 1098 c 128,-1,29
 1266 1139 1266 1139 1278 1190 c 1,30,-1
 1333 1189 l 1,31,32
 1306 1061 1306 1061 1237 985 c 128,-1,33
 1168 909 1168 909 1040 894 c 1,34,-1
 887 0 l 1,35,-1
 831 0 l 1,0,-1
EndSplineSet
EndChar
StartChar: uni0237
Encoding: 567 567 154
Width: 1202
Flags: W
LayerCount: 2
Back
Fore
SplineSet
345 1082 m 1,0,-1
 846 1082 l 1,1,-1
 660 6 l 2,2,3
 644 -83 644 -83 607 -162.5 c 128,-1,4
 570 -242 570 -242 512.5 -302.5 c 128,-1,5
 455 -363 455 -363 378 -399.5 c 128,-1,6
 301 -436 301 -436 205 -437 c 0,7,8
 154 -438 154 -438 104.5 -433 c 128,-1,9
 55 -428 55 -428 4 -420 c 1,10,-1
 16 -373 l 1,11,12
 62 -379 62 -379 108 -382 c 128,-1,13
 154 -385 154 -385 201 -384 c 0,14,15
 287 -383 287 -383 355 -351.5 c 128,-1,16
 423 -320 423 -320 473.5 -267 c 128,-1,17
 524 -214 524 -214 557 -144 c 128,-1,18
 590 -74 590 -74 605 6 c 2,19,-1
 783 1028 l 1,20,-1
 338 1028 l 1,21,-1
 345 1082 l 1,0,-1
EndSplineSet
EndChar
StartChar: schwa
Encoding: 601 601 155
Width: 1202
Flags: W
LayerCount: 2
Back
Fore
SplineSet
681 1102 m 0,0,1
 784 1100 784 1100 860.5 1053.5 c 128,-1,2
 937 1007 937 1007 985 933 c 128,-1,3
 1033 859 1033 859 1051 766.5 c 128,-1,4
 1069 674 1069 674 1055 581 c 2,5,-1
 1044 517 l 2,6,7
 1032 451 1032 451 1007 386 c 128,-1,8
 982 321 982 321 945.5 261 c 128,-1,9
 909 201 909 201 862 149.5 c 128,-1,10
 815 98 815 98 758.5 60.5 c 128,-1,11
 702 23 702 23 636.5 1 c 128,-1,12
 571 -21 571 -21 499 -21 c 0,13,14
 406 -21 406 -21 335 15.5 c 128,-1,15
 264 52 264 52 219 113 c 128,-1,16
 174 174 174 174 156.5 254 c 128,-1,17
 139 334 139 334 152 421 c 2,18,-1
 166 504 l 1,19,-1
 984 503 l 1,20,-1
 988 517 l 1,21,-1
 1001 581 l 2,22,23
 1015 663 1015 663 1001.5 746 c 128,-1,24
 988 829 988 829 947.5 895.5 c 128,-1,25
 907 962 907 962 840.5 1004 c 128,-1,26
 774 1046 774 1046 681 1048 c 0,27,28
 577 1050 577 1050 483 1017 c 128,-1,29
 389 984 389 984 310 916 c 1,30,-1
 285 960 l 1,31,32
 369 1032 369 1032 470 1068 c 128,-1,33
 571 1104 571 1104 681 1102 c 0,0,1
498 33 m 0,34,35
 589 33 589 33 664.5 69 c 128,-1,36
 740 105 740 105 800 163.5 c 128,-1,37
 860 222 860 222 904 297 c 128,-1,38
 948 372 948 372 976 450 c 1,39,-1
 213 450 l 1,40,-1
 206 417 l 2,41,42
 193 343 193 343 207 273.5 c 128,-1,43
 221 204 221 204 259.5 150.5 c 128,-1,44
 298 97 298 97 358 65 c 128,-1,45
 418 33 418 33 498 33 c 0,34,35
EndSplineSet
EndChar
StartChar: circumflex
Encoding: 710 710 156
Width: 1202
Flags: W
LayerCount: 2
Back
Fore
SplineSet
982 1274 m 1,0,-1
 980 1264 l 1,1,-1
 915 1263 l 1,2,-1
 769 1459 l 1,3,-1
 555 1265 l 1,4,-1
 490 1265 l 1,5,-1
 491 1279 l 1,6,-1
 752 1517 l 1,7,-1
 792 1517 l 1,8,-1
 982 1274 l 1,0,-1
EndSplineSet
EndChar
StartChar: caron
Encoding: 711 711 157
Width: 1202
Flags: W
LayerCount: 2
Back
Fore
SplineSet
713 1290 m 1,0,-1
 939 1505 l 1,1,-1
 993 1505 l 1,2,-1
 992 1492 l 1,3,-1
 741 1243 l 1,4,-1
 683 1243 l 1,5,-1
 508 1495 l 1,6,-1
 509 1506 l 1,7,-1
 564 1507 l 1,8,-1
 713 1290 l 1,0,-1
EndSplineSet
EndChar
StartChar: breve
Encoding: 728 728 158
Width: 1202
Flags: W
LayerCount: 2
Back
Fore
SplineSet
1005 1485 m 1,0,1
 992 1430 992 1430 964.5 1384.5 c 128,-1,2
 937 1339 937 1339 898 1306.5 c 128,-1,3
 859 1274 859 1274 809 1256 c 128,-1,4
 759 1238 759 1238 701 1238 c 0,5,6
 644 1238 644 1238 599 1256 c 128,-1,7
 554 1274 554 1274 523 1306.5 c 128,-1,8
 492 1339 492 1339 476.5 1384.5 c 128,-1,9
 461 1430 461 1430 463 1486 c 1,10,-1
 516 1486 l 1,11,12
 511 1394 511 1394 559.5 1344 c 128,-1,13
 608 1294 608 1294 701 1294 c 0,14,15
 795 1295 795 1295 860 1346 c 128,-1,16
 925 1397 925 1397 951 1485 c 1,17,-1
 1005 1485 l 1,0,1
EndSplineSet
EndChar
StartChar: dotaccent
Encoding: 729 729 159
Width: 1202
Flags: W
LayerCount: 2
Back
Fore
SplineSet
677 1399 m 0,0,1
 680 1419 680 1419 699.5 1436 c 128,-1,2
 719 1453 719 1453 740 1453 c 0,3,4
 763 1453 763 1453 778.5 1435.5 c 128,-1,5
 794 1418 794 1418 790 1395 c 0,6,7
 787 1374 787 1374 767 1358 c 128,-1,8
 747 1342 747 1342 726 1342 c 0,9,10
 703 1343 703 1343 688 1359.5 c 128,-1,11
 673 1376 673 1376 677 1399 c 0,0,1
EndSplineSet
EndChar
StartChar: ring
Encoding: 730 730 160
Width: 1202
Flags: W
LayerCount: 2
Back
Fore
SplineSet
571 1382 m 0,0,1
 576 1415 576 1415 592.5 1446.5 c 128,-1,2
 609 1478 609 1478 634 1502 c 128,-1,3
 659 1526 659 1526 690 1541 c 128,-1,4
 721 1556 721 1556 756 1556 c 0,5,6
 790 1556 790 1556 817.5 1541 c 128,-1,7
 845 1526 845 1526 863 1501 c 128,-1,8
 881 1476 881 1476 888.5 1445 c 128,-1,9
 896 1414 896 1414 891 1382 c 0,10,11
 886 1349 886 1349 869 1318 c 128,-1,12
 852 1287 852 1287 827 1264 c 128,-1,13
 802 1241 802 1241 770.5 1226.5 c 128,-1,14
 739 1212 739 1212 705 1212 c 256,15,16
 671 1212 671 1212 644 1226.5 c 128,-1,17
 617 1241 617 1241 599 1265 c 128,-1,18
 581 1289 581 1289 573.5 1319.5 c 128,-1,19
 566 1350 566 1350 571 1382 c 0,0,1
625 1382 m 0,20,21
 621 1361 621 1361 624.5 1340.5 c 128,-1,22
 628 1320 628 1320 638.5 1303.5 c 128,-1,23
 649 1287 649 1287 666 1277 c 128,-1,24
 683 1267 683 1267 706 1267 c 0,25,26
 730 1267 730 1267 752 1276.5 c 128,-1,27
 774 1286 774 1286 791 1302 c 128,-1,28
 808 1318 808 1318 820 1339 c 128,-1,29
 832 1360 832 1360 837 1382 c 0,30,31
 841 1403 841 1403 838 1424.5 c 128,-1,32
 835 1446 835 1446 824.5 1463 c 128,-1,33
 814 1480 814 1480 796.5 1490.5 c 128,-1,34
 779 1501 779 1501 755 1501 c 256,35,36
 731 1501 731 1501 709.5 1491 c 128,-1,37
 688 1481 688 1481 670.5 1464.5 c 128,-1,38
 653 1448 653 1448 641 1426 c 128,-1,39
 629 1404 629 1404 625 1382 c 0,20,21
EndSplineSet
EndChar
StartChar: ogonek
Encoding: 731 731 161
Width: 1202
Flags: W
LayerCount: 2
Back
Fore
SplineSet
578 -2 m 1,0,1
 546 -24 546 -24 508 -49 c 128,-1,2
 470 -74 470 -74 436 -103.5 c 128,-1,3
 402 -133 402 -133 376.5 -168.5 c 128,-1,4
 351 -204 351 -204 345 -246 c 256,5,6
 339 -288 339 -288 360.5 -313 c 128,-1,7
 382 -338 382 -338 424 -340 c 0,8,9
 457 -342 457 -342 486.5 -330 c 128,-1,10
 516 -318 516 -318 545 -303 c 1,11,-1
 555 -352 l 1,12,13
 524 -370 524 -370 491.5 -382.5 c 128,-1,14
 459 -395 459 -395 423 -395 c 0,15,16
 390 -395 390 -395 364 -383.5 c 128,-1,17
 338 -372 338 -372 320.5 -352.5 c 128,-1,18
 303 -333 303 -333 295 -305.5 c 128,-1,19
 287 -278 287 -278 292 -246 c 0,20,21
 298 -200 298 -200 324 -161.5 c 128,-1,22
 350 -123 350 -123 385 -91 c 128,-1,23
 420 -59 420 -59 459.5 -31.5 c 128,-1,24
 499 -4 499 -4 534 19 c 1,25,-1
 578 -2 l 1,0,1
EndSplineSet
EndChar
StartChar: tilde
Encoding: 732 732 162
Width: 1202
Flags: W
LayerCount: 2
Back
Fore
SplineSet
892 1471 m 1,0,1
 883 1436 883 1436 867 1403 c 128,-1,2
 851 1370 851 1370 827 1344 c 128,-1,3
 803 1318 803 1318 771.5 1302 c 128,-1,4
 740 1286 740 1286 700 1286 c 0,5,6
 661 1286 661 1286 631.5 1306 c 128,-1,7
 602 1326 602 1326 574.5 1349.5 c 128,-1,8
 547 1373 547 1373 517.5 1392 c 128,-1,9
 488 1411 488 1411 450 1410 c 0,10,11
 421 1410 421 1410 399.5 1399.5 c 128,-1,12
 378 1389 378 1389 361.5 1372 c 128,-1,13
 345 1355 345 1355 333.5 1333 c 128,-1,14
 322 1311 322 1311 313 1287 c 1,15,-1
 258 1287 l 1,16,17
 267 1322 267 1322 283 1354 c 128,-1,18
 299 1386 299 1386 323 1411 c 128,-1,19
 347 1436 347 1436 378.5 1450.5 c 128,-1,20
 410 1465 410 1465 449 1465 c 256,21,22
 488 1465 488 1465 517.5 1445.5 c 128,-1,23
 547 1426 547 1426 575 1402.5 c 128,-1,24
 603 1379 603 1379 632.5 1360 c 128,-1,25
 662 1341 662 1341 700 1342 c 0,26,27
 728 1342 728 1342 750 1353.5 c 128,-1,28
 772 1365 772 1365 788.5 1383 c 128,-1,29
 805 1401 805 1401 817 1424 c 128,-1,30
 829 1447 829 1447 837 1471 c 1,31,-1
 892 1471 l 1,0,1
EndSplineSet
EndChar
StartChar: hungarumlaut
Encoding: 733 733 163
Width: 1202
Flags: W
LayerCount: 2
Back
Fore
SplineSet
971 1535 m 1,0,-1
 1060 1535 l 1,1,-1
 719 1233 l 1,2,-1
 643 1234 l 1,3,-1
 971 1535 l 1,0,-1
693 1535 m 1,4,-1
 776 1535 l 1,5,-1
 481 1233 l 1,6,-1
 409 1234 l 1,7,-1
 693 1535 l 1,4,-1
EndSplineSet
EndChar
StartChar: uni02F3
Encoding: 755 755 164
Width: 1202
Flags: W
LayerCount: 2
Back
Fore
SplineSet
335 -218 m 0,0,1
 338 -194 338 -194 351.5 -173 c 128,-1,2
 365 -152 365 -152 384 -135.5 c 128,-1,3
 403 -119 403 -119 426 -109 c 128,-1,4
 449 -99 449 -99 473 -99 c 256,5,6
 497 -99 497 -99 517 -109 c 128,-1,7
 537 -119 537 -119 551 -136 c 128,-1,8
 565 -153 565 -153 571.5 -175 c 128,-1,9
 578 -197 578 -197 574 -220 c 0,10,11
 571 -243 571 -243 558 -264 c 128,-1,12
 545 -285 545 -285 526.5 -300.5 c 128,-1,13
 508 -316 508 -316 485.5 -325.5 c 128,-1,14
 463 -335 463 -335 440 -335 c 0,15,16
 416 -335 416 -335 395.5 -325.5 c 128,-1,17
 375 -316 375 -316 360 -300 c 128,-1,18
 345 -284 345 -284 338 -263 c 128,-1,19
 331 -242 331 -242 335 -218 c 0,0,1
391 -220 m 1,20,21
 396 -243 396 -243 405.5 -260.5 c 128,-1,22
 415 -278 415 -278 442 -278 c 0,23,24
 454 -278 454 -278 466.5 -273.5 c 128,-1,25
 479 -269 479 -269 490 -260.5 c 128,-1,26
 501 -252 501 -252 509 -241 c 128,-1,27
 517 -230 517 -230 519 -218 c 0,28,29
 521 -207 521 -207 518 -196 c 128,-1,30
 515 -185 515 -185 508 -177 c 128,-1,31
 501 -169 501 -169 491 -163.5 c 128,-1,32
 481 -158 481 -158 470 -158 c 0,33,34
 455 -157 455 -157 443 -162.5 c 128,-1,35
 431 -168 431 -168 421.5 -177 c 128,-1,36
 412 -186 412 -186 404.5 -197.5 c 128,-1,37
 397 -209 397 -209 391 -220 c 1,20,21
EndSplineSet
EndChar
StartChar: gravecomb
Encoding: 768 768 165
Width: 10
Flags: W
LayerCount: 2
Back
Fore
SplineSet
-465 1243 m 1,0,-1
 -534 1243 l 1,1,-1
 -669 1535 l 1,2,-1
 -594 1535 l 1,3,-1
 -465 1243 l 1,0,-1
EndSplineSet
EndChar
StartChar: acutecomb
Encoding: 769 769 166
Width: 10
Flags: W
LayerCount: 2
Back
Fore
SplineSet
-376 1535 m 1,0,-1
 -305 1534 l 1,1,-1
 -518 1246 l 1,2,-1
 -582 1247 l 1,3,-1
 -376 1535 l 1,0,-1
EndSplineSet
EndChar
StartChar: hook
Encoding: 777 777 168
Width: 10
Flags: W
LayerCount: 2
Back
Fore
SplineSet
-518 1227 m 1,0,-1
 -502 1326 l 1,1,2
 -474 1329 -474 1329 -441 1334.5 c 128,-1,3
 -408 1340 -408 1340 -378 1352 c 128,-1,4
 -348 1364 -348 1364 -326 1385 c 128,-1,5
 -304 1406 -304 1406 -298 1441 c 0,6,7
 -291 1480 -291 1480 -313.5 1502 c 128,-1,8
 -336 1524 -336 1524 -371 1534.5 c 128,-1,9
 -406 1545 -406 1545 -444.5 1547.5 c 128,-1,10
 -483 1550 -483 1550 -508 1551 c 1,11,-1
 -494 1598 l 1,12,13
 -458 1597 -458 1597 -411.5 1591 c 128,-1,14
 -365 1585 -365 1585 -325 1568 c 128,-1,15
 -285 1551 -285 1551 -260 1520.5 c 128,-1,16
 -235 1490 -235 1490 -242 1439 c 0,17,18
 -248 1398 -248 1398 -269.5 1370.5 c 128,-1,19
 -291 1343 -291 1343 -321.5 1324.5 c 128,-1,20
 -352 1306 -352 1306 -388 1296 c 128,-1,21
 -424 1286 -424 1286 -459 1281 c 1,22,-1
 -470 1227 l 1,23,-1
 -518 1227 l 1,0,-1
EndSplineSet
EndChar
StartChar: uni030F
Encoding: 783 783 169
Width: 10
Flags: W
LayerCount: 2
Back
Fore
SplineSet
-796 1253 m 1,0,-1
 -868 1253 l 1,1,-1
 -1112 1518 l 1,2,-1
 -1027 1518 l 1,3,-1
 -796 1253 l 1,0,-1
-577 1253 m 1,4,-1
 -646 1253 l 1,5,-1
 -846 1518 l 1,6,-1
 -765 1518 l 1,7,-1
 -577 1253 l 1,4,-1
EndSplineSet
EndChar
StartChar: dotbelow
Encoding: 803 803 170
Width: 10
Flags: W
LayerCount: 2
Back
Fore
SplineSet
-930 -216 m 0,0,1
 -927 -196 -927 -196 -907.5 -179 c 128,-1,2
 -888 -162 -888 -162 -867 -162 c 256,3,4
 -846 -162 -846 -162 -830 -180 c 128,-1,5
 -814 -198 -814 -198 -818 -220 c 0,6,7
 -820 -230 -820 -230 -826 -239.5 c 128,-1,8
 -832 -249 -832 -249 -841 -256.5 c 128,-1,9
 -850 -264 -850 -264 -861 -268.5 c 128,-1,10
 -872 -273 -872 -273 -882 -273 c 0,11,12
 -904 -272 -904 -272 -918.5 -255 c 128,-1,13
 -933 -238 -933 -238 -930 -216 c 0,0,1
EndSplineSet
EndChar
StartChar: tonos
Encoding: 900 900 171
Width: 1202
Flags: W
LayerCount: 2
Back
Fore
SplineSet
855 1577 m 1,0,-1
 923 1577 l 1,1,-1
 764 1306 l 1,2,-1
 707 1306 l 1,3,-1
 855 1577 l 1,0,-1
EndSplineSet
EndChar
StartChar: dieresistonos
Encoding: 901 901 172
Width: 1202
Flags: W
LayerCount: 2
Back
Fore
SplineSet
810 1657 m 1,0,-1
 890 1657 l 1,1,-1
 807 1418 l 1,2,-1
 750 1418 l 1,3,-1
 810 1657 l 1,0,-1
523 1423 m 0,4,5
 524 1432 524 1432 530 1442 c 128,-1,6
 536 1452 536 1452 544.5 1459.5 c 128,-1,7
 553 1467 553 1467 563 1472 c 128,-1,8
 573 1477 573 1477 583 1477 c 256,9,10
 593 1477 593 1477 602.5 1471.5 c 128,-1,11
 612 1466 612 1466 618 1457.5 c 128,-1,12
 624 1449 624 1449 627 1439 c 128,-1,13
 630 1429 630 1429 628 1419 c 0,14,15
 626 1410 626 1410 620.5 1400.5 c 128,-1,16
 615 1391 615 1391 606.5 1383.5 c 128,-1,17
 598 1376 598 1376 588 1371 c 128,-1,18
 578 1366 578 1366 568 1366 c 0,19,20
 547 1367 547 1367 533.5 1385 c 128,-1,21
 520 1403 520 1403 523 1423 c 0,4,5
927 1423 m 0,22,23
 928 1432 928 1432 934 1442 c 128,-1,24
 940 1452 940 1452 948.5 1459.5 c 128,-1,25
 957 1467 957 1467 967 1472 c 128,-1,26
 977 1477 977 1477 987 1477 c 0,27,28
 1009 1476 1009 1476 1022.5 1458 c 128,-1,29
 1036 1440 1036 1440 1033 1419 c 0,30,31
 1031 1410 1031 1410 1025.5 1400.5 c 128,-1,32
 1020 1391 1020 1391 1011.5 1383.5 c 128,-1,33
 1003 1376 1003 1376 992.5 1371 c 128,-1,34
 982 1366 982 1366 972 1366 c 0,35,36
 952 1367 952 1367 938 1385 c 128,-1,37
 924 1403 924 1403 927 1423 c 0,22,23
EndSplineSet
EndChar
StartChar: Gamma
Encoding: 915 915 174
Width: 1202
Flags: W
LayerCount: 2
Back
Fore
SplineSet
1166 1402 m 1,0,-1
 386 1402 l 1,1,-1
 143 0 l 1,2,-1
 89 0 l 1,3,-1
 341 1456 l 1,4,-1
 1174 1456 l 1,5,-1
 1166 1402 l 1,0,-1
EndSplineSet
EndChar
StartChar: Delta
Encoding: 916 916 175
AltUni2: 002206.ffffffff.0
Width: 1202
Flags: W
LayerCount: 2
Back
Fore
SplineSet
731 1456 m 1,0,-1
 789 1456 l 1,1,-1
 1047 0 l 1,2,-1
 -27 0 l 1,3,-1
 731 1456 l 1,0,-1
56 54 m 1,4,-1
 983 54 l 1,5,-1
 762 1325 l 1,6,-1
 754 1395 l 1,7,-1
 720 1325 l 1,8,-1
 56 54 l 1,4,-1
EndSplineSet
EndChar
StartChar: Theta
Encoding: 920 920 176
Width: 1202
Flags: W
LayerCount: 2
Back
Fore
SplineSet
847 691 m 1,0,-1
 349 691 l 1,1,-1
 356 744 l 1,2,-1
 854 744 l 1,3,-1
 847 691 l 1,0,-1
1058 619 m 2,4,5
 1045 549 1045 549 1021.5 474 c 128,-1,6
 998 399 998 399 962.5 328 c 128,-1,7
 927 257 927 257 880.5 194 c 128,-1,8
 834 131 834 131 776 83.5 c 128,-1,9
 718 36 718 36 647.5 8 c 128,-1,10
 577 -20 577 -20 495 -20 c 0,11,12
 412 -20 412 -20 351 9.5 c 128,-1,13
 290 39 290 39 247 88.5 c 128,-1,14
 204 138 204 138 178.5 202.5 c 128,-1,15
 153 267 153 267 141 338 c 128,-1,16
 129 409 129 409 130 481.5 c 128,-1,17
 131 554 131 554 141 619 c 2,18,-1
 178 837 l 2,19,20
 191 907 191 907 215 982 c 128,-1,21
 239 1057 239 1057 274 1128 c 128,-1,22
 309 1199 309 1199 356 1262 c 128,-1,23
 403 1325 403 1325 461.5 1373 c 128,-1,24
 520 1421 520 1421 590 1448.5 c 128,-1,25
 660 1476 660 1476 743 1476 c 256,26,27
 826 1476 826 1476 887.5 1446.5 c 128,-1,28
 949 1417 949 1417 991.5 1367.5 c 128,-1,29
 1034 1318 1034 1318 1059.5 1253.5 c 128,-1,30
 1085 1189 1085 1189 1096.5 1118 c 128,-1,31
 1108 1047 1108 1047 1106.5 974.5 c 128,-1,32
 1105 902 1105 902 1095 837 c 2,33,-1
 1058 619 l 2,4,5
1043 839 m 2,34,35
 1052 896 1052 896 1054.5 961.5 c 128,-1,36
 1057 1027 1057 1027 1049 1091.5 c 128,-1,37
 1041 1156 1041 1156 1020.5 1216 c 128,-1,38
 1000 1276 1000 1276 963.5 1321.5 c 128,-1,39
 927 1367 927 1367 872.5 1394.5 c 128,-1,40
 818 1422 818 1422 743 1422 c 0,41,42
 669 1422 669 1422 605.5 1396.5 c 128,-1,43
 542 1371 542 1371 489.5 1327 c 128,-1,44
 437 1283 437 1283 395 1225 c 128,-1,45
 353 1167 353 1167 321 1102.5 c 128,-1,46
 289 1038 289 1038 267.5 970 c 128,-1,47
 246 902 246 902 234 839 c 2,48,-1
 195 619 l 2,49,50
 186 562 186 562 183.5 496.5 c 128,-1,51
 181 431 181 431 189 366 c 128,-1,52
 197 301 197 301 217.5 241 c 128,-1,53
 238 181 238 181 274.5 135 c 128,-1,54
 311 89 311 89 365 61.5 c 128,-1,55
 419 34 419 34 495 34 c 0,56,57
 570 34 570 34 633.5 59.5 c 128,-1,58
 697 85 697 85 749.5 129 c 128,-1,59
 802 173 802 173 844 231 c 128,-1,60
 886 289 886 289 917.5 354 c 128,-1,61
 949 419 949 419 970.5 487 c 128,-1,62
 992 555 992 555 1004 619 c 2,63,-1
 1043 839 l 2,34,35
EndSplineSet
EndChar
StartChar: Lambda
Encoding: 923 923 177
Width: 1202
Flags: W
LayerCount: 2
Back
Fore
SplineSet
741 1376 m 1,0,-1
 53 0 l 1,1,-1
 -5 0 l 1,2,-1
 720 1456 l 1,3,-1
 781 1456 l 1,4,-1
 1008 0 l 1,5,-1
 953 0 l 1,6,-1
 741 1376 l 1,0,-1
EndSplineSet
EndChar
StartChar: Xi
Encoding: 926 926 178
Width: 1202
Flags: W
LayerCount: 2
Back
Fore
SplineSet
60 54 m 1,0,-1
 937 54 l 1,1,-1
 929 0 l 1,2,-1
 53 0 l 1,3,-1
 60 54 l 1,0,-1
284 741 m 1,4,-1
 943 741 l 1,5,-1
 936 687 l 1,6,-1
 277 687 l 1,7,-1
 284 741 l 1,4,-1
323 1456 m 1,8,-1
 1142 1456 l 1,9,-1
 1134 1403 l 1,10,-1
 316 1403 l 1,11,-1
 323 1456 l 1,8,-1
EndSplineSet
EndChar
StartChar: Pi
Encoding: 928 928 179
Width: 1202
Flags: W
LayerCount: 2
Back
Fore
SplineSet
910 0 m 1,0,-1
 859 0 l 1,1,-1
 1101 1402 l 1,2,-1
 370 1402 l 1,3,-1
 128 0 l 1,4,-1
 77 0 l 1,5,-1
 328 1456 l 1,6,-1
 1159 1456 l 1,7,-1
 910 0 l 1,0,-1
EndSplineSet
EndChar
StartChar: Sigma
Encoding: 931 931 180
Width: 1202
Flags: W
LayerCount: 2
Back
Fore
SplineSet
738 768 m 1,0,-1
 109 54 l 1,1,-1
 994 54 l 1,2,-1
 986 0 l 1,3,-1
 23 0 l 1,4,-1
 29 44 l 1,5,-1
 690 791 l 1,6,-1
 266 1412 l 1,7,-1
 273 1456 l 1,8,-1
 308 1456 l 1,9,-1
 309 1453 l 1,10,-1
 309 1456 l 1,11,-1
 1178 1456 l 1,12,-1
 1171 1403 l 1,13,-1
 343 1403 l 1,14,-1
 745 814 l 1,15,-1
 738 768 l 1,0,-1
EndSplineSet
EndChar
StartChar: Phi
Encoding: 934 934 181
Width: 1202
Flags: W
LayerCount: 2
Back
Fore
SplineSet
734 1266 m 1,0,1
 841 1260 841 1260 923 1215.5 c 128,-1,2
 1005 1171 1005 1171 1057 1099 c 128,-1,3
 1109 1027 1109 1027 1129 934 c 128,-1,4
 1149 841 1149 841 1132 739 c 0,5,6
 1114 631 1114 631 1063.5 536.5 c 128,-1,7
 1013 442 1013 442 937 371 c 128,-1,8
 861 300 861 300 764 257 c 128,-1,9
 667 214 667 214 557 209 c 1,10,-1
 518 0 l 1,11,-1
 467 0 l 1,12,-1
 505 209 l 1,13,14
 398 215 398 215 316.5 260 c 128,-1,15
 235 305 235 305 183 377 c 128,-1,16
 131 449 131 449 111.5 542 c 128,-1,17
 92 635 92 635 109 737 c 0,18,19
 127 845 127 845 177.5 938.5 c 128,-1,20
 228 1032 228 1032 304 1103 c 128,-1,21
 380 1174 380 1174 476.5 1217 c 128,-1,22
 573 1260 573 1260 683 1266 c 1,23,-1
 718 1456 l 1,24,-1
 769 1456 l 1,25,-1
 734 1266 l 1,0,1
1078 739 m 0,26,27
 1095 832 1095 832 1079 915.5 c 128,-1,28
 1063 999 1063 999 1018 1063 c 128,-1,29
 973 1127 973 1127 900 1167 c 128,-1,30
 827 1207 827 1207 730 1212 c 1,31,-1
 561 263 l 1,32,33
 660 268 660 268 746.5 307 c 128,-1,34
 833 346 833 346 901 409.5 c 128,-1,35
 969 473 969 473 1014.5 558 c 128,-1,36
 1060 643 1060 643 1078 739 c 0,26,27
165 737 m 0,37,38
 148 644 148 644 163 560.5 c 128,-1,39
 178 477 178 477 222.5 413 c 128,-1,40
 267 349 267 349 339.5 309 c 128,-1,41
 412 269 412 269 509 263 c 1,42,-1
 679 1212 l 1,43,44
 581 1206 581 1206 494.5 1167 c 128,-1,45
 408 1128 408 1128 340.5 1064 c 128,-1,46
 273 1000 273 1000 227.5 916.5 c 128,-1,47
 182 833 182 833 165 737 c 0,37,38
EndSplineSet
EndChar
StartChar: Psi
Encoding: 936 936 182
Width: 1202
Flags: W
LayerCount: 2
Back
Fore
SplineSet
604 471 m 1,0,1
 699 480 699 480 778 521.5 c 128,-1,2
 857 563 857 563 917 627.5 c 128,-1,3
 977 692 977 692 1016.5 774 c 128,-1,4
 1056 856 1056 856 1074 946 c 2,5,-1
 1163 1456 l 1,6,-1
 1215 1456 l 1,7,-1
 1128 946 l 2,8,9
 1109 843 1109 843 1065 750.5 c 128,-1,10
 1021 658 1021 658 954 586 c 128,-1,11
 887 514 887 514 797.5 468.5 c 128,-1,12
 708 423 708 423 599 416 c 1,13,-1
 525 0 l 1,14,-1
 473 0 l 1,15,-1
 547 416 l 1,16,17
 442 425 442 425 369 473 c 128,-1,18
 296 521 296 521 253.5 594.5 c 128,-1,19
 211 668 211 668 198 759 c 128,-1,20
 185 850 185 850 200 946 c 2,21,-1
 289 1456 l 1,22,-1
 342 1456 l 1,23,-1
 255 946 l 2,24,25
 241 862 241 862 250.5 780.5 c 128,-1,26
 260 699 260 699 296 633.5 c 128,-1,27
 332 568 332 568 395 524 c 128,-1,28
 458 480 458 480 552 471 c 1,29,-1
 724 1456 l 1,30,-1
 776 1456 l 1,31,-1
 604 471 l 1,0,1
EndSplineSet
EndChar
StartChar: Omega
Encoding: 937 937 183
AltUni2: 002126.ffffffff.0
Width: 1202
Flags: W
LayerCount: 2
Back
Fore
SplineSet
594 78 m 1,0,1
 687 128 687 128 760 198.5 c 128,-1,2
 833 269 833 269 887 353.5 c 128,-1,3
 941 438 941 438 976.5 534 c 128,-1,4
 1012 630 1012 630 1031 732 c 2,5,-1
 1052 851 l 2,6,7
 1061 909 1061 909 1062.5 973.5 c 128,-1,8
 1064 1038 1064 1038 1054 1101.5 c 128,-1,9
 1044 1165 1044 1165 1022 1223 c 128,-1,10
 1000 1281 1000 1281 962 1325 c 128,-1,11
 924 1369 924 1369 869 1395.5 c 128,-1,12
 814 1422 814 1422 740 1422 c 0,13,14
 667 1422 667 1422 603 1397.5 c 128,-1,15
 539 1373 539 1373 486 1330.5 c 128,-1,16
 433 1288 433 1288 389.5 1231.5 c 128,-1,17
 346 1175 346 1175 313 1111.5 c 128,-1,18
 280 1048 280 1048 257.5 981 c 128,-1,19
 235 914 235 914 223 851 c 2,20,-1
 202 732 l 2,21,22
 187 642 187 642 187 548 c 128,-1,23
 187 454 187 454 209.5 367 c 128,-1,24
 232 280 232 280 281.5 205 c 128,-1,25
 331 130 331 130 416 78 c 1,26,-1
 411 54 l 1,27,-1
 412 54 l 1,28,-1
 404 0 l 1,29,-1
 9 0 l 1,30,-1
 17 54 l 1,31,-1
 345 55 l 1,32,33
 268 115 268 115 222.5 194.5 c 128,-1,34
 177 274 177 274 155.5 363 c 128,-1,35
 134 452 134 452 134 547 c 128,-1,36
 134 642 134 642 148 732 c 2,37,-1
 168 849 l 2,38,39
 181 921 181 921 205.5 995 c 128,-1,40
 230 1069 230 1069 266 1139 c 128,-1,41
 302 1209 302 1209 349.5 1270 c 128,-1,42
 397 1331 397 1331 456.5 1377 c 128,-1,43
 516 1423 516 1423 586.5 1449.5 c 128,-1,44
 657 1476 657 1476 740 1476 c 256,45,46
 823 1476 823 1476 885.5 1448 c 128,-1,47
 948 1420 948 1420 992 1372.5 c 128,-1,48
 1036 1325 1036 1325 1063 1262 c 128,-1,49
 1090 1199 1090 1199 1103 1129.5 c 128,-1,50
 1116 1060 1116 1060 1116 987.5 c 128,-1,51
 1116 915 1116 915 1105 849 c 2,52,-1
 1085 732 l 2,53,54
 1067 630 1067 630 1032 531 c 128,-1,55
 997 432 997 432 943.5 343.5 c 128,-1,56
 890 255 890 255 818 181 c 128,-1,57
 746 107 746 107 654 53 c 1,58,-1
 985 54 l 1,59,-1
 978 0 l 1,60,-1
 581 0 l 1,61,-1
 594 78 l 1,0,1
EndSplineSet
EndChar
